<svg width="1200px" height="1105.94349px" viewBox="0 0 1200 1105.94349" version="1.1" xmlns="http://www.w3.org/2000/svg" xmlns:xlink="http://www.w3.org/1999/xlink">
    <title>fishing illo bg</title>
    <g id="Final" stroke="none" stroke-width="1" fill="none" fill-rule="evenodd" opacity="0.5">
        <g id="Home---Desktop" transform="translate(0, -8017.1744)">
            <g id="fishing-illo-bg" transform="translate(-57, 8017.9334)">
                <path d="M1245.6738,460.724244 L1242.4198,450.327244 C1239.7488,461.422244 1229.7548,475.843244 1229.7548,475.843244 L1225.6598,470.931244 C1225.0478,470.175244 1224.4268,469.362244 1224.2808,468.400244 L1221.8208,463.565244 C1225.3138,462.522244 1228.7188,462.276244 1231.0908,459.509244 C1224.8238,456.314244 1215.4028,438.282244 1213.2838,434.013244 C1210.5828,445.025244 1199.6008,456.468244 1195.3788,460.596244 C1198.2678,461.210244 1201.1448,461.977244 1204.0338,462.591244 C1202.0998,467.371244 1198.7938,471.586244 1194.6128,474.603244 L1191.2498,477.493244 C1188.2398,473.278244 1185.9108,468.630244 1184.8708,463.565244 C1183.6068,466.544244 1181.9638,469.757244 1180.0128,472.858244 L1178.8518,469.708244 C1174.3638,467.893244 1170.7718,464.382244 1167.7258,460.619244 C1167.2838,460.074244 1166.8368,459.488244 1166.7318,458.795244 L1164.9588,455.311244 C1167.4758,454.559244 1169.9298,454.382244 1171.6398,452.388244 C1167.1228,450.085244 1160.3338,437.089244 1158.8058,434.013244 C1156.8598,441.949244 1148.9448,450.196244 1145.9018,453.171244 C1147.9848,453.614244 1150.0578,454.166244 1152.1398,454.609244 C1150.7458,458.054244 1148.3628,461.091244 1145.3498,463.266244 L1142.6058,465.426244 C1136.7698,460.309244 1133.4728,451.770244 1130.6498,444.563244 C1128.2518,451.323244 1125.3368,458.296244 1120.6558,463.568244 L1118.8288,460.686244 C1115.4328,457.217244 1112.6868,453.230244 1111.6458,448.758244 C1110.2828,451.591244 1109.0528,458.071244 1102.9718,463.565244 L1093.7298,465.978244 C1096.3998,463.874244 1098.9408,462.049244 1101.6108,459.946244 C1093.7508,454.919244 1088.3618,447.004244 1085.6358,438.082244 C1080.8858,448.316244 1075.8498,458.926244 1067.0608,466.002244 L1063.1038,468.586244 C1060.9688,464.384244 1058.9578,459.317244 1057.9968,456.155244 C1055.6428,462.478244 1052.5348,468.828244 1047.2018,472.961244 C1047.5708,473.806244 1051.0838,474.873244 1051.9748,475.109244 C1050.9238,476.731244 1049.6228,478.284244 1048.1618,479.719244 L1044.8588,483.789244 C1043.7408,481.497244 1042.8898,479.111244 1042.3978,476.693244 C1040.8658,482.897244 1038.3588,488.855244 1035.0248,494.306244 L1028.9918,490.017244 C1028.4768,488.723244 1027.9618,487.429244 1027.4478,486.134244 C1028.7468,485.798244 1030.7168,485.461244 1032.0158,485.125244 C1029.1628,483.512244 1027.0238,480.913244 1024.9528,478.372244 C1023.4718,476.555244 1021.8438,475.178244 1021.2668,472.905244 C1022.5328,472.375244 1024.8558,470.596244 1025.9928,469.825244 C1022.2688,465.975244 1019.1078,461.401244 1018.0298,456.155244 C1015.6418,461.784244 1011.2468,468.685244 1005.7368,471.456244 C1006.9698,472.327244 1010.9418,473.328244 1012.4088,473.683244 C1009.5098,476.246244 1003.2918,481.266244 999.9098,483.145244 C1002.5648,484.665244 1005.4868,485.719244 1008.5008,486.245244 C1007.1438,489.620244 1005.1108,492.646244 1002.9668,495.501244 L999.7868,499.165244 C997.5338,494.959244 995.7908,490.479244 994.6478,485.847244 C993.1598,493.146244 988.1678,500.136244 982.3088,504.736244 C983.7568,506.462244 985.3738,508.137244 987.4688,508.966244 L977.1558,513.992244 C969.8548,504.395244 967.4348,497.349244 967.2088,495.918244 C972.0128,495.427244 976.8728,493.443244 981.0028,490.942244 C975.2828,488.629244 970.7058,484.155244 966.8238,479.360244 C966.2618,478.665244 965.6908,477.919244 965.5568,477.035244 L963.2978,472.595244 C966.5058,471.637244 969.6328,471.412244 971.8118,468.870244 C966.0558,465.935244 957.4038,449.374244 955.4568,445.454244 C952.9768,455.568244 942.8908,466.077244 939.0128,469.868244 C941.6668,470.432244 944.3088,471.137244 946.9628,471.701244 C945.1858,476.090244 942.1498,479.962244 938.3098,482.733244 L934.5448,484.409244 C932.1098,480.800244 930.2378,476.859244 929.3618,472.595244 C926.0468,480.409244 919.9458,489.991244 912.2958,493.837244 C913.6528,494.796244 917.3918,495.865244 919.9008,496.515244 L917.3368,500.778244 C913.3128,504.336244 908.9018,507.456244 904.2068,510.065244 C907.8938,512.175244 911.9488,513.639244 916.1328,514.369244 C914.4678,518.511244 912.0688,522.273244 909.4788,525.828244 L906.6318,521.658244 C904.9728,519.075244 901.2038,517.116244 898.1448,516.858244 C888.5438,516.048244 891.3288,527.615244 889.3438,529.278244 C886.8288,531.385244 885.5608,527.492244 880.2138,531.912244 C876.7938,534.740244 871.4348,530.394244 867.3128,532.040244 C864.0248,533.352244 862.7388,538.053244 859.2468,538.640244 C857.9518,538.858244 856.6478,538.426244 855.3478,538.238244 C851.7718,537.721244 848.0158,539.273244 845.7078,542.027244 L840.6328,540.172244 C838.6258,538.931244 836.1268,538.515244 833.8258,539.037244 C832.4548,539.349244 830.8748,539.938244 829.7618,539.078244 C829.1358,538.595244 828.8778,537.786244 828.4298,537.134244 C827.3838,535.610244 825.3118,535.053244 823.4878,535.354244 C821.6638,535.654244 820.0388,536.663244 818.5378,537.743244 C816.9048,538.919244 815.3508,540.206244 813.8918,541.593244 C813.5098,541.956244 813.1148,542.337244 812.6138,542.502244 C812.0858,542.676244 811.5128,542.584244 810.9588,542.538244 C807.4708,542.244244 803.8838,543.947244 801.9058,546.835244 C800.2308,546.682244 797.9638,546.848244 796.4228,547.523244 C795.3588,547.988244 794.4898,548.808244 793.7208,549.678244 C792.9588,550.539244 792.2708,551.465244 791.6668,552.443244 C791.4788,552.747244 791.2928,553.063244 791.0158,553.289244 C790.7588,553.499244 790.4388,553.618244 790.1768,553.821244 C789.9158,554.024244 789.7098,554.367244 789.8208,554.679244 L789.7898,557.798244 L807.2018,557.212244 L834.0108,553.209244 L843.2368,550.738244 L843.2368,550.812244 L859.9488,546.130244 L880.2868,543.582244 L900.2848,546.649244 L900.4068,546.582244 L921.0038,549.847244 L945.3778,551.354244 L954.1448,550.545244 L971.5538,551.324244 L982.9578,552.917244 L994.8188,550.410244 L1010.7128,546.664244 L1019.6298,547.152244 L1027.3478,550.320244 L1036.8098,549.951244 L1044.2128,552.917244 L1062.7358,552.917244 L1090.2758,549.703244 L1114.3258,547.690244 L1142.2998,545.549244 L1158.4948,545.926244 L1182.5338,547.690244 L1212.8518,547.236244 L1247.5068,547.058244 L1255.8508,548.475244 L1255.9408,472.817244 C1249.4388,470.649244 1245.6738,460.724244 1245.6738,460.724244" id="Fill-1" fill="#F9F9FA"></path>
                <path d="M389.4981,466.895844 L388.2161,463.007844 C385.4801,458.548844 383.4811,453.388844 381.6741,448.775844 C380.2801,452.703844 378.7001,456.694844 376.7101,460.388844 L369.8521,453.898844 C366.4561,450.428844 363.7101,446.441844 362.6691,441.969844 C361.3071,444.802844 360.0761,451.282844 353.9951,456.776844 L347.3711,463.682844 C346.3961,462.204844 345.5161,460.690844 344.7541,459.189844 C347.4231,457.085844 349.9651,455.260844 352.6341,453.157844 C344.7741,448.130844 339.3851,440.216844 336.6591,431.293844 C331.9091,441.528844 326.8731,452.137844 318.0841,459.213844 L325.8561,465.689844 C325.1341,466.790844 319.2761,476.209844 319.2761,476.209844 L316.0201,476.833844 C314.9771,477.033844 313.9421,476.448844 313.5751,475.451844 C312.4751,473.191844 311.7651,470.746844 311.5331,468.276844 C313.3741,468.056844 315.3291,467.433844 317.0681,466.788844 C314.0701,462.676844 310.4241,453.987844 309.0201,449.366844 C306.6661,455.690844 303.5591,462.039844 298.2251,466.172844 C298.5941,467.017844 302.1071,468.085844 302.9981,468.320844 C302.5781,468.969844 302.1171,469.607844 301.6231,470.230844 C300.0271,472.242844 298.8641,474.562844 298.3701,477.081844 L297.7331,480.321844 C295.6891,477.059844 294.1571,473.519844 293.4211,469.905844 C292.3921,474.072844 290.9221,478.128844 289.0611,481.996844 L285.0041,488.712844 C282.1391,486.210844 279.9201,483.054844 278.5361,479.511844 L278.4711,479.346844 C279.7701,479.010844 281.7401,478.672844 283.0391,478.336844 C280.1871,476.723844 278.0471,474.124844 275.9771,471.584844 C274.4951,469.766844 272.8671,468.389844 272.2901,466.116844 C273.5571,465.586844 275.8801,463.807844 277.0161,463.036844 C273.2921,459.186844 270.1311,454.612844 269.0531,449.366844 C266.6651,454.995844 262.2711,461.896844 256.7601,464.667844 C257.9931,465.539844 261.9651,466.539844 263.4321,466.895844 C260.5331,469.458844 254.3151,474.477844 250.9331,476.356844 C253.5891,477.876844 256.5101,478.931844 259.5241,479.457844 C258.1671,482.832844 256.1351,485.858844 253.9911,488.712844 L250.6341,492.037844 C248.4691,487.929844 246.7841,483.567844 245.6711,479.058844 C244.1831,486.357844 239.1911,493.347844 233.3331,497.947844 L225.5121,503.501844 C220.2801,495.829844 218.4281,490.369844 218.2331,489.129844 C223.0361,488.638844 227.8961,486.655844 232.0261,484.153844 C229.1661,482.997844 226.5921,481.300844 224.2481,479.293844 C220.6061,476.175844 217.7001,472.289844 215.4841,468.037844 L214.3211,465.806844 C217.5291,464.849844 220.6561,464.623844 222.8351,462.082844 C217.0791,459.146844 208.4271,442.586844 206.4801,438.665844 C204.0001,448.779844 193.9141,459.288844 190.0371,463.079844 C192.6901,463.643844 195.3321,464.348844 197.9861,464.912844 C196.2091,469.301844 188.1731,477.173844 184.3331,479.944844 L193.2151,483.820844 C193.2151,483.820844 190.1721,491.793844 185.2521,495.808844 L185.1461,496.399844 C185.0941,496.132844 185.1131,495.921844 185.2521,495.808844 C182.5861,491.241844 180.4291,486.375844 179.1881,481.348844 C177.5691,489.295844 172.1331,496.906844 165.7541,501.915844 C167.3301,503.794844 169.8791,505.617844 172.1591,506.520844 C172.1591,506.520844 171.0221,513.135844 163.2891,514.969844 C153.4981,503.020844 150.3681,494.017844 150.1001,492.313844 C155.3301,491.779844 160.6211,489.619844 165.1181,486.895844 C146.6571,477.957844 145.8411,466.918844 145.8411,466.918844 C149.3331,465.875844 152.7391,465.629844 155.1111,462.863844 C148.8431,459.667844 139.4231,441.635844 137.3031,437.366844 C134.6031,448.378844 123.6211,459.821844 119.3991,463.949844 C122.2881,464.563844 125.1651,465.330844 128.0541,465.945844 C126.4011,470.031844 119.1131,477.206844 114.8421,481.348844 C111.3371,476.772844 110.0461,472.545844 108.8901,466.918844 C105.2811,475.427844 98.6381,485.859844 90.3081,490.047844 C91.3681,490.797844 93.7681,491.609844 96.0481,492.269844 C97.9091,492.808844 98.4641,495.173844 97.0311,496.479844 L95.7961,497.604844 C91.4151,501.478844 86.6121,504.876844 81.5001,507.717844 C85.5141,510.015844 89.9291,511.608844 94.4861,512.403844 C90.3081,522.795844 81.8931,530.999844 76.4461,539.275844 L68.3781,552.987844 L175.7211,548.813844 L175.6101,549.428844 L202.9691,547.886844 L233.3331,544.813844 L241.1331,542.035844 L252.0671,543.079844 L256.6881,542.967844 L261.3091,542.855844 L270.7901,545.866844 L278.3711,544.394844 L286.7621,548.340844 L298.2251,549.428844 L307.6461,547.339844 L318.0841,543.079844 L326.3171,543.079844 L346.6811,545.534844 L360.6151,544.422844 L373.3861,541.692844 L374.3111,522.211844 L374.6141,511.069844 L376.6291,501.333844 C376.6291,501.333844 379.5721,493.955844 384.2751,488.250844 C384.2751,488.250844 379.2931,469.757844 389.4981,466.895844" id="Fill-3" fill="#F9F9FA"></path>
                <path d="M405.1783,342.792444 C409.4303,339.719444 413.8853,336.932444 418.5473,334.528444 C425.6613,330.859444 439.3033,322.555444 455.9013,306.190444 C465.5803,296.647444 480.6413,294.387444 490.5803,285.116444 C500.4143,275.945444 499.4033,267.910444 537.3533,257.939444 C579.0523,246.983444 577.7093,238.904444 590.9293,237.981444 L589.0053,246.138444 C583.4323,261.471444 617.0143,264.290444 593.1953,282.510444 C585.2213,288.610444 578.6133,289.265444 614.0923,315.440444 C657.4703,347.443444 643.5783,346.163444 633.7493,350.721444 C612.6313,360.515444 634.8103,362.202444 636.4063,373.770444 C636.4063,373.770444 640.8133,392.300444 631.0833,400.322444 L605.4623,393.615444 L575.7263,388.123444 L547.0893,383.383444 L518.1393,377.933444 L494.4333,372.039444 L464.2903,362.883444 L439.2413,355.237444 L421.7543,350.584444 L399.4983,346.898444 L405.1783,342.792444 Z" id="Fill-4" fill="#F9F9FA"></path>
                <path d="M758.3436,441.435144 C764.3906,439.561144 770.1926,436.927144 775.4716,433.432144 C806.2676,413.041144 774.2346,397.825144 797.4006,385.943144 C810.1856,379.385144 874.9666,380.566144 889.4376,354.471144 C906.6576,323.419144 878.2396,327.712144 873.3056,305.160144 C871.6346,297.522144 880.2476,286.509144 883.4866,279.139144 C893.6426,256.028144 855.6116,257.584144 888.8446,230.538144 C897.1586,223.772144 906.8176,216.846144 908.0526,208.253144 L908.9036,203.391144 C909.9556,197.383144 904.7876,191.995144 898.7746,193.020144 C884.7066,195.418144 869.5016,208.833144 852.7456,220.270144 C817.8216,244.108144 829.5696,251.068144 818.3586,263.164144 C812.9596,268.990144 804.4886,270.432144 797.0156,273.122144 C772.5046,281.946144 756.5986,305.733144 733.9886,318.673144 C723.3066,324.787144 711.0856,328.503144 701.8646,336.656144 C695.6586,342.144144 691.2106,349.310144 685.6806,355.479144 C675.9426,366.341144 652.4066,385.190144 636.4356,392.984144 L625.1756,398.598144 L643.9336,404.619144 L662.9126,411.513144 L687.7436,419.984144 L708.2966,427.620144 L718.8936,432.174144 L729.8796,437.681144 L743.3176,446.092144 L758.3436,441.435144 Z" id="Fill-5" fill="#F9F9FA"></path>
                <path d="M1244.0768,372.048344 C1206.8458,374.629344 1189.9348,375.801344 1152.7028,378.381344 C1122.1248,380.501344 1091.4148,382.638344 1061.5168,388.756344 C978.3898,405.767344 907.1018,452.131344 829.1138,482.994344 C796.8548,495.761344 753.9028,525.167344 720.4878,535.275344" id="Stroke-6" stroke="#D5D6D9" stroke-width="1.5" stroke-linecap="round" stroke-linejoin="round"></path>
                <path d="M636.4058,392.984644 C652.3768,385.190644 675.9138,366.341644 685.6518,355.478644 C691.1818,349.310644 695.6298,342.143644 701.8358,336.656644 C711.0558,328.503644 723.2768,324.786644 733.9598,318.672644 C756.5698,305.733644 772.4748,281.946644 796.9858,273.122644 C804.4588,270.431644 812.9298,268.989644 818.3288,263.164644 C829.5398,251.067644 817.7928,244.108644 852.7158,220.270644 C879.0228,202.313644 901.5058,179.482644 921.7658,202.064644 C930.4058,211.694644 938.3238,213.140644 950.4288,216.609644 C1024.1528,237.738644 1035.2568,283.132644 1086.5418,299.715644 C1118.0738,309.910644 1145.4938,329.648644 1172.3338,349.086644 C1179.7998,354.493644 1199.2518,361.565644 1205.1208,368.674644" id="Stroke-7" stroke="#D5D6D9" stroke-width="1.5" stroke-linecap="round" stroke-linejoin="round"></path>
                <path d="M829.1144,482.994744 C805.1464,477.936744 780.3394,468.756744 759.9054,456.955744 C750.4384,451.487744 742.0744,444.733744 732.6304,439.236744 C708.0804,424.945744 674.0334,416.150744 646.9214,405.740744 C602.7194,388.766744 553.3824,386.782744 507.2274,375.423744 C478.2984,368.304744 450.7294,357.565744 421.7544,350.584744 C390.5404,343.063744 348.7594,345.984744 317.1554,340.322744 C301.3694,337.494744 285.8144,333.275744 269.8764,331.491744 C200.7884,323.758744 134.4764,362.053744 65.0114,364.782744" id="Stroke-8" stroke="#D5D6D9" stroke-width="1.5" stroke-linecap="round" stroke-linejoin="round"></path>
                <path d="M171.3719,506.521244 C169.0909,505.618244 167.3299,503.795244 165.7539,501.915244 C172.1329,496.906244 177.5689,489.295244 179.1879,481.348244 C181.2819,489.828244 185.1809,497.858244 190.5519,504.746244 C188.9829,506.660244 186.7349,508.603244 184.3389,509.225244 C185.4939,512.640244 187.2899,516.234244 189.0939,519.355244 C190.6859,522.110244 192.7529,524.576244 194.2379,527.390244 C191.8149,529.063244 189.0659,529.869244 186.1259,530.031244 C187.3599,535.068244 189.1259,539.897244 192.0139,544.204244" id="Stroke-9" stroke="#D5D6D9" stroke-width="1.5" stroke-linecap="round" stroke-linejoin="round"></path>
                <path d="M99.6059,493.415844 C97.3879,492.877844 91.3849,491.365844 89.5209,490.048844 C97.8509,485.859844 104.4939,475.427844 108.1029,466.918844 C109.7329,474.849844 114.5109,481.762844 120.1399,487.582844 C118.4219,488.748844 114.9109,491.437844 112.9959,492.238844 C113.8689,495.674844 116.3289,497.755844 118.5689,500.503844 C121.6989,504.343844 124.9329,508.271844 129.2449,510.710844" id="Stroke-10" stroke="#D5D6D9" stroke-width="1.5" stroke-linecap="round" stroke-linejoin="round"></path>
                <path d="M95.0092,497.605544 C90.6282,501.479544 85.8252,504.876544 80.7132,507.717544 C84.7272,510.015544 89.1422,511.609544 93.6982,512.404544 C89.5212,522.795544 81.1062,531.000544 75.6582,539.275544" id="Stroke-11" stroke="#D5D6D9" stroke-width="1.5" stroke-linecap="round" stroke-linejoin="round"></path>
                <path d="M117.2673,514.271744 C119.0423,519.230744 120.9233,524.179744 123.5263,528.757744 C126.1303,533.336744 129.4993,537.559744 133.8163,540.578744" id="Stroke-12" stroke="#D5D6D9" stroke-width="1.5" stroke-linecap="round" stroke-linejoin="round"></path>
                <path d="M117.8458,477.957544 C122.0268,474.940544 125.3328,470.724544 127.2668,465.945544 C124.3778,465.331544 121.5008,464.564544 118.6118,463.949544 C122.8338,459.821544 133.8158,448.379544 136.5168,437.366544 C138.6358,441.635544 148.0558,459.667544 154.3238,462.863544 C151.9518,465.630544 148.5468,465.876544 145.0538,466.919544" id="Stroke-13" stroke="#D5D6D9" stroke-width="1.5" stroke-linecap="round" stroke-linejoin="round"></path>
                <path d="M147.5141,471.753844 C147.8501,473.981844 156.0231,483.536844 164.3311,486.895844 C159.8341,489.619844 154.5431,491.779844 149.3131,492.313844 C149.6121,494.210844 153.4301,505.146844 166.0781,519.138844 C162.8541,520.272844 159.2811,520.806844 155.8711,520.573844 C157.2441,523.887844 170.7391,544.393844 170.7391,544.393844" id="Stroke-14" stroke="#D5D6D9" stroke-width="1.5" stroke-linecap="round" stroke-linejoin="round"></path>
                <path d="M360.615,544.422544 C330.021,548.725544 335.364,538.670544 311.889,545.581544 C303.479,548.057544 291.969,551.621544 284.575,547.331544 C275.497,542.065544 273.645,549.073544 265.122,543.814544 C260.744,541.113544 259.147,545.235544 246.57,542.008544 C243.162,541.133544 239.277,542.152544 236.377,544.135544 C233.969,545.782544 163.384,551.897544 146.502,549.603544 C115.297,545.361544 72.75,555.696544 58,552.283544" id="Stroke-15" stroke="#D5D6D9" stroke-width="1.5" stroke-linecap="round" stroke-linejoin="round"></path>
                <path d="M413.2106,336.986744 C413.2106,336.986744 431.3116,330.434744 455.9016,306.190744 C465.5796,296.647744 480.6406,294.386744 490.5806,285.116744 C500.4146,275.944744 499.4036,267.910744 537.3536,257.939744 C579.0526,246.982744 577.7096,238.904744 590.9286,237.981744 C601.2456,237.261744 599.6466,244.433744 607.3746,251.307744 C616.6776,259.582744 636.6236,268.348744 641.8676,279.641744 C655.4436,308.881744 651.2826,288.705744 673.7836,310.132744 C680.8466,316.858744 686.0886,321.919744 689.9576,325.711744" id="Stroke-16" stroke="#D5D6D9" stroke-width="1.5" stroke-linecap="round" stroke-linejoin="round"></path>
                <path d="M589.0055,246.138844 C583.4325,261.471844 617.0145,264.289844 593.1955,282.510844 C585.2215,288.609844 578.6135,289.264844 614.0925,315.439844 C657.4705,347.442844 643.5785,346.162844 633.7495,350.721844 C612.6315,360.515844 634.8105,362.202844 636.4055,373.769844" id="Stroke-17" stroke="#D5D6D9" stroke-width="1.5" stroke-linecap="round" stroke-linejoin="round"></path>
                <path d="M908.023,208.252844 C906.788,216.845844 897.129,223.771844 888.815,230.537844 C855.582,257.583844 893.614,256.028844 883.457,279.138844 C880.218,286.508844 871.605,297.521844 873.276,305.159844 C878.21,327.712844 906.629,323.418844 889.408,354.471844 C874.938,380.566844 810.156,379.384844 797.371,385.942844 C771.983,398.964844 812.889,415.989844 764.746,439.441844" id="Stroke-18" stroke="#D5D6D9" stroke-width="1.5" stroke-linecap="round" stroke-linejoin="round"></path>
                <path d="M659.657,557.469844 L686.808,562.741844 C713.383,567.901844 712.12,558.536844 723.865,554.580844 C732.059,551.820844 740.934,555.738844 749.578,555.508844 C755.716,555.345844 761.722,553.075844 767.85,553.471844 C774.777,553.919844 781.213,557.741844 788.154,557.791844 C852.765,558.251844 854.04,536.337844 900.285,546.648844 C913.971,549.700844 932.734,551.187844 946.754,551.377844 C977.348,547.074844 972.005,557.129844 995.48,550.218844 C1003.891,547.742844 1015.401,544.177844 1022.795,548.467844 C1031.872,553.734844 1033.725,546.726844 1042.247,551.984844 C1050.157,556.865844 1130.894,542.122844 1160.867,546.196844 C1192.072,550.438844 1236.723,544.277844 1251.474,547.689844" id="Stroke-19" stroke="#D5D6D9" stroke-width="1.5" stroke-linecap="round" stroke-linejoin="round"></path>
                <path d="M179.9963,392.154944 C184.6293,393.438944 189.3603,390.353944 194.1673,390.384944 C197.2373,390.403944 200.1753,391.696944 203.2403,391.851944 C206.9563,392.038944 210.5233,390.554944 214.1533,389.738944 C217.7833,388.922944 222.0373,388.939944 224.6933,391.544944" id="Stroke-20" stroke="#D5D6D9" stroke-width="1.5" stroke-linecap="round" stroke-linejoin="round"></path>
                <path d="M354.8262,503.651644 C356.4272,513.632644 362.0202,523.679644 369.5362,530.439644" id="Stroke-21" stroke="#D5D6D9" stroke-width="1.5" stroke-linecap="round" stroke-linejoin="round"></path>
                <path d="M318.0845,459.213644 C326.8735,452.137644 331.9095,441.528644 336.6595,431.293644 C339.3855,440.216644 344.7745,448.131644 352.6345,453.157644 C349.9645,455.261644 347.4235,457.086644 344.7535,459.189644 C347.7715,465.126644 352.5345,471.301644 358.3845,474.484644 C355.7705,475.529644 352.4685,476.349644 349.7005,476.867644 C352.0415,485.337644 357.2355,492.977644 364.5145,497.902644" id="Stroke-22" stroke="#D5D6D9" stroke-width="1.5" stroke-linecap="round" stroke-linejoin="round"></path>
                <path d="M327.718,462.204644 C325.847,466.671644 314.896,482.592644 314.896,482.592644 C317.441,483.179644 325.11,482.905644 327.718,483.041644 C324.199,490.270644 320.487,497.431644 315.659,503.860644 C317.648,504.909644 321.251,504.828644 323.449,504.349644 C317.704,517.260644 318.084,525.618644 306.855,540.613644" id="Stroke-23" stroke="#D5D6D9" stroke-width="1.5" stroke-linecap="round" stroke-linejoin="round"></path>
                <path d="M388.2161,463.007444 C385.4801,458.548444 383.4801,453.388444 381.6741,448.775444 C378.4671,457.814444 374.3381,467.237444 366.2941,472.459444 C367.9241,473.062444 370.0681,473.400444 371.6991,474.002444 C369.1941,480.578444 368.7301,482.821444 365.0431,488.815444" id="Stroke-24" stroke="#D5D6D9" stroke-width="1.5" stroke-linecap="round" stroke-linejoin="round"></path>
                <path d="M313.7592,519.143544 C311.3742,517.587544 305.7662,513.003544 304.7152,510.357544 C304.7152,510.357544 307.8512,509.612544 309.5112,506.025544 C309.5112,506.025544 303.7102,501.002544 301.2372,495.078544 C301.2372,495.078544 305.2792,492.351544 306.8552,490.472544 C300.4762,485.463544 295.0402,477.852544 293.4212,469.905544 C291.3272,478.385544 287.4282,486.414544 282.0582,493.303544 C283.6272,495.217544 285.8752,497.160544 288.2702,497.782544 C287.1152,501.197544 285.3192,504.791544 283.5162,507.912544 C281.9232,510.667544 279.8562,513.133544 278.3712,515.947544 C280.7942,517.620544 283.5432,518.426544 286.4832,518.588544 C285.2492,523.624544 283.4832,528.454544 280.5962,532.761544" id="Stroke-25" stroke="#D5D6D9" stroke-width="1.5" stroke-linecap="round" stroke-linejoin="round"></path>
                <path d="M238.4921,502.177944 C236.3971,501.348944 234.7801,499.673944 233.3331,497.947944 C239.1911,493.347944 244.1831,486.357944 245.6711,479.058944 C247.5931,486.846944 251.1751,494.221944 256.1071,500.547944 C254.6661,502.305944 252.6011,504.089944 250.4011,504.661944 C251.4621,507.797944 253.1111,511.097944 254.7681,513.964944 C256.2301,516.494944 258.1291,518.759944 259.4931,521.344944 C257.2671,522.880944 254.7421,523.620944 252.0421,523.769944 C253.1751,528.394944 254.7981,532.830944 257.4491,536.786944" id="Stroke-26" stroke="#D5D6D9" stroke-width="1.5" stroke-linecap="round" stroke-linejoin="round"></path>
                <path d="M253.9907,488.712844 C256.1347,485.858844 258.1667,482.832844 259.5237,479.457844 C256.5097,478.931844 253.5887,477.876844 250.9337,476.356844 C254.3157,474.477844 260.5337,469.458844 263.4317,466.895844 C261.9647,466.539844 257.9927,465.538844 256.7607,464.667844 C262.2707,461.896844 266.6657,454.995844 269.0537,449.366844 C270.1307,454.612844 273.2927,459.186844 277.0157,463.036844 C275.8797,463.807844 273.5567,465.586844 272.2897,466.116844 C272.8677,468.389844 274.4947,469.766844 275.9767,471.584844 C278.0477,474.124844 280.1867,476.723844 283.0397,478.336844 C281.7397,478.672844 279.7697,479.009844 278.4707,479.346844 L280.0147,483.228844" id="Stroke-27" stroke="#D5D6D9" stroke-width="1.5" stroke-linecap="round" stroke-linejoin="round"></path>
                <path d="M299.1851,472.930844 C300.6461,471.495844 301.9471,469.942844 302.9981,468.320844 C302.1071,468.085844 298.5941,467.017844 298.2251,466.172844 C303.5581,462.039844 306.6661,455.690844 309.0201,449.366844 C310.4241,453.987844 314.0701,462.676844 317.0681,466.788844 C315.3291,467.433844 313.3741,468.056844 311.5331,468.276844 C311.7651,470.746844 312.4741,473.191844 313.5751,475.451844" id="Stroke-28" stroke="#D5D6D9" stroke-width="1.5" stroke-linecap="round" stroke-linejoin="round"></path>
                <path d="M193.2148,483.820344 L184.3328,479.944344 C188.1728,477.173344 196.2098,469.302344 197.9858,464.913344 C195.3328,464.348344 192.6908,463.644344 190.0368,463.080344 C193.9148,459.289344 204.0008,448.780344 206.4808,438.666344 C208.4268,442.586344 217.0788,459.147344 222.8348,462.082344 C220.6568,464.623344 217.5288,464.849344 214.3218,465.807344 L215.4838,468.037344 C217.6998,472.289344 220.6058,476.175344 224.2478,479.293344 C226.5918,481.301344 229.1658,482.997344 232.0258,484.154344 C227.8958,486.655344 223.0358,488.639344 218.2328,489.129344 C218.5078,490.872344 222.0138,500.915344 233.6308,513.766344 C230.6698,514.807344 227.3878,515.297344 224.2558,515.083344 C225.5168,518.127344 237.9108,536.960344 237.9108,536.960344" id="Stroke-29" stroke="#D5D6D9" stroke-width="1.5" stroke-linecap="round" stroke-linejoin="round"></path>
                <path d="M438.1982,392.539444 C439.9082,392.655444 441.4052,391.429444 443.0782,391.058444 C445.8572,390.443444 448.5422,392.224444 450.8432,393.898444 C451.2402,394.187444 451.6682,394.487444 452.1592,394.511444 C452.8622,394.546444 453.4482,394.016444 454.0872,393.720444 C455.7082,392.970444 457.6532,393.779444 458.9942,394.959444 C460.3342,396.140444 461.3362,397.677444 462.7382,398.784444 L469.1562,400.417444" id="Stroke-30" stroke="#D5D6D9" stroke-width="1.5" stroke-linecap="round" stroke-linejoin="round"></path>
                <path d="M675.2898,484.140144 C675.9548,484.076144 677.8578,481.702144 680.8648,482.932144 C682.3548,483.541144 683.4648,484.904144 684.9988,485.395144 C686.6098,485.910144 688.5028,485.396144 689.9578,486.259144" id="Stroke-31" stroke="#D5D6D9" stroke-width="1.5" stroke-linecap="round" stroke-linejoin="round"></path>
                <path d="M906.6315,521.658544 C904.9735,519.074544 901.2035,517.116544 898.1445,516.858544 C888.5435,516.048544 891.3285,527.615544 889.3435,529.278544 C886.8285,531.385544 885.5605,527.492544 880.2145,531.912544 C876.7935,534.740544 871.4345,530.394544 867.3125,532.039544 C864.0245,533.352544 862.7385,538.053544 859.2475,538.640544 C857.9515,538.858544 856.6475,538.425544 855.3475,538.237544 C850.9755,537.605544 846.3305,540.065544 844.3955,544.037544 C843.9175,545.019544 843.8515,545.634544 843.2365,546.537544" id="Stroke-32" stroke="#D5D6D9" stroke-width="1.5" stroke-linecap="round" stroke-linejoin="round"></path>
                <path d="M328.6927,254.671244 C326.3817,245.738244 317.1307,243.353244 309.4887,242.595244 C306.9607,242.344244 304.9457,240.430244 304.4387,237.940244 C303.0817,231.267244 295.8887,221.969244 282.5757,224.464244 C279.8177,224.981244 277.1387,223.416244 276.1147,220.804244 C268.3327,200.952244 228.3817,193.832244 214.0947,223.682244 C212.9757,226.019244 210.4537,227.389244 207.9077,226.909244 C199.6837,225.362244 191.1677,229.502244 187.6257,235.877244 C186.4017,238.082244 183.8667,239.248244 181.4077,238.692244 C168.5487,235.788244 155.1137,243.621244 151.8067,256.971244" id="Stroke-33" stroke="#D5D6D9" stroke-width="1.5" stroke-linecap="round" stroke-linejoin="round"></path>
                <path d="M1217.4528,255.451144 C1217.4528,255.451144 1210.4088,239.350144 1189.2008,243.698144 C1186.9328,244.163144 1184.6798,242.964144 1183.6638,240.884144 C1174.4888,222.093144 1149.3898,219.742144 1139.2178,235.603144 C1137.8048,237.807144 1134.9998,238.622144 1132.6368,237.495144 C1128.8838,235.705144 1122.7868,234.717144 1115.1238,240.271144" id="Stroke-34" stroke="#D5D6D9" stroke-width="1.5" stroke-linecap="round" stroke-linejoin="round"></path>
                <path d="M144.4899,33.8942452 C144.4899,33.8942452 136.6259,15.9192452 112.9489,20.7722452 C110.4169,21.2912452 107.9019,19.9532452 106.7679,17.6312452 C96.5239,-3.34775479 68.5029,-5.97275479 57.1469,11.7352452 C55.5689,14.1962452 52.4389,15.1052452 49.7999,13.8472452 C45.6109,11.8492452 38.8029,10.7472452 30.2479,16.9472452" id="Stroke-3" stroke="#E7E8EC" stroke-width="1.5" stroke-linecap="round" stroke-linejoin="round"></path>
                <path d="M1103.7974,56.8070445 C1105.1584,54.0270445 1108.7794,51.0350445 1113.9514,50.9190445 C1115.6094,50.8810445 1117.0614,49.8080445 1117.5244,48.2160445 C1121.8404,33.3560445 1141.3654,27.2160445 1150.6034,41.3400445 C1151.4884,42.6930445 1153.1384,43.3760445 1154.7054,42.9800445 C1158.4854,42.0260445 1164.1684,43.4050445 1165.9314,47.9980445" id="Stroke-35" stroke="#D5D6D9" stroke-width="1.5" stroke-linecap="round" stroke-linejoin="round"></path>
                <path d="M874.934,107.068316 C876.295,104.288316 879.916,101.296316 885.088,101.180316 C886.746,101.142316 888.198,100.069316 888.661,98.4773164 C892.977,83.6173164 912.502,77.4773164 921.74,91.6013164 C922.625,92.9543164 924.275,93.6373164 925.842,93.2413164 C929.622,92.2873164 935.305,93.6663164 937.068,98.2593164" id="Stroke-35" stroke="#D5D6D9" stroke-width="1.5" stroke-linecap="round" stroke-linejoin="round"></path>
                <path d="M1103.8028,510.728144 C1105.4038,520.709144 1110.9968,530.756144 1118.5128,537.516144" id="Stroke-36" stroke="#D5D6D9" stroke-width="1.5" stroke-linecap="round" stroke-linejoin="round"></path>
                <path d="M1067.0608,466.290144 C1075.8498,459.214144 1080.8858,448.605144 1085.6358,438.370144 C1088.3618,447.293144 1093.7508,455.208144 1101.6108,460.234144 C1098.9408,462.338144 1096.3998,464.163144 1093.7298,466.266144 C1096.7478,472.203144 1101.5108,478.378144 1107.3608,481.561144 C1104.7468,482.606144 1101.4448,483.426144 1098.6768,483.944144 C1101.0178,492.414144 1106.2118,500.054144 1113.4908,504.979144" id="Stroke-37" stroke="#D5D6D9" stroke-width="1.5" stroke-linecap="round" stroke-linejoin="round"></path>
                <path d="M1076.6948,469.281044 C1074.8238,473.748044 1063.8728,489.669044 1063.8728,489.669044 C1066.4178,490.256044 1074.0868,489.982044 1076.6948,490.118044 C1073.1758,497.347044 1069.4638,504.508044 1064.6358,510.937044 C1066.6248,511.986044 1070.2278,511.905044 1072.4258,511.426044 C1066.6808,524.337044 1067.0608,532.695044 1055.8318,547.690044" id="Stroke-38" stroke="#D5D6D9" stroke-width="1.5" stroke-linecap="round" stroke-linejoin="round"></path>
                <path d="M1149.2358,482.842944 C1143.6548,479.443944 1142.1118,474.390944 1138.5028,468.943944 L1145.1418,467.610944 C1137.6748,462.958944 1133.8588,453.042944 1130.6498,444.851944 C1127.4438,453.890944 1123.3148,463.313944 1115.2708,468.535944 C1116.9008,469.138944 1119.0448,469.476944 1120.6758,470.078944 C1118.1708,476.654944 1115.2478,483.179944 1111.5608,489.172944" id="Stroke-39" stroke="#D5D6D9" stroke-width="1.5" stroke-linecap="round" stroke-linejoin="round"></path>
                <path d="M1118.8288,490.350344 C1117.5248,493.469344 1116.0198,496.504344 1114.3258,499.429344" id="Stroke-40" stroke="#D5D6D9" stroke-width="1.5" stroke-linecap="round" stroke-linejoin="round"></path>
                <path d="M1147.9478,484.096444 C1145.2668,485.141444 1142.5318,486.046444 1139.7558,486.805444 C1141.1258,490.990444 1144.3018,494.957444 1146.7848,498.594444 C1149.3328,502.325444 1151.9678,506.145444 1155.6958,508.697444 C1152.3738,510.363444 1148.8698,511.073444 1145.1548,510.943444 C1147.7818,515.375444 1149.5188,518.341444 1156.9428,522.909444" id="Stroke-41" stroke="#D5D6D9" stroke-width="1.5" stroke-linecap="round" stroke-linejoin="round"></path>
                <path d="M1062.7358,526.219944 C1060.3508,524.663944 1054.7428,520.079944 1053.6918,517.433944 C1053.6918,517.433944 1056.8278,516.688944 1058.4878,513.101944 C1058.4878,513.101944 1052.6868,508.078944 1050.2138,502.154944 C1050.2138,502.154944 1054.2558,499.427944 1055.8318,497.548944 C1049.4528,492.539944 1044.0168,484.928944 1042.3978,476.981944 C1040.3038,485.461944 1036.4048,493.490944 1031.0348,500.379944 C1032.6038,502.293944 1034.8518,504.236944 1037.2468,504.858944 C1036.0918,508.273944 1034.2958,511.867944 1032.4928,514.988944 C1030.8998,517.743944 1028.8328,520.209944 1027.3478,523.023944 C1029.7708,524.696944 1032.5198,525.502944 1035.4598,525.664944 C1034.2258,530.700944 1032.4598,535.530944 1029.5728,539.837944" id="Stroke-42" stroke="#D5D6D9" stroke-width="1.5" stroke-linecap="round" stroke-linejoin="round"></path>
                <path d="M1251.4738,469.996644 C1246.1728,464.755644 1244.0718,456.605644 1242.6278,449.517644 C1240.3478,458.751644 1236.1018,467.495644 1230.2538,474.996644" id="Stroke-43" stroke="#D5D6D9" stroke-width="1.5" stroke-linecap="round" stroke-linejoin="round"></path>
                <path d="M987.4685,509.254444 C985.3745,508.425444 983.7565,506.750444 982.3095,505.024444 C988.1675,500.424444 993.1595,493.434444 994.6475,486.135444 C996.5695,493.923444 1000.1515,501.298444 1005.0835,507.624444 C1003.6425,509.382444 1001.5775,511.166444 999.3775,511.738444 C1000.4385,514.874444 1002.0875,518.174444 1003.7445,521.041444 C1005.2065,523.571444 1007.1055,525.836444 1008.4695,528.421444 C1006.2435,529.957444 1003.7185,530.697444 1001.0185,530.846444 C1002.1515,535.471444 1003.7745,539.907444 1006.4255,543.863444" id="Stroke-44" stroke="#D5D6D9" stroke-width="1.5" stroke-linecap="round" stroke-linejoin="round"></path>
                <path d="M1176.3728,490.350344 C1174.1548,489.812344 1168.1518,488.300344 1166.2878,486.983344 C1174.6178,482.794344 1181.2608,472.362344 1184.8698,463.853344 C1186.4998,471.784344 1191.2778,478.697344 1196.9068,484.517344 C1195.1888,485.683344 1191.6778,488.372344 1189.7628,489.173344 C1190.6358,492.609344 1193.0958,494.690344 1195.3358,497.438344 C1198.4658,501.278344 1201.6998,505.206344 1206.0118,507.645344" id="Stroke-45" stroke="#D5D6D9" stroke-width="1.5" stroke-linecap="round" stroke-linejoin="round"></path>
                <path d="M1171.7768,494.540044 C1167.3958,498.414044 1162.5928,501.811044 1157.4808,504.652044 C1161.4948,506.950044 1165.9098,508.544044 1170.4658,509.339044 C1166.2888,519.730044 1157.8738,527.935044 1152.4268,536.210044" id="Stroke-46" stroke="#D5D6D9" stroke-width="1.5" stroke-linecap="round" stroke-linejoin="round"></path>
                <path d="M1194.0348,511.206144 C1195.8098,516.165144 1197.6908,521.114144 1200.2938,525.692144 C1202.8978,530.271144 1206.2668,534.494144 1210.5838,537.512144" id="Stroke-47" stroke="#D5D6D9" stroke-width="1.5" stroke-linecap="round" stroke-linejoin="round"></path>
                <path d="M1194.6128,474.891944 C1198.7938,471.874944 1202.0998,467.658944 1204.0338,462.879944 C1201.1448,462.265944 1198.2678,461.498944 1195.3788,460.883944 C1199.6008,456.755944 1210.5828,445.313944 1213.2838,434.300944 C1215.4028,438.569944 1224.8228,456.601944 1231.0908,459.797944 C1228.7188,462.564944 1225.3138,462.810944 1221.8208,463.853944" id="Stroke-48" stroke="#D5D6D9" stroke-width="1.5" stroke-linecap="round" stroke-linejoin="round"></path>
                <path d="M1224.2808,468.688244 C1224.4258,469.650244 1225.0468,470.463244 1225.6598,471.219244 C1229.8868,476.440244 1234.8698,481.312244 1241.0988,483.830244 C1236.6008,486.554244 1231.3098,488.714244 1226.0788,489.248244 C1226.3788,491.145244 1230.1968,502.081244 1242.8448,516.073244 C1239.6208,517.207244 1236.0478,517.741244 1232.6378,517.508244 C1234.0108,520.822244 1247.5058,541.328244 1247.5058,541.328244" id="Stroke-49" stroke="#D5D6D9" stroke-width="1.5" stroke-linecap="round" stroke-linejoin="round"></path>
                <path d="M921.5581,497.218344 C919.5211,496.724344 914.0071,495.335344 912.2961,494.125344 C919.9461,490.279344 926.0471,480.697344 929.3621,472.883344 C930.8581,480.167344 935.2471,486.516344 940.4161,491.861344 C938.8391,492.932344 935.6141,495.401344 933.8551,496.137344 C934.6571,499.292344 936.9161,501.204344 938.9731,503.728344 C941.8481,507.254344 944.8181,510.862344 948.7781,513.102344" id="Stroke-50" stroke="#D5D6D9" stroke-width="1.5" stroke-linecap="round" stroke-linejoin="round"></path>
                <path d="M917.3365,501.066144 C913.3125,504.624144 908.9015,507.744144 904.2065,510.353144 C907.8935,512.463144 911.9485,513.927144 916.1325,514.657144 C912.2965,524.201144 904.5675,531.736144 899.5645,539.336144" id="Stroke-51" stroke="#D5D6D9" stroke-width="1.5" stroke-linecap="round" stroke-linejoin="round"></path>
                <path d="M937.7785,516.372444 C939.4085,520.926444 941.1355,525.471444 943.5275,529.676444 C945.9185,533.881444 949.0125,537.760444 952.9765,540.532444" id="Stroke-52" stroke="#D5D6D9" stroke-width="1.5" stroke-linecap="round" stroke-linejoin="round"></path>
                <path d="M938.3097,483.021244 C942.1497,480.250244 945.1857,476.379244 946.9627,471.989244 C944.3087,471.425244 941.6667,470.720244 939.0127,470.156244 C942.8907,466.365244 952.9767,455.856244 955.4567,445.742244 C957.4037,449.663244 966.0557,466.224244 971.8117,469.159244 C969.6327,471.700244 966.5057,471.926244 963.2977,472.883244" id="Stroke-53" stroke="#D5D6D9" stroke-width="1.5" stroke-linecap="round" stroke-linejoin="round"></path>
                <path d="M965.5573,477.323744 C965.6903,478.206744 966.2613,478.953744 966.8233,479.647744 C970.7063,484.442744 975.2823,488.917744 981.0023,491.230744 C976.8723,493.731744 972.0123,495.715744 967.2093,496.205744 C967.4843,497.948744 970.9903,507.991744 982.6073,520.842744 C979.6463,521.883744 976.3643,522.373744 973.2323,522.159744 C974.4933,525.203744 986.8873,544.036744 986.8873,544.036744" id="Stroke-54" stroke="#D5D6D9" stroke-width="1.5" stroke-linecap="round" stroke-linejoin="round"></path>
                <path d="M1002.9672,495.789344 C1005.1112,492.935344 1007.1432,489.909344 1008.5002,486.534344 C1005.4862,486.008344 1002.5652,484.953344 999.9102,483.433344 C1003.2922,481.554344 1009.5102,476.535344 1012.4082,473.972344 C1010.9412,473.616344 1006.9692,472.615344 1005.7372,471.744344 C1011.2472,468.973344 1015.6422,462.072344 1018.0302,456.443344 C1019.1072,461.689344 1022.2692,466.263344 1025.9922,470.113344 C1024.8562,470.884344 1022.5332,472.663344 1021.2662,473.193344 C1021.8442,475.466344 1023.4712,476.843344 1024.9532,478.661344 C1027.0242,481.201344 1029.1632,483.800344 1032.0162,485.413344 C1030.7162,485.749344 1028.7462,486.086344 1027.4472,486.423344 L1028.9912,490.305344" id="Stroke-55" stroke="#D5D6D9" stroke-width="1.5" stroke-linecap="round" stroke-linejoin="round"></path>
                <path d="M1102.9718,463.853544 C1109.0528,458.359544 1110.2838,451.879544 1111.6458,449.046544 C1112.6868,453.518544 1115.4328,457.505544 1118.8288,460.975544" id="Stroke-56" stroke="#D5D6D9" stroke-width="1.5" stroke-linecap="round" stroke-linejoin="round"></path>
                <path d="M1145.3498,463.554644 C1148.3628,461.379644 1150.7458,458.342644 1152.1398,454.897644 C1150.0578,454.454644 1147.9838,453.902644 1145.9018,453.459644 C1148.9448,450.484644 1156.8598,442.237644 1158.8058,434.301644 C1160.3328,437.377644 1167.1218,450.373644 1171.6388,452.676644 C1169.9298,454.670644 1167.4758,454.847644 1164.9588,455.599644" id="Stroke-57" stroke="#D5D6D9" stroke-width="1.5" stroke-linecap="round" stroke-linejoin="round"></path>
                <path d="M1166.7318,459.083744 C1166.8368,459.776744 1167.2838,460.362744 1167.7258,460.907744 C1170.7718,464.670744 1174.3638,468.181744 1178.8518,469.996744" id="Stroke-58" stroke="#D5D6D9" stroke-width="1.5" stroke-linecap="round" stroke-linejoin="round"></path>
                <path d="M1048.1617,480.007244 C1049.6227,478.572244 1050.9237,477.019244 1051.9747,475.397244 C1051.0837,475.162244 1047.5707,474.094244 1047.2017,473.249244 C1052.5347,469.116244 1055.6427,462.767244 1057.9967,456.443244 C1059.4007,461.064244 1063.0467,469.753244 1066.0447,473.865244 C1064.3057,474.510244 1062.3507,475.133244 1060.5097,475.353244 C1060.7417,477.823244 1061.4507,480.268244 1062.5517,482.528244" id="Stroke-59" stroke="#D5D6D9" stroke-width="1.5" stroke-linecap="round" stroke-linejoin="round"></path>
                <path d="M840.633,540.172344 C838.626,538.931344 836.127,538.515344 833.826,539.037344 C832.454,539.349344 830.875,539.938344 829.762,539.078344 C829.136,538.595344 828.878,537.786344 828.43,537.134344 C827.383,535.610344 825.312,535.053344 823.487,535.354344 C821.663,535.654344 820.039,536.663344 818.538,537.743344 C816.904,538.919344 815.351,540.206344 813.891,541.593344 C813.509,541.956344 813.115,542.337344 812.614,542.502344 C812.086,542.675344 811.513,542.584344 810.959,542.538344 C807.471,542.244344 803.884,543.946344 801.906,546.834344 C800.231,546.681344 797.964,546.848344 796.423,547.523344 C795.359,547.988344 794.49,548.808344 793.721,549.678344 C792.959,550.539344 792.271,551.465344 791.667,552.443344 C791.479,552.747344 791.293,553.063344 791.016,553.289344 C790.759,553.499344 790.439,553.618344 790.177,553.821344 C789.915,554.024344 789.709,554.367344 789.821,554.679344" id="Stroke-60" stroke="#D5D6D9" stroke-width="1.5" stroke-linecap="round" stroke-linejoin="round"></path>
                <path d="M626.8434,768.031544 C628.3754,768.523544 630.0304,768.375544 631.6284,768.186544 C646.4864,766.421544 661.0024,761.481544 675.9644,761.626544 C680.3594,761.668544 684.7504,762.151544 689.1404,761.951544 C695.2664,761.671544 701.4104,760.063544 707.4614,761.055544" id="Stroke-61" stroke="#D5D6D9" stroke-width="1.5" stroke-linecap="round" stroke-linejoin="round"></path>
                <path d="M575.8918,768.966644 C593.9838,760.869644 613.5148,756.002644 633.2908,754.663644" id="Stroke-62" stroke="#D5D6D9" stroke-width="1.5" stroke-linecap="round" stroke-linejoin="round"></path>
                <path d="M734.8644,754.184444 C735.3544,754.841444 736.2474,755.016444 737.0584,755.136444 C756.8874,758.063444 777.8134,756.908444 796.0574,765.213444" id="Stroke-63" stroke="#D5D6D9" stroke-width="1.5" stroke-linecap="round" stroke-linejoin="round"></path>
                <path d="M767.0493,774.133344 C771.7413,775.090344 776.5913,774.902344 781.3353,775.555344 C784.3333,775.968344 787.2753,776.716344 790.2093,777.461344 C793.4383,778.282344 796.6673,779.103344 799.8973,779.924344" id="Stroke-64" stroke="#D5D6D9" stroke-width="1.5" stroke-linecap="round" stroke-linejoin="round"></path>
                <path d="M616.4123,789.280144 C637.3253,793.962144 664.4633,796.791144 694.1243,796.791144 C723.7863,796.791144 750.9233,793.962144 771.8363,789.280144 C750.9233,784.598144 723.7863,781.769144 694.1243,781.769144 C664.4633,781.769144 637.3253,784.598144 616.4123,789.280144" id="Fill-65" fill="#E6E7EB"></path>
                <path d="M588.6954,749.538944 C581.9454,751.846944 574.2534,755.853944 573.6364,762.960944 C573.0014,770.272944 580.2994,775.582944 586.9134,778.763944 C628.7084,798.867944 677.1794,797.950944 723.4974,795.570944 C750.7964,794.167944 778.6364,792.279944 803.9614,781.990944 C808.0194,780.342944 812.2594,778.245944 814.3604,774.402944 C816.4254,770.625944 815.9144,765.808944 813.8384,762.038944 C811.7614,758.268944 808.3174,755.423944 804.6334,753.197944 C795.5144,747.685944 784.8104,745.552944 774.3524,743.511944 C749.5394,738.669944 724.5784,733.883944 699.2234,733.342944 C688.8304,733.120944 678.3034,734.330944 667.9554,735.160944 C655.3184,736.173944 642.6964,737.479944 630.1764,739.495944 C616.1174,741.759944 602.1794,744.927944 588.6954,749.538944 Z" id="Stroke-66" stroke="#979797" stroke-width="1.5" stroke-linecap="round" stroke-linejoin="round"></path>
                <path d="M616.4061,789.279244 C637.3191,784.597244 664.4621,781.769244 694.1241,781.769244 C723.7881,781.769244 750.9311,784.597244 771.8441,789.279244" id="Stroke-67" stroke="#979797" stroke-width="1.5" stroke-linecap="round" stroke-linejoin="round"></path>
                <path d="M652.9766,695.326244 C652.5636,698.569244 652.3836,699.214244 652.7806,699.857244 C653.2066,700.547244 654.2366,700.588244 654.9146,700.145244 C656.8686,698.868244 654.9456,696.416244 652.9766,695.326244" id="Fill-68" fill="#E6E7EB"></path>
                <path d="M636.8867,674.006644 C637.4397,673.600644 636.8707,672.768644 636.2847,673.125644 C623.8097,680.740644 637.9147,688.145644 635.5047,676.009644 C635.3447,675.203644 636.0757,674.601644 636.8867,674.006644" id="Fill-70" fill="#E6E7EB"></path>
                <path d="M667.8592,649.760244 C682.1492,643.970244 679.8852,661.153244 669.6972,651.095244 C669.1112,650.517244 668.6392,650.022244 667.8592,649.760244" id="Fill-71" fill="#E6E7EB"></path>
                <path d="M458.1387,639.822444 C471.2057,624.139444 489.0157,605.890444 500.9357,589.318444 C510.1167,576.555444 523.2207,561.360444 531.7697,548.165444 C549.0427,521.504444 569.5527,501.526444 589.0267,473.597444 C590.7907,471.066444 598.4777,472.125444 598.4777,478.434444 C561.5527,526.017444 546.0647,549.526444 527.7817,571.907444 C509.4417,594.360444 495.8277,610.459444 482.0997,629.668444 L480.5537,633.074444 C480.5537,633.074444 463.9747,633.200444 465.0427,647.175444 L458.5537,645.580444 L462.7867,642.063444 C463.3917,641.560444 463.1187,640.580444 462.3417,640.462444 L458.1387,639.822444 Z" id="Fill-72" fill="#E6E7EB"></path>
                <path d="M495.3405,595.540444 C488.7025,593.610444 483.4455,583.985444 483.4455,583.985444 L484.3175,591.063444 L489.0705,603.702444 L495.3405,595.540444 Z" id="Fill-73" fill="#E6E7EB"></path>
                <path d="M511.7307,641.214544 C510.0947,636.271544 508.4577,631.328544 506.8207,626.385544 C505.0427,621.015544 503.2647,615.644544 501.4847,610.274544 C501.0317,608.910544 500.3327,608.582544 499.8807,607.218544 L497.4377,610.343544 C497.4207,610.042544 497.3777,609.780544 497.2767,609.607544 C492.6017,614.629544 483.0787,627.513544 479.8747,633.579544 C485.6877,634.116544 486.5487,635.070544 487.3247,636.168544 C499.7207,622.164544 504.5627,645.251544 504.5627,645.251544 L512.3227,644.821544 C512.4927,643.751544 512.0707,642.242544 511.7307,641.214544" id="Fill-74" fill="#E6E7EB"></path>
                <path d="M454.9643,476.578044 C455.0233,476.269044 442.6923,473.736044 441.5693,473.637044 C427.5973,472.407044 458.6473,457.099044 454.9643,476.578044" id="Fill-75" fill="#E6E7EB"></path>
                <path d="M386.7904,468.101744 C379.9734,475.573744 383.1904,487.978744 386.4584,486.802744 C394.0214,484.081744 384.8464,482.898744 386.7904,468.101744" id="Fill-76" fill="#E6E7EB"></path>
                <path d="M478.845,562.758744 C473.689,563.329744 468.311,561.304744 464.813,557.475744 L479.617,555.382744 L478.845,562.758744 Z" id="Fill-77" fill="#E6E7EB"></path>
                <path d="M521.3035,722.725944 C513.6385,744.243944 493.9775,750.395944 490.0625,773.051944 L483.0895,772.858944 C485.1035,766.576944 484.3485,769.266944 487.3775,758.077944 C488.0895,755.445944 489.5515,753.028944 491.7125,751.366944 C496.9615,747.329944 504.5045,733.114944 508.9355,713.626944 C515.8125,716.357944 522.3145,719.888944 521.3035,722.725944" id="Fill-78" fill="#E6E7EB"></path>
                <path d="M457.8427,670.446844 L431.5107,705.897844 C429.2307,708.965844 425.1557,710.132844 421.6277,708.661844 C419.0327,707.579844 415.7157,705.796844 411.7597,702.863844 C409.4547,701.154844 406.6127,700.339844 403.7467,700.473844 C395.5957,700.853844 382.0017,701.984844 367.7957,698.259844 C354.1357,694.678844 352.2887,723.309844 353.5267,739.895844 C355.1047,761.019844 368.4167,778.429844 390.0627,783.841844 C390.0627,783.841844 338.4777,786.288844 337.2467,719.771844 L341.5347,675.789844 C341.5347,675.789844 370.6007,697.314844 431.9107,686.446844 C431.9107,686.446844 449.6717,679.638844 457.8427,670.446844" id="Fill-79" fill="#E6E7EB"></path>
                <path d="M485.6643,648.775344 C485.6643,652.595344 482.5673,655.691344 478.7483,655.691344 C474.9283,655.691344 471.8313,652.595344 471.8313,648.775344 C471.8313,644.955344 474.9283,641.859344 478.7483,641.859344 C482.5673,641.859344 485.6643,644.955344 485.6643,648.775344" id="Fill-80" fill="#E6E7EB"></path>
                <line x1="379.4356" y1="577.964644" x2="378.4426" y2="586.382644" id="Stroke-81" stroke="#D5D6D9" stroke-width="1.5" stroke-linecap="round" stroke-linejoin="round"></line>
                <line x1="404.8418" y1="594.670944" x2="404.8418" y2="606.011944" id="Stroke-82" stroke="#D5D6D9" stroke-width="1.5" stroke-linecap="round" stroke-linejoin="round"></line>
                <path d="M384.7974,611.532444 C384.1214,614.172444 383.7704,616.896444 383.7534,619.621444" id="Stroke-83" stroke="#D5D6D9" stroke-width="1.5" stroke-linecap="round" stroke-linejoin="round"></path>
                <path d="M356.8045,629.327144 C357.1345,632.198144 357.8275,635.026144 358.8595,637.725144" id="Stroke-84" stroke="#D5D6D9" stroke-width="1.5" stroke-linecap="round" stroke-linejoin="round"></path>
                <path d="M343.1247,655.640144 C345.8057,657.139144 348.4877,658.639144 351.1687,660.138144" id="Stroke-85" stroke="#D5D6D9" stroke-width="1.5" stroke-linecap="round" stroke-linejoin="round"></path>
                <path d="M371.58,656.796344 C373.711,657.647344 375.926,658.286344 378.182,658.700344" id="Stroke-86" stroke="#D5D6D9" stroke-width="1.5" stroke-linecap="round" stroke-linejoin="round"></path>
                <path d="M436.3466,659.055844 C438.6306,658.843844 440.8946,658.404844 443.0926,657.747844" id="Stroke-87" stroke="#D5D6D9" stroke-width="1.5" stroke-linecap="round" stroke-linejoin="round"></path>
                <path d="M367.7954,710.327544 C368.6704,713.612544 369.9444,716.791544 371.5804,719.771544" id="Stroke-88" stroke="#D5D6D9" stroke-width="1.5" stroke-linecap="round" stroke-linejoin="round"></path>
                <path d="M357.832,733.034444 C357.952,736.910444 359.056,740.752444 361.011,744.101444" id="Stroke-89" stroke="#D5D6D9" stroke-width="1.5" stroke-linecap="round" stroke-linejoin="round"></path>
                <line x1="392.0871" y1="727.705144" x2="394.1341" y2="734.126144" id="Stroke-90" stroke="#D5D6D9" stroke-width="1.5" stroke-linecap="round" stroke-linejoin="round"></line>
                <line x1="439.8989" y1="769.576544" x2="446.2859" y2="771.725544" id="Stroke-91" stroke="#D5D6D9" stroke-width="1.5" stroke-linecap="round" stroke-linejoin="round"></line>
                <path d="M382.1441,676.825844 C382.1441,676.825844 382.4471,676.868844 389.2631,677.573844" id="Stroke-92" stroke="#D5D6D9" stroke-width="1.5" stroke-linecap="round" stroke-linejoin="round"></path>
                <line x1="408.3672" y1="629.668244" x2="408.6932" y2="637.769244" id="Stroke-93" stroke="#D5D6D9" stroke-width="1.5" stroke-linecap="round" stroke-linejoin="round"></line>
                <path d="M419.09,679.362644 C421.517,678.769644 423.877,677.901644 426.111,676.782644" id="Stroke-94" stroke="#D5D6D9" stroke-width="1.5" stroke-linecap="round" stroke-linejoin="round"></path>
                <path d="M409.3456,711.980844 C409.4506,714.140844 409.5546,716.301844 409.6596,718.461844" id="Stroke-95" stroke="#D5D6D9" stroke-width="1.5" stroke-linecap="round" stroke-linejoin="round"></path>
                <path d="M422.6901,736.600444 C422.5161,738.438444 422.5951,740.301444 422.9241,742.118444" id="Stroke-96" stroke="#D5D6D9" stroke-width="1.5" stroke-linecap="round" stroke-linejoin="round"></path>
                <line x1="450.3654" y1="589.318444" x2="450.3654" y2="595.799444" id="Stroke-97" stroke="#D5D6D9" stroke-width="1.5" stroke-linecap="round" stroke-linejoin="round"></line>
                <path d="M480.5309,677.573944 C480.6449,679.770944 480.3329,681.989944 479.6169,684.070944" id="Stroke-98" stroke="#D5D6D9" stroke-width="1.5" stroke-linecap="round" stroke-linejoin="round"></path>
                <path d="M495.3043,719.771544 C495.4183,721.968544 495.1063,724.187544 494.3903,726.268544" id="Stroke-99" stroke="#D5D6D9" stroke-width="1.5" stroke-linecap="round" stroke-linejoin="round"></path>
                <path d="M485.1883,702.248344 C484.3823,704.664344 483.7983,707.154344 483.4453,709.676344" id="Stroke-100" stroke="#D5D6D9" stroke-width="1.5" stroke-linecap="round" stroke-linejoin="round"></path>
                <line x1="463.9947" y1="724.119044" x2="464.9667" y2="717.014044" id="Stroke-101" stroke="#D5D6D9" stroke-width="1.5" stroke-linecap="round" stroke-linejoin="round"></line>
                <path d="M459.4443,685.106744 C459.3743,688.265744 459.7453,691.433744 460.5423,694.491744" id="Stroke-102" stroke="#D5D6D9" stroke-width="1.5" stroke-linecap="round" stroke-linejoin="round"></path>
                <path d="M540.8388,615.263244 C542.9778,613.982244 545.3138,613.031244 547.7388,612.452244" id="Stroke-103" stroke="#D5D6D9" stroke-width="1.5" stroke-linecap="round" stroke-linejoin="round"></path>
                <line x1="426.1107" y1="579.622844" x2="426.1107" y2="587.555844" id="Stroke-104" stroke="#D5D6D9" stroke-width="1.5" stroke-linecap="round" stroke-linejoin="round"></line>
                <path d="M437.972,622.092344 C438.075,623.388344 438.53,629.082344 438.633,630.378344" id="Stroke-105" stroke="#D5D6D9" stroke-width="1.5" stroke-linecap="round" stroke-linejoin="round"></path>
                <path d="M437.5443,701.925744 C437.5023,703.670744 437.7603,708.339744 438.3023,709.999744" id="Stroke-106" stroke="#D5D6D9" stroke-width="1.5" stroke-linecap="round" stroke-linejoin="round"></path>
                <path d="M443.0925,747.887444 C441.6935,745.982444 440.1185,744.207444 438.3925,742.593444" id="Stroke-107" stroke="#D5D6D9" stroke-width="1.5" stroke-linecap="round" stroke-linejoin="round"></path>
                <path d="M502.1403,762.825544 C499.9363,761.973544 497.6523,761.326544 495.3293,760.895544" id="Stroke-108" stroke="#D5D6D9" stroke-width="1.5" stroke-linecap="round" stroke-linejoin="round"></path>
                <path d="M529.0692,761.525744 C526.8652,760.673744 524.5812,760.026744 522.2582,759.595744" id="Stroke-109" stroke="#D5D6D9" stroke-width="1.5" stroke-linecap="round" stroke-linejoin="round"></path>
                <path d="M508.9359,730.272244 C510.8769,731.263244 512.8169,732.254244 514.7579,733.245244" id="Stroke-110" stroke="#D5D6D9" stroke-width="1.5" stroke-linecap="round" stroke-linejoin="round"></path>
                <path d="M511.204,747.773244 C512.563,748.165244 518.312,748.405244 518.312,748.405244" id="Stroke-111" stroke="#D5D6D9" stroke-width="1.5" stroke-linecap="round" stroke-linejoin="round"></path>
                <line x1="380.9065" y1="754.101544" x2="383.2105" y2="760.898544" id="Stroke-112" stroke="#D5D6D9" stroke-width="1.5" stroke-linecap="round" stroke-linejoin="round"></line>
                <path d="M406.8304,763.923944 C407.7484,765.841944 409.6384,768.732944 410.5564,770.650944" id="Stroke-113" stroke="#D5D6D9" stroke-width="1.5" stroke-linecap="round" stroke-linejoin="round"></path>
                <line x1="539.404" y1="597.755044" x2="549.174" y2="593.532044" id="Stroke-114" stroke="#D5D6D9" stroke-width="1.5" stroke-linecap="round" stroke-linejoin="round"></line>
                <path d="M499.465,666.930244 C500.278,669.984244 500.619,673.162244 500.473,676.319244" id="Stroke-115" stroke="#D5D6D9" stroke-width="1.5" stroke-linecap="round" stroke-linejoin="round"></path>
                <path d="M406.8304,654.660144 C408.4024,655.157144 412.9954,655.227144 414.6324,655.035144" id="Stroke-116" stroke="#D5D6D9" stroke-width="1.5" stroke-linecap="round" stroke-linejoin="round"></path>
                <path d="M525.6636,607.285644 C523.7486,607.777644 521.8976,608.515644 520.1696,609.474644" id="Stroke-117" stroke="#D5D6D9" stroke-width="1.5" stroke-linecap="round" stroke-linejoin="round"></path>
                <path d="M456.0874,756.254644 C458.2324,756.773644 460.3774,757.292644 462.5224,757.810644" id="Stroke-118" stroke="#D5D6D9" stroke-width="1.5" stroke-linecap="round" stroke-linejoin="round"></path>
                <path d="M456.5959,670.446844 C459.4469,667.670844 475.6269,653.418844 468.6929,653.719844 C466.0139,653.835844 462.2949,653.719844 463.3059,652.999844 C463.2419,653.073844 472.4309,647.368844 466.9799,646.819844 C467.0909,646.843844 455.5179,647.175844 459.0759,645.206844 C469.8219,639.258844 459.8719,639.512844 452.1049,640.120844" id="Stroke-119" stroke="#979797" stroke-width="1.5" stroke-linecap="round" stroke-linejoin="round"></path>
                <path d="M482.1002,629.668244 C495.8282,610.459244 509.4412,594.360244 527.7822,571.907244 C546.0642,549.526244 561.5522,526.017244 598.4772,478.434244 C598.4772,472.125244 590.7912,471.067244 589.0262,473.597244 C569.5522,501.526244 549.0432,521.505244 531.7702,548.165244 C523.2212,561.360244 510.1172,576.555244 500.9362,589.318244 C489.0152,605.890244 474.1752,621.076244 461.1082,636.759244" id="Stroke-120" stroke="#979797" stroke-width="1.5" stroke-linecap="round" stroke-linejoin="round"></path>
                <path d="M437.5399,687.861544 L427.2879,701.258544 C424.5949,704.498544 416.3429,698.375544 419.2259,694.612544 L421.5829,691.544544" id="Stroke-121" stroke="#979797" stroke-width="1.5" stroke-linecap="round" stroke-linejoin="round"></path>
                <path d="M486.742,598.766844 C482.388,586.001844 479.448,572.936844 480.204,559.099844" id="Stroke-122" stroke="#979797" stroke-width="1.5" stroke-linecap="round" stroke-linejoin="round"></path>
                <path d="M390.1162,483.987544 C390.1162,483.987544 382.9312,487.083544 378.6282,496.365544 C372.9292,508.662544 374.3112,522.322544 374.3112,522.212544 C374.3112,539.631544 372.0982,556.930544 367.7622,573.702544" id="Stroke-123" stroke="#979797" stroke-width="1.5" stroke-linecap="round" stroke-linejoin="round"></path>
                <path d="M401.7207,474.564444 L445.5027,474.564444 C450.2367,474.564444 454.8157,476.253444 458.4167,479.328444 L474.3737,492.954444 C477.9737,496.029444 482.5527,497.718444 487.2877,497.718444 L508.7367,497.718444 C512.4207,497.718444 515.4067,500.704444 515.4067,504.388444 L515.4067,507.050444 C515.4067,534.507444 493.1477,556.766444 465.6907,556.766444" id="Stroke-124" stroke="#979797" stroke-width="1.5" stroke-linecap="round" stroke-linejoin="round"></path>
                <path d="M390.1162,483.987544 C390.1162,483.987544 382.9312,487.083544 378.6282,496.365544 C372.9292,508.662544 374.3112,522.322544 374.3112,522.212544 C374.3112,539.631544 372.0982,556.930544 367.7622,573.702544 C363.7392,589.258544 346.1542,598.028544 336.7172,611.032544 C272.9322,698.913544 468.8262,713.291544 460.2692,653.993544 C457.3012,633.427544 426.0392,641.629544 416.4892,642.679544 C402.4922,644.217544 390.1162,641.446544 378.9392,638.138544" id="Stroke-125" stroke="#979797" stroke-width="1.5" stroke-linecap="round" stroke-linejoin="round"></path>
                <path d="M497.326,497.554544 C481.387,501.972544 495.307,515.950544 503.125,515.950544 C510.842,515.950544 524.935,501.992544 508.924,497.554544 C505.137,496.504544 501.113,496.504544 497.326,497.554544" id="Fill-126" fill="#979797"></path>
                <path d="M383.6298,484.941444 C379.6568,464.001444 393.5968,462.399444 400.8708,474.410444" id="Stroke-127" stroke="#979797" stroke-width="1.5" stroke-linecap="round" stroke-linejoin="round"></path>
                <path d="M454.0465,475.829944 C452.3765,465.824944 443.4715,464.898944 437.5695,472.659944" id="Stroke-128" stroke="#979797" stroke-width="1.5" stroke-linecap="round" stroke-linejoin="round"></path>
                <path d="M400.8707,474.410744 L445.5027,474.564744 C450.2367,474.564744 454.8157,476.253744 458.4167,479.327744 L474.3737,492.954744 C477.9737,496.028744 482.5527,497.718744 487.2877,497.718744 L508.7367,497.718744 C512.4207,497.718744 515.4067,500.704744 515.4067,504.388744 L515.4067,507.049744 C515.4067,534.507744 493.1477,556.765744 465.6907,556.765744" id="Stroke-129" stroke="#979797" stroke-width="1.5" stroke-linecap="round" stroke-linejoin="round"></path>
                <path d="M508.9128,717.622244 C533.3848,728.076244 533.7638,729.133244 535.3618,726.487244 C539.2598,720.032244 551.1738,719.462244 551.0698,725.328244 C549.4058,739.029244 544.3628,753.943244 540.8388,767.287244 C539.0148,774.194244 524.8328,773.052244 519.1758,773.061244 C508.8068,773.077244 498.7848,773.103244 488.4258,773.550244 C486.8858,773.617244 485.4228,773.562244 485.4228,773.562244" id="Stroke-130" stroke="#979797" stroke-width="1.5" stroke-linecap="round" stroke-linejoin="round"></path>
                <path d="M551.2039,584.119644 C554.4459,584.215644 581.0829,580.514644 566.0359,588.928644 C562.4839,590.915644 574.0789,590.652644 573.9679,590.626644 C579.4329,591.222644 570.2619,596.984644 570.3269,596.910644 C569.3169,597.638644 573.0449,597.780644 575.7289,597.679644 C582.6749,597.417644 566.9049,611.043644 564.0659,613.857644" id="Stroke-131" stroke="#979797" stroke-width="1.5" stroke-linecap="round" stroke-linejoin="round"></path>
                <path d="M485.1883,647.967444 C485.1883,657.258444 471.6193,658.412444 471.6193,649.121444 C471.6193,639.830444 485.1883,638.676444 485.1883,647.967444 Z" id="Stroke-132" stroke="#979797" stroke-width="1.5" stroke-linecap="round" stroke-linejoin="round"></path>
                <path d="M518.7271,582.173444 C519.4221,583.564444 520.4121,584.807444 521.6121,585.797444" id="Stroke-133" stroke="#979797" stroke-width="1.5" stroke-linecap="round" stroke-linejoin="round"></path>
                <path d="M562.4804,532.330344 C561.4694,531.595344 560.6224,530.635344 560.0194,529.540344" id="Stroke-134" stroke="#979797" stroke-width="1.5" stroke-linecap="round" stroke-linejoin="round"></path>
                <path d="M600.1154,482.609944 C599.1044,481.874944 598.2574,480.914944 597.6544,479.819944" id="Stroke-135" stroke="#979797" stroke-width="1.5" stroke-linecap="round" stroke-linejoin="round"></path>
                <path d="M486.1601,630.378544 C509.2511,623.115544 518.7271,603.298544 518.7271,582.173544 C518.7271,582.173544 557.5851,568.588544 560.0191,529.540544 C560.0191,529.540544 597.3281,516.606544 597.6551,480.329544 C597.6551,480.329544 600.1151,477.316544 603.3331,479.820544 C661.1621,525.683544 597.6551,541.138544 635.6281,597.496544 C652.5191,622.566544 624.8221,623.766544 635.4611,644.186544" id="Stroke-136" stroke="#979797" stroke-width="1.5" stroke-linecap="round" stroke-linejoin="round"></path>
                <path d="M635.6839,673.505544 C624.2749,680.981544 637.8739,687.943544 635.5049,676.009544 C635.3729,675.345544 635.8419,674.556544 636.4639,673.840544 C637.4359,672.720544 636.5619,672.930544 635.6839,673.505544 Z" id="Stroke-139" stroke="#979797" stroke-width="1.5" stroke-linecap="round" stroke-linejoin="round"></path>
                <path d="M667.8592,649.760244 C682.1492,643.970244 679.8852,661.153244 669.6972,651.095244 C669.1112,650.517244 668.6392,650.022244 667.8592,649.760244 Z" id="Stroke-140" stroke="#979797" stroke-width="1.5" stroke-linecap="round" stroke-linejoin="round"></path>
                <path d="M652.9766,695.326244 C652.5636,698.569244 652.3836,699.214244 652.7806,699.857244 C653.2066,700.547244 654.2366,700.588244 654.9146,700.145244 C656.8686,698.868244 654.9456,696.416244 652.9766,695.326244 Z" id="Stroke-141" stroke="#979797" stroke-width="1.5" stroke-linecap="round" stroke-linejoin="round"></path>
                <g id="Group-16" transform="translate(441.2266, 515.6032) scale(-1, 1) translate(-441.2266, -515.6032)translate(416.7873, 494.9117)" stroke="#B4BDC5" stroke-linecap="round" stroke-linejoin="round" stroke-width="2">
                    <path d="M19.0139234,35.8686267 C22.577365,35.1564852 26.473808,36.4476027 28.9164893,39.1394467" id="Path" transform="translate(23.9652, 37.4073) rotate(150) translate(-23.9652, -37.4073)"></path>
                    <path d="M0.898368388,6.25823441 C0.264001321,4.34789935 1.33791792,2.27728029 3.26915068,1.61322859 C5.21854131,0.948996361 7.29622555,1.96726751 7.93077314,3.85968823" id="Path" transform="translate(4.3233, 3.834) rotate(28) translate(-4.3233, -3.834)"></path>
                    <path d="M41.1305319,11.7217609 C40.4961648,9.81142585 41.5700814,7.74080679 43.5013142,7.07675508 C45.4507048,6.41252286 47.5283891,7.43079401 48.1629367,9.32321473" id="Path" transform="translate(44.5555, 9.2976) rotate(28) translate(-44.5555, -9.2976)"></path>
                </g>
                <g id="Group-10" transform="translate(656.3697, 664.5767) scale(-1, 1) rotate(-44) translate(-656.3697, -664.5767)translate(629.3926, 651.9574)">
                    <path d="M9.15762574,14.0999224 C9.30362574,14.9389224 9.49662574,15.7749224 9.51862574,16.6259224 C9.54462574,17.6809224 9.30662574,18.7239224 9.04762574,19.7469224 C8.83462574,20.5899224 8.78462574,21.7759224 9.61762574,22.0219224 C10.1506257,22.1799224 10.6856257,21.7919224 11.0586257,21.3799224 C12.2476257,20.0689224 12.8336257,18.3069224 13.0716257,16.5529224 C13.3106257,14.7989224 13.2316257,13.0199224 13.2636257,11.2499224 C13.2966257,9.42792244 13.4396257,5.30592244 10.4526257,6.22792244 C7.73962574,7.06492244 8.80762574,12.0899224 9.15762574,14.0999224" id="Fill-1" fill="#E6E7EB"></path>
                    <path d="M53.0315257,8.41722244 C53.4165257,9.50122244 53.4385257,10.7112224 53.0945257,11.8082224 C52.9795257,12.1732224 52.8245257,12.5332224 52.8025257,12.9152224 C52.7325257,14.1152224 53.9695257,15.2462224 53.5335257,16.3662224 C53.2435257,17.1112224 52.2925257,17.4142224 51.5125257,17.2382224 C50.7325257,17.0632224 50.0855257,16.5352224 49.4715257,16.0242224 C49.1315257,15.7402224 48.7845257,15.4502224 48.5575257,15.0692224 C48.0955257,14.2932224 47.8245257,11.1642224 48.2495257,10.3542224 C48.5375257,9.80522244 52.8605257,7.93522244 53.0315257,8.41722244" id="Fill-3" fill="#E5E6EA"></path>
                    <path d="M20.7985257,25.2385224 L34.5895257,25.2385224 C40.1495257,25.2385224 44.3015257,23.3635224 46.3345257,19.6465224 C50.3875257,12.2375224 46.9405257,0.232522441 35.8595257,0.232522441 C25.4035257,0.232522441 13.1085257,-2.08647756 13.1085257,7.92252244 C13.1085257,15.7635224 11.7835257,25.2385224 20.7985257,25.2385224 Z" id="Stroke-4" stroke="#979797" stroke-width="1.5" stroke-linecap="round" stroke-linejoin="round"></path>
                    <path d="M10.3376257,5.37672244 L8.51962574,3.87272244 C4.59162574,-0.0562775587 -5.58037426,4.26572244 3.97462574,13.8207224 C-5.51537426,23.3117224 4.57062574,27.7187224 8.51962574,23.7687224 C10.5186257,21.7697224 10.8076257,21.5537224 12.8616257,19.6107224" id="Stroke-5" stroke="#979797" stroke-width="1.5" stroke-linecap="round" stroke-linejoin="round"></path>
                    <path d="M48.3624257,10.2884224 C52.8164257,5.83442244 55.8394257,8.98942244 52.0924257,12.7354224 C53.0744257,13.7174224 54.9964257,15.2234224 53.2444257,16.9754224 L53.2444257,16.9754224 C51.9954257,18.2244224 50.8194257,17.5654224 49.7354257,16.5664224" id="Stroke-6" stroke="#979797" stroke-width="1.5" stroke-linecap="round" stroke-linejoin="round"></path>
                    <ellipse id="Oval" fill="#E6E7EB" cx="39.3810647" cy="9.40063966" rx="2.42164583" ry="2.41745353"></ellipse>
                    <ellipse id="Oval" stroke="#969696" stroke-width="1.5" stroke-linecap="round" stroke-linejoin="round" cx="39.9307057" cy="9.40063966" rx="1.87200483" ry="1.86876405"></ellipse>
                    <path d="M29.1037257,10.9297224 C28.7097257,11.3707224 28.3057257,11.8287224 28.1107257,12.3877224 C27.9167257,12.9467224 27.9827257,13.6397224 28.4267257,14.0307224 C28.6777257,14.2517224 29.0597257,14.4147224 29.0787257,14.7487224 C29.0837257,14.8437224 29.0557257,14.9367224 29.0227257,15.0267224 C28.8767257,15.4347224 28.6417257,15.8257224 28.6367257,16.2587224 C28.6317257,16.7617224 28.9487257,17.2247224 29.3547257,17.5217224 C29.7597257,17.8197224 30.2467257,17.9817224 30.7247257,18.1377224" id="Stroke-8" stroke="#D5D6D9" stroke-width="1.5" stroke-linecap="round" stroke-linejoin="round"></path>
                    <path d="M23.8597257,13.8206224 C23.4007257,14.0826224 23.1557257,14.6686224 23.2907257,15.1786224 C23.4257257,15.6896224 23.9297257,16.0776224 24.4577257,16.0776224" id="Stroke-9" stroke="#D5D6D9" stroke-width="1.5" stroke-linecap="round" stroke-linejoin="round"></path>
                </g>
                <path d="M512.9951,594.239244 C518.3951,593.145244 522.9541,590.870244 528.4921,589.179244 C546.8741,583.567244 562.4761,578.573244 567.6021,597.755244 C569.1981,603.728244 567.2911,609.514244 563.6121,614.482244 C556.5151,624.068244 535.8071,640.400244 510.8581,643.500244" id="Stroke-147" stroke="#979797" stroke-width="1.5" stroke-linecap="round" stroke-linejoin="round"></path>
                <path d="M491.2803,749.127244 C501.5993,737.166244 508.5403,722.322244 511.1033,706.735244 C513.7123,690.863244 511.8423,674.594244 508.9353,658.774244 C508.0963,654.212244 507.1633,649.636244 505.4513,645.325244 C503.8113,641.196244 500.5063,630.378244 500.5063,630.378244" id="Stroke-148" stroke="#979797" stroke-width="1.5" stroke-linecap="round" stroke-linejoin="round"></path>
                <path d="M452.27,708.842444 C445.053,734.492444 447.884,725.442444 474.456,741.402444 C480.751,730.664444 490.704,733.601444 489.644,739.359444 C481.871,781.592444 477.862,784.099444 473.465,783.939444 C444.536,782.887444 415.173,782.658444 386.255,782.436444 C371.507,782.323444 357.03,771.147444 349.881,758.247444 C346.712,752.530444 345.097,746.092444 343.847,739.676444 C339.768,718.754444 341.731,701.944444 344.782,680.847444" id="Stroke-149" stroke="#979797" stroke-width="1.5" stroke-linecap="round" stroke-linejoin="round"></path>
                <path d="M464.6851,644.186144 C466.9791,638.574144 470.9291,634.700144 476.8591,633.438144 C480.7851,632.603144 485.1601,633.153144 488.3021,635.651144 C491.0461,637.832144 492.5511,641.190144 493.7511,644.484144 C494.5861,646.777144 495.3311,649.179144 495.1441,651.612144 C495.0271,653.136144 494.5441,654.615144 493.8731,655.989144 C491.8371,660.162144 487.9841,663.409144 483.5251,664.707144 C479.0671,666.006144 474.0731,665.336144 470.1141,662.908144 C469.7321,662.673144 469.3591,662.424144 468.9861,662.174144" id="Stroke-150" stroke="#979797" stroke-width="1.5" stroke-linecap="round" stroke-linejoin="round"></path>
                <path d="M1052.7465,739.409744 C1059.3325,741.854744 1066.1565,744.337744 1073.1685,743.913744 C1082.5755,743.345744 1091.9835,737.601744 1100.8945,740.667744 C1107.1765,742.829744 1112.2535,749.181744 1118.8625,748.507744 C1120.6345,748.326744 1122.4405,747.627744 1124.1445,748.147744 C1126.0495,748.727744 1127.1905,750.632744 1128.7905,751.818744 C1130.7135,753.243744 1133.2115,753.571744 1135.5885,753.853744 C1142.0115,754.614744 1148.4355,755.375744 1154.8595,756.136744" id="Stroke-151" stroke="#D5D6D9" stroke-width="1.5" stroke-linecap="round" stroke-linejoin="round"></path>
                <path d="M134.0503,852.614344 C141.3173,853.145344 148.6763,852.393344 155.6853,850.403344 C162.9203,848.349344 171.0883,845.090344 177.4753,849.062344 C178.9963,850.009344 180.2863,851.320344 181.8963,852.108344 C186.2133,854.223344 191.4313,852.061344 196.1513,852.976344 C199.1643,853.560344 201.8153,855.371344 204.7993,856.088344 C208.4173,856.956344 212.1963,856.153344 215.9143,856.019344 C219.6333,855.884344 223.8113,856.684344 225.9423,859.734344" id="Stroke-152" stroke="#D5D6D9" stroke-width="1.5" stroke-linecap="round" stroke-linejoin="round"></path>
                <path d="M113.3313,647.729744 C114.8073,649.988744 116.2833,652.248744 117.7583,654.507744" id="Stroke-153" stroke="#D5D6D9" stroke-width="1.5" stroke-linecap="round" stroke-linejoin="round"></path>
                <path d="M122.3603,647.880944 C122.0003,648.827944 120.8503,652.178944 120.8093,653.223944" id="Stroke-154" stroke="#D5D6D9" stroke-width="1.5" stroke-linecap="round" stroke-linejoin="round"></path>
                <path d="M555.5051,850.071644 C556.9811,852.330644 558.4571,854.590644 559.9321,856.849644" id="Stroke-155" stroke="#D5D6D9" stroke-width="1.5" stroke-linecap="round" stroke-linejoin="round"></path>
                <path d="M564.5341,850.222844 C564.1741,851.169844 563.0241,854.520844 562.9831,855.565844" id="Stroke-156" stroke="#D5D6D9" stroke-width="1.5" stroke-linecap="round" stroke-linejoin="round"></path>
                <path d="M1020.7227,647.974344 C1021.7997,650.639344 1023.3077,653.129344 1025.1697,655.317344" id="Stroke-157" stroke="#D5D6D9" stroke-width="1.5" stroke-linecap="round" stroke-linejoin="round"></path>
                <path d="M1028.2022,652.324444 C1027.1862,650.166444 1026.4782,647.865444 1026.1042,645.510444" id="Stroke-158" stroke="#D5D6D9" stroke-width="1.5" stroke-linecap="round" stroke-linejoin="round"></path>
                <path d="M1032.9456,653.808144 C1033.2876,652.015144 1033.6306,650.222144 1033.9726,648.429144" id="Stroke-159" stroke="#D5D6D9" stroke-width="1.5" stroke-linecap="round" stroke-linejoin="round"></path>
                <path d="M240.2495,705.395044 C242.7685,703.762044 245.4275,702.116044 248.4135,701.803044 C251.3995,701.490044 254.7935,702.939044 255.7135,705.796044 C258.4495,704.299044 262.1575,704.867044 264.3195,707.114044" id="Stroke-160" stroke="#D5D6D9" stroke-width="1.5" stroke-linecap="round" stroke-linejoin="round"></path>
                <path d="M1161.2708,856.523644 C1158.7518,854.890644 1156.0928,853.244644 1153.1068,852.931644 C1150.1208,852.618644 1146.7268,854.067644 1145.8068,856.924644 C1143.0708,855.427644 1139.3628,855.995644 1137.2008,858.242644" id="Stroke-161" stroke="#D5D6D9" stroke-width="1.5" stroke-linecap="round" stroke-linejoin="round"></path>
                <path d="M842.9007,861.897244 C848.1667,862.773244 853.7797,861.284244 857.9197,857.914244 C860.0757,856.159244 862.0497,853.825244 864.8007,853.419244 C867.4967,853.022244 870.0227,854.617244 872.5027,855.746244 C877.7657,858.143244 883.9017,858.561244 889.4417,856.902244 C890.7187,856.520244 892.0517,856.026244 893.3487,856.334244 C895.0047,856.727244 896.0737,858.285244 897.4407,859.299244 C900.5517,861.609244 904.8437,860.937244 908.7157,860.775244" id="Stroke-162" stroke="#D5D6D9" stroke-width="1.5" stroke-linecap="round" stroke-linejoin="round"></path>
                <path d="M0,900.676154 C85.3726841,901.387485 175.313464,900.539384 250.366736,898.391 C260.804303,898.092227 270.953943,897.768306 280.763328,897.419935 C307.19571,896.481213 273.42934,897.770576 299.855139,896.693154 C342.899795,894.938154 381.271871,907.555502 436.195733,907.149502 C490.021518,906.752502 541.492183,893.396154 591.005515,894.525154 C696.081592,896.922154 818.587161,897.340154 929.193558,895.681154 C949.811467,895.372234 983.620678,890.150559 1009.49696,888.326862 C1015.61837,887.895441 1021.29584,887.654179 1026.24969,887.713102 C1059.31182,888.106102 1061.60179,897.064154 1088.89402,898.078154 C1151.0053,900.388154 1236.69531,899.716154 1314,899.554154" id="Path" stroke="#D5D6D9" stroke-width="1.5" stroke-linecap="round" stroke-linejoin="round"></path>
                <g id="Group-10" transform="translate(1157.6357, 1091.8152) scale(-1, 1) translate(-1157.6357, -1091.8152)translate(1130.6585, 1079.196)">
                    <path d="M9.15762574,14.0999224 C9.30362574,14.9389224 9.49662574,15.7749224 9.51862574,16.6259224 C9.54462574,17.6809224 9.30662574,18.7239224 9.04762574,19.7469224 C8.83462574,20.5899224 8.78462574,21.7759224 9.61762574,22.0219224 C10.1506257,22.1799224 10.6856257,21.7919224 11.0586257,21.3799224 C12.2476257,20.0689224 12.8336257,18.3069224 13.0716257,16.5529224 C13.3106257,14.7989224 13.2316257,13.0199224 13.2636257,11.2499224 C13.2966257,9.42792244 13.4396257,5.30592244 10.4526257,6.22792244 C7.73962574,7.06492244 8.80762574,12.0899224 9.15762574,14.0999224" id="Fill-1" fill="#E5E6EA"></path>
                    <path d="M53.0315257,8.41722244 C53.4165257,9.50122244 53.4385257,10.7112224 53.0945257,11.8082224 C52.9795257,12.1732224 52.8245257,12.5332224 52.8025257,12.9152224 C52.7325257,14.1152224 53.9695257,15.2462224 53.5335257,16.3662224 C53.2435257,17.1112224 52.2925257,17.4142224 51.5125257,17.2382224 C50.7325257,17.0632224 50.0855257,16.5352224 49.4715257,16.0242224 C49.1315257,15.7402224 48.7845257,15.4502224 48.5575257,15.0692224 C48.0955257,14.2932224 47.8245257,11.1642224 48.2495257,10.3542224 C48.5375257,9.80522244 52.8605257,7.93522244 53.0315257,8.41722244" id="Fill-3" fill="#E5E6EA"></path>
                    <path d="M20.7985257,25.2385224 L34.5895257,25.2385224 C40.1495257,25.2385224 44.3015257,23.3635224 46.3345257,19.6465224 C50.3875257,12.2375224 46.9405257,0.232522441 35.8595257,0.232522441 C25.4035257,0.232522441 13.1085257,-2.08647756 13.1085257,7.92252244 C13.1085257,15.7635224 11.7835257,25.2385224 20.7985257,25.2385224 Z" id="Stroke-4" stroke="#969696" stroke-width="1.5" stroke-linecap="round" stroke-linejoin="round"></path>
                    <path d="M10.3376257,5.37672244 L8.51962574,3.87272244 C4.59162574,-0.0562775587 -5.58037426,4.26572244 3.97462574,13.8207224 C-5.51537426,23.3117224 4.57062574,27.7187224 8.51962574,23.7687224 C10.5186257,21.7697224 10.8076257,21.5537224 12.8616257,19.6107224" id="Stroke-5" stroke="#969696" stroke-width="1.5" stroke-linecap="round" stroke-linejoin="round"></path>
                    <path d="M48.3624257,10.2884224 C52.8164257,5.83442244 55.8394257,8.98942244 52.0924257,12.7354224 C53.0744257,13.7174224 54.9964257,15.2234224 53.2444257,16.9754224 L53.2444257,16.9754224 C51.9954257,18.2244224 50.8194257,17.5654224 49.7354257,16.5664224" id="Stroke-6" stroke="#969696" stroke-width="1.5" stroke-linecap="round" stroke-linejoin="round"></path>
                    <path d="M39.7704257,10.0712224 C39.7704257,5.96522244 35.2614257,6.01722244 35.2614257,10.0712224" id="Stroke-7" stroke="#969696" stroke-width="1.5" stroke-linecap="round" stroke-linejoin="round"></path>
                    <path d="M29.1037257,10.9297224 C28.7097257,11.3707224 28.3057257,11.8287224 28.1107257,12.3877224 C27.9167257,12.9467224 27.9827257,13.6397224 28.4267257,14.0307224 C28.6777257,14.2517224 29.0597257,14.4147224 29.0787257,14.7487224 C29.0837257,14.8437224 29.0557257,14.9367224 29.0227257,15.0267224 C28.8767257,15.4347224 28.6417257,15.8257224 28.6367257,16.2587224 C28.6317257,16.7617224 28.9487257,17.2247224 29.3547257,17.5217224 C29.7597257,17.8197224 30.2467257,17.9817224 30.7247257,18.1377224" id="Stroke-8" stroke="#D4D5D8" stroke-width="1.5" stroke-linecap="round" stroke-linejoin="round"></path>
                    <path d="M23.8597257,13.8206224 C23.4007257,14.0826224 23.1557257,14.6686224 23.2907257,15.1786224 C23.4257257,15.6896224 23.9297257,16.0776224 24.4577257,16.0776224" id="Stroke-9" stroke="#D4D5D8" stroke-width="1.5" stroke-linecap="round" stroke-linejoin="round"></path>
                </g>
                <g id="Group-10" transform="translate(245.9525, 999.3041) rotate(20) translate(-245.9525, -999.3041)translate(218.9754, 986.6849)">
                    <path d="M9.15762574,14.0999224 C9.30362574,14.9389224 9.49662574,15.7749224 9.51862574,16.6259224 C9.54462574,17.6809224 9.30662574,18.7239224 9.04762574,19.7469224 C8.83462574,20.5899224 8.78462574,21.7759224 9.61762574,22.0219224 C10.1506257,22.1799224 10.6856257,21.7919224 11.0586257,21.3799224 C12.2476257,20.0689224 12.8336257,18.3069224 13.0716257,16.5529224 C13.3106257,14.7989224 13.2316257,13.0199224 13.2636257,11.2499224 C13.2966257,9.42792244 13.4396257,5.30592244 10.4526257,6.22792244 C7.73962574,7.06492244 8.80762574,12.0899224 9.15762574,14.0999224" id="Fill-1" fill="#E5E6EA"></path>
                    <path d="M53.0315257,8.41722244 C53.4165257,9.50122244 53.4385257,10.7112224 53.0945257,11.8082224 C52.9795257,12.1732224 52.8245257,12.5332224 52.8025257,12.9152224 C52.7325257,14.1152224 53.9695257,15.2462224 53.5335257,16.3662224 C53.2435257,17.1112224 52.2925257,17.4142224 51.5125257,17.2382224 C50.7325257,17.0632224 50.0855257,16.5352224 49.4715257,16.0242224 C49.1315257,15.7402224 48.7845257,15.4502224 48.5575257,15.0692224 C48.0955257,14.2932224 47.8245257,11.1642224 48.2495257,10.3542224 C48.5375257,9.80522244 52.8605257,7.93522244 53.0315257,8.41722244" id="Fill-3" fill="#E5E6EA"></path>
                    <path d="M20.7985257,25.2385224 L34.5895257,25.2385224 C40.1495257,25.2385224 44.3015257,23.3635224 46.3345257,19.6465224 C50.3875257,12.2375224 46.9405257,0.232522441 35.8595257,0.232522441 C25.4035257,0.232522441 13.1085257,-2.08647756 13.1085257,7.92252244 C13.1085257,15.7635224 11.7835257,25.2385224 20.7985257,25.2385224 Z" id="Stroke-4" stroke="#969696" stroke-width="1.5" stroke-linecap="round" stroke-linejoin="round"></path>
                    <path d="M10.3376257,5.37672244 L8.51962574,3.87272244 C4.59162574,-0.0562775587 -5.58037426,4.26572244 3.97462574,13.8207224 C-5.51537426,23.3117224 4.57062574,27.7187224 8.51962574,23.7687224 C10.5186257,21.7697224 10.8076257,21.5537224 12.8616257,19.6107224" id="Stroke-5" stroke="#969696" stroke-width="1.5" stroke-linecap="round" stroke-linejoin="round"></path>
                    <path d="M48.3624257,10.2884224 C52.8164257,5.83442244 55.8394257,8.98942244 52.0924257,12.7354224 C53.0744257,13.7174224 54.9964257,15.2234224 53.2444257,16.9754224 L53.2444257,16.9754224 C51.9954257,18.2244224 50.8194257,17.5654224 49.7354257,16.5664224" id="Stroke-6" stroke="#969696" stroke-width="1.5" stroke-linecap="round" stroke-linejoin="round"></path>
                    <path d="M39.7704257,10.0712224 C39.7704257,5.96522244 35.2614257,6.01722244 35.2614257,10.0712224" id="Stroke-7" stroke="#969696" stroke-width="1.5" stroke-linecap="round" stroke-linejoin="round"></path>
                    <path d="M29.1037257,10.9297224 C28.7097257,11.3707224 28.3057257,11.8287224 28.1107257,12.3877224 C27.9167257,12.9467224 27.9827257,13.6397224 28.4267257,14.0307224 C28.6777257,14.2517224 29.0597257,14.4147224 29.0787257,14.7487224 C29.0837257,14.8437224 29.0557257,14.9367224 29.0227257,15.0267224 C28.8767257,15.4347224 28.6417257,15.8257224 28.6367257,16.2587224 C28.6317257,16.7617224 28.9487257,17.2247224 29.3547257,17.5217224 C29.7597257,17.8197224 30.2467257,17.9817224 30.7247257,18.1377224" id="Stroke-8" stroke="#D4D5D8" stroke-width="1.5" stroke-linecap="round" stroke-linejoin="round"></path>
                    <path d="M23.8597257,13.8206224 C23.4007257,14.0826224 23.1557257,14.6686224 23.2907257,15.1786224 C23.4257257,15.6896224 23.9297257,16.0776224 24.4577257,16.0776224" id="Stroke-9" stroke="#D4D5D8" stroke-width="1.5" stroke-linecap="round" stroke-linejoin="round"></path>
                </g>
                <path d="M353.9951,456.777044 C360.0761,451.283044 361.3071,444.803044 362.6691,441.970044 C363.7101,446.442044 366.4561,450.429044 369.8521,453.899044" id="Stroke-163" stroke="#D5D6D9" stroke-width="1.5" stroke-linecap="round" stroke-linejoin="round"></path>
                <path d="M796.9281,664.903444 C798.4301,684.055444 799.9541,693.535444 795.1991,699.517444" id="Stroke-164" stroke="#D5D6D9" stroke-width="1.5" stroke-linecap="round" stroke-linejoin="round"></path>
                <path d="M812.7428,667.317844 C816.3138,677.364844 811.9638,693.920844 816.4478,694.318844 C821.1718,694.738844 821.2908,679.879844 825.8668,668.043844" id="Stroke-165" stroke="#D5D6D9" stroke-width="1.5" stroke-linecap="round" stroke-linejoin="round"></path>
                <path d="M828.6931,701.322244 C840.2301,688.427244 840.5421,690.021244 841.5361,702.712244" id="Stroke-166" stroke="#D5D6D9" stroke-width="1.5" stroke-linecap="round" stroke-linejoin="round"></path>
                <path d="M850.5996,701.320344 C848.1676,696.624344 848.3886,690.987344 846.0106,686.266344 C844.6196,683.504344 838.7826,676.932344 840.9736,666.557344" id="Stroke-167" stroke="#D5D6D9" stroke-width="1.5" stroke-linecap="round" stroke-linejoin="round"></path>
                <path d="M851.0858,664.903444 C852.6448,668.586444 854.5048,672.152444 856.6438,675.556444" id="Stroke-168" stroke="#D5D6D9" stroke-width="1.5" stroke-linecap="round" stroke-linejoin="round"></path>
                <path d="M805.3745,703.436344 C804.7025,700.657344 805.4005,697.759344 805.8235,694.931344 C806.9235,687.572344 806.1415,680.014344 807.4315,672.686344 C807.7875,670.661344 808.3035,668.626344 808.1305,666.578344" id="Stroke-169" stroke="#D5D6D9" stroke-width="1.5" stroke-linecap="round" stroke-linejoin="round"></path>
                <path d="M816.0859,703.564844 C819.2809,701.894844 821.4509,698.657844 824.1099,696.135844 C825.3359,694.973844 826.6849,693.947844 827.7639,692.629844 C828.9689,691.157844 829.7909,689.377844 830.5389,687.592844 C831.9579,684.205844 833.1699,680.674844 833.5769,676.989844 C833.7349,675.556844 833.7679,674.087844 833.4469,672.686844 C833.1199,671.265844 833.6719,669.320844 833.6939,667.858844" id="Stroke-170" stroke="#D5D6D9" stroke-width="1.5" stroke-linecap="round" stroke-linejoin="round"></path>
                <path d="M847.2656,666.214644 C847.4466,668.582644 847.6276,670.950644 847.8096,673.318644 C847.8586,673.968644 847.9086,674.619644 848.0346,675.259644 C848.3676,676.952644 849.2276,678.513644 850.3396,679.833644 C850.8686,680.461644 851.4576,681.041644 851.9306,681.712644 C852.9606,683.170644 853.4186,685.010644 854.6386,686.313644 C855.4766,687.207644 856.6146,687.778644 857.4496,688.675644 C857.8036,689.055644 859.0706,690.762644 859.4806,691.082644" id="Stroke-171" stroke="#D5D6D9" stroke-width="1.5" stroke-linecap="round" stroke-linejoin="round"></path>
                <path d="M856.6437,660.807844 C856.6437,663.982844 842.3007,666.556844 824.6067,666.556844 C806.9137,666.556844 792.5697,663.982844 792.5697,660.807844 C792.5697,657.632844 806.9137,655.058844 824.6067,655.058844 C842.3007,655.058844 856.6437,657.632844 856.6437,660.807844" id="Fill-172" fill="#E6E7EB"></path>
                <path d="M854.3877,663.658744 C848.3317,665.726744 841.7867,665.672744 835.3877,665.595744 C827.7247,665.504744 820.0607,665.412744 812.3967,665.321744 C806.6407,665.252744 800.7127,665.148744 795.4177,662.891744 C794.6167,662.549744 793.7627,662.080744 793.4897,661.254744 C793.2637,660.575744 793.5047,659.815744 793.9147,659.229744 C794.8757,657.853744 796.6017,657.270744 798.2277,656.855744 C804.8587,655.164744 811.7557,654.876744 818.5927,654.597744" id="Stroke-173" stroke="#979797" stroke-width="1.5" stroke-linecap="round" stroke-linejoin="round"></path>
                <path d="M859.4807,667.858444 C859.7557,669.944444 860.1947,673.503444 860.1947,675.607444 C860.1947,678.700444 859.6567,681.769444 859.5187,684.859444 C859.3647,688.302444 859.7077,691.744444 860.0497,695.173444 C860.1847,696.528444 860.3937,698.029444 861.4447,698.897444 C862.1657,699.493444 863.1407,699.658444 863.9967,700.036444 C864.7447,700.366444 865.4157,700.867444 866.1907,701.125444 C866.9017,701.363444 867.6827,701.383444 868.4057,701.184444" id="Stroke-174" stroke="#979797" stroke-width="1.5" stroke-linecap="round" stroke-linejoin="round"></path>
                <path d="M793.4096,660.807844 C793.5316,661.440844 793.3856,664.258844 793.4026,664.903844 C793.5446,670.264844 793.0836,673.925844 792.4346,679.248844 C792.0806,682.150844 791.4936,685.026844 791.3306,687.944844 C791.1856,690.549844 791.3696,691.880844 790.4646,694.327844 C789.4576,697.053844 787.0706,699.229844 784.2626,699.980844" id="Stroke-175" stroke="#979797" stroke-width="1.5" stroke-linecap="round" stroke-linejoin="round"></path>
                <path d="M842.7159,662.511644 C851.2539,646.500644 835.6349,630.129644 821.9659,636.475644 C821.9659,636.475644 812.9659,648.760644 825.1229,659.158644 C825.1229,659.158644 833.5639,664.208644 842.7159,662.511644" id="Fill-176" fill="#FFFFFF"></path>
                <path d="M822.0752,635.604944 C825.8672,635.363944 831.5262,634.213944 835.3752,636.400944 C838.3942,638.116944 841.6212,642.658944 843.0352,645.829944 C845.4562,651.259944 845.1482,658.429944 840.8562,662.588944 C844.5912,661.614944 848.2832,660.475944 851.9172,659.175944 C853.6832,660.717944 855.1372,662.583944 856.8452,664.190944 C858.5532,665.796944 860.6232,667.178944 862.9562,667.406944 C863.9322,667.502944 864.9942,667.361944 865.7262,666.709944 C866.7552,665.792944 866.7912,664.127944 866.1852,662.889944 C865.5802,661.652944 864.4792,660.743944 863.4102,659.873944 L834.8672,621.176944 C834.8672,621.176944 826.7412,615.477944 821.5972,621.946944 C816.4532,628.415944 822.3322,632.523944 822.3322,632.523944 L822.0752,635.604944 Z" id="Fill-177" fill="#E6E7EB"></path>
                <path d="M821.9662,636.475644 C835.6342,630.129644 850.1332,646.645644 841.5962,662.656644" id="Stroke-178" stroke="#E6E7EB" stroke-width="1.5" stroke-linecap="round" stroke-linejoin="round"></path>
                <line x1="821.5385" y1="628.720844" x2="817.0045" y2="630.509844" id="Stroke-179" stroke="#979797" stroke-width="1.5" stroke-linecap="round" stroke-linejoin="round"></line>
                <path d="M832.1385,623.922344 C832.4025,626.106344 830.4925,628.229344 828.2135,625.069344" id="Stroke-180" stroke="#979797" stroke-width="1.5" stroke-linecap="round" stroke-linejoin="round"></path>
                <path d="M853.3348,657.805944 C833.1448,672.249944 806.6878,654.314944 824.3118,632.918944 C814.2898,621.984944 830.5918,613.264944 838.1148,623.358944 L868.8898,664.649944 L867.5148,665.520944 C865.1448,667.020944 862.0498,666.664944 860.0838,664.665944 L853.3348,657.805944 Z" id="Stroke-181" stroke="#979797" stroke-width="1.5" stroke-linecap="round" stroke-linejoin="round"></path>
                <path d="M830.1416,615.353144 C830.5036,616.315144 830.8106,617.299144 831.0586,618.296144 C831.7166,617.583144 832.5186,616.780144 833.1756,616.067144" id="Stroke-182" stroke="#979797" stroke-width="1.5" stroke-linecap="round" stroke-linejoin="round"></path>
            </g>
        </g>
    </g>
</svg>