<?xml version="1.0" standalone="no"?><!DOCTYPE svg PUBLIC "-//W3C//DTD SVG 1.1//EN" "http://www.w3.org/Graphics/SVG/1.1/DTD/svg11.dtd"><svg t="1772478113661" class="icon" viewBox="0 0 1024 1024" version="1.1" xmlns="http://www.w3.org/2000/svg" p-id="2058" xmlns:xlink="http://www.w3.org/1999/xlink" width="200" height="200"><path d="M838.997333 517.5296a339.285333 339.285333 0 0 1-339.1488 339.285333v75.434667a414.651733 414.651733 0 0 0 414.5152-414.72h-75.3664z m-339.1488 339.285333a339.285333 339.285333 0 0 1-339.1488-339.285333H85.333333a414.651733 414.651733 0 0 0 414.5152 414.72V856.951467z m-339.1488-339.285333a339.285333 339.285333 0 0 1 339.1488-339.3536V102.741333A414.651733 414.651733 0 0 0 85.333333 517.5296h75.3664z m339.1488-339.3536a339.285333 339.285333 0 0 1 339.1488 339.285333h75.3664A414.651733 414.651733 0 0 0 499.848533 102.8096v75.434667zM424.482133 366.728533l20.8896-31.402666a37.6832 37.6832 0 0 0-58.5728 31.402666h37.6832z m226.0992 150.801067l20.8896 31.402667a37.6832 37.6832 0 0 0 0-62.805334l-20.8896 31.402667zM424.482133 668.398933h-37.6832a37.6832 37.6832 0 0 0 58.5728 31.3344l-20.8896-31.402666z m-20.8896-270.336l226.030934 150.869334 41.847466-62.805334L445.371733 335.394133l-41.7792 62.805334z m226.030934 88.064l-226.030934 150.869334 41.7792 62.737066 226.0992-150.869333-41.847466-62.737067z m-167.458134 182.272v-301.738666H386.798933v301.738666h75.3664z" fill="#000000" p-id="2059"></path></svg>