<?xml version="1.0" encoding="UTF-8"?>
<!DOCTYPE svg PUBLIC "-//W3C//DTD SVG 1.1//EN" "http://www.w3.org/Graphics/SVG/1.1/DTD/svg11.dtd">
<svg xmlns="http://www.w3.org/2000/svg" version="1.1" width="620px" height="158px" style="shape-rendering:geometricPrecision; text-rendering:geometricPrecision; image-rendering:optimizeQuality; fill-rule:evenodd; clip-rule:evenodd" xmlns:xlink="http://www.w3.org/1999/xlink">
<g><path style="opacity:1" fill="#000000" d="M 17.5,-0.5 C 23.5,-0.5 29.5,-0.5 35.5,-0.5C 36.4808,12.7541 36.8142,26.0875 36.5,39.5C 41.5,39.5 46.5,39.5 51.5,39.5C 51.6661,45.1764 51.4994,50.8431 51,56.5C 46.2633,57.4692 41.43,57.8025 36.5,57.5C 36.5,90.5 36.5,123.5 36.5,156.5C 29.5,156.5 22.5,156.5 15.5,156.5C 15.5,123.5 15.5,90.5 15.5,57.5C 10.0735,57.7825 4.74012,57.4491 -0.5,56.5C -0.5,51.1667 -0.5,45.8333 -0.5,40.5C 4.74012,39.5509 10.0735,39.2175 15.5,39.5C 14.8803,25.92 15.547,12.5867 17.5,-0.5 Z"/></g>
<g><path style="opacity:1" fill="#000000" d="M 91.5,-0.5 C 97.8333,-0.5 104.167,-0.5 110.5,-0.5C 111.423,3.06405 111.756,6.73072 111.5,10.5C 114.833,10.5 118.167,10.5 121.5,10.5C 121.036,6.49753 121.702,2.83086 123.5,-0.5C 128.833,-0.5 134.167,-0.5 139.5,-0.5C 139.915,3.04607 139.915,6.71273 139.5,10.5C 143.437,10.2065 147.27,10.5399 151,11.5C 151.804,16.7513 151.637,21.918 150.5,27C 137.504,27.4999 124.504,27.6666 111.5,27.5C 111.5,29.5 111.5,31.5 111.5,33.5C 122.013,33.4416 132.346,33.4416 142.5,33.5C 143.666,54.8255 143.833,76.1589 143,97.5C 139.27,98.4601 135.437,98.7935 131.5,98.5C 131.5,100.5 131.5,102.5 131.5,104.5C 137.842,104.334 144.175,104.5 150.5,105C 151.059,105.725 151.392,106.558 151.5,107.5C 150.576,112.105 150.242,116.605 150.5,121C 144.175,121.5 137.842,121.666 131.5,121.5C 131.5,133.167 131.5,144.833 131.5,156.5C 119.495,156.667 107.495,156.5 95.5,156C 94.3611,150.584 94.1944,145.084 95,139.5C 100.072,138.529 105.238,138.195 110.5,138.5C 110.5,132.833 110.5,127.167 110.5,121.5C 89.8306,121.667 69.164,121.5 48.5,121C 47.1667,115.667 47.1667,110.333 48.5,105C 69.164,104.5 89.8306,104.333 110.5,104.5C 110.5,102.5 110.5,100.5 110.5,98.5C 103.833,98.5 97.1667,98.5 90.5,98.5C 90.1669,95.3158 90.0002,91.9825 90,88.5C 89.196,87.1955 88.0293,86.5288 86.5,86.5C 83.295,86.9115 80.1283,87.2448 77,87.5C 76.7931,91.0894 76.2931,94.5894 75.5,98C 69.1667,98.6667 62.8333,98.6667 56.5,98C 55.3403,76.9063 55.1736,55.7396 56,34.5C 67.0905,33.6782 78.2571,33.1782 89.5,33C 90.4061,31.3005 90.7394,29.4672 90.5,27.5C 76.8293,27.6666 63.1626,27.4999 49.5,27C 48.9032,25.9383 48.5698,24.7716 48.5,23.5C 49.7296,20.655 49.7296,17.8217 48.5,15C 48.4393,13.2894 49.1059,11.956 50.5,11C 63.8292,10.5001 77.1625,10.3334 90.5,10.5C 90.244,6.73072 90.5773,3.06405 91.5,-0.5 Z M 76.5,47.5 C 80.8461,47.3343 85.1794,47.501 89.5,48C 89.1119,49.5252 89.1119,51.1918 89.5,53C 85.1794,53.499 80.8461,53.6657 76.5,53.5C 76.5,51.5 76.5,49.5 76.5,47.5 Z M 111.5,47.5 C 115.167,47.5 118.833,47.5 122.5,47.5C 122.5,49.5 122.5,51.5 122.5,53.5C 118.833,53.5 115.167,53.5 111.5,53.5C 111.5,51.5 111.5,49.5 111.5,47.5 Z M 76.5,66.5 C 80.5,66.5 84.5,66.5 88.5,66.5C 89.1784,68.8579 89.5117,71.0246 89.5,73C 85.1794,73.499 80.8461,73.6657 76.5,73.5C 76.5,71.1667 76.5,68.8333 76.5,66.5 Z M 111.5,66.5 C 115.182,66.3347 118.848,66.5014 122.5,67C 122.216,68.9562 122.216,71.1229 122.5,73.5C 118.833,73.5 115.167,73.5 111.5,73.5C 111.5,71.1667 111.5,68.8333 111.5,66.5 Z M 111.5,87.5 C 114.833,87.5 118.167,87.5 121.5,87.5C 121.5,90.1667 121.5,92.8333 121.5,95.5C 118.167,95.5 114.833,95.5 111.5,95.5C 111.5,92.8333 111.5,90.1667 111.5,87.5 Z"/></g>
<g><path style="opacity:1" fill="#000000" d="M 223.5,-0.5 C 229.833,-0.5 236.167,-0.5 242.5,-0.5C 243.423,3.06405 243.756,6.73072 243.5,10.5C 262.82,9.44034 282.153,9.27368 301.5,10C 302.894,10.956 303.561,12.2894 303.5,14C 302.906,25.2858 302.573,36.4524 302.5,47.5C 295.825,47.6663 289.158,47.4996 282.5,47C 281.522,40.5898 281.189,34.0898 281.5,27.5C 248.833,27.5 216.167,27.5 183.5,27.5C 183.5,34.1667 183.5,40.8333 183.5,47.5C 187.833,47.5 192.167,47.5 196.5,47.5C 196.334,42.8215 196.501,38.1548 197,33.5C 199.218,32.528 201.551,31.8613 204,31.5C 208.578,32.4246 213.078,32.758 217.5,32.5C 218.769,34.6948 218.769,36.8615 217.5,39C 236.833,39.3333 256.167,39.6667 275.5,40C 276.815,48.1078 276.815,56.2745 275.5,64.5C 273.253,65.3742 270.92,65.7076 268.5,65.5C 268.664,68.1873 268.497,70.854 268,73.5C 263.586,74.3029 259.086,74.8029 254.5,75C 255.833,77 255.833,79 254.5,81C 261.5,81.3333 268.5,81.6667 275.5,82C 276.451,85.0567 276.784,88.2234 276.5,91.5C 286.083,91.1816 295.583,91.5149 305,92.5C 305.81,99.0816 305.643,105.582 304.5,112C 297.782,112.795 291.116,112.628 284.5,111.5C 283.501,126.485 283.167,141.485 283.5,156.5C 249.833,156.5 216.167,156.5 182.5,156.5C 182.5,141.5 182.5,126.5 182.5,111.5C 175.492,111.666 168.492,111.5 161.5,111C 160.359,105.25 160.193,99.4163 161,93.5C 161.5,93 162,92.5 162.5,92C 171.827,91.5002 181.161,91.3335 190.5,91.5C 190.46,88.1194 190.793,84.7861 191.5,81.5C 198.167,81.5 204.833,81.5 211.5,81.5C 211.5,79.1667 211.5,76.8333 211.5,74.5C 206.821,74.6658 202.155,74.4992 197.5,74C 196.556,71.2809 196.223,68.4475 196.5,65.5C 192.5,65.5 188.5,65.5 184.5,65.5C 184.797,69.7675 184.464,73.9341 183.5,78C 178.581,78.8015 173.748,78.6349 169,77.5C 168.333,72.8333 168.333,68.1667 169,63.5C 173.401,62.5333 177.901,62.2 182.5,62.5C 182.5,57.5 182.5,52.5 182.5,47.5C 175.578,47.8122 168.744,47.4788 162,46.5C 161.333,34.8333 161.333,23.1667 162,11.5C 162.5,11 163,10.5 163.5,10C 183.269,9.59729 202.935,9.76396 222.5,10.5C 222.244,6.73072 222.577,3.06405 223.5,-0.5 Z M 253.5,55.5 C 254.461,57.2646 254.795,59.2646 254.5,61.5C 251.5,61.5 248.5,61.5 245.5,61.5C 245.5,64.1667 245.5,66.8333 245.5,69.5C 236.833,69.5 228.167,69.5 219.5,69.5C 219.292,67.0799 219.626,64.7466 220.5,62.5C 215.533,61.671 210.533,61.171 205.5,61C 205.966,59.7012 205.966,58.2012 205.5,56.5C 221.675,56.8297 237.675,56.4964 253.5,55.5 Z M 219.5,88.5 C 228.5,88.5 237.5,88.5 246.5,88.5C 246.5,91.8333 246.5,95.1667 246.5,98.5C 252.509,98.3338 258.509,98.5005 264.5,99C 265.406,100.699 265.739,102.533 265.5,104.5C 244.167,104.5 222.833,104.5 201.5,104.5C 201.5,102.5 201.5,100.5 201.5,98.5C 207.833,98.5 214.167,98.5 220.5,98.5C 219.793,95.2139 219.46,91.8806 219.5,88.5 Z M 203.5,121.5 C 222.833,121.5 242.167,121.5 261.5,121.5C 261.5,127.167 261.5,132.833 261.5,138.5C 242.497,138.667 223.497,138.5 204.5,138C 205.554,136.612 205.72,135.112 205,133.5C 204.667,133.833 204.333,134.167 204,134.5C 203.943,130.072 203.776,125.739 203.5,121.5 Z"/></g>
<g><path style="opacity:1" fill="#000000" d="M 377.5,-0.5 C 383.833,-0.5 390.167,-0.5 396.5,-0.5C 397.141,0.482236 397.807,1.48224 398.5,2.5C 397.919,52.8014 397.919,103.135 398.5,153.5C 398.392,154.442 398.059,155.275 397.5,156C 384.167,156.667 370.833,156.667 357.5,156C 356.358,149.916 356.191,143.749 357,137.5C 363.076,136.524 369.242,136.19 375.5,136.5C 376.263,92.9646 376.263,48.9646 375.5,4.5C 375.724,2.54533 376.391,0.878666 377.5,-0.5 Z"/></g>
<g><path style="opacity:1" fill="#000000" d="M 485.5,-0.5 C 491.833,-0.5 498.167,-0.5 504.5,-0.5C 505.143,4.6686 505.81,9.83527 506.5,15C 511.398,14.6096 516.232,14.7763 521,15.5C 521.667,21.1667 521.667,26.8333 521,32.5C 509.581,33.4878 498.081,33.8211 486.5,33.5C 486.797,37.7675 486.464,41.9341 485.5,46C 479.584,46.8072 473.75,46.6406 468,45.5C 467.333,40.5 467.333,35.5 468,30.5C 473.072,29.5286 478.238,29.1953 483.5,29.5C 483.334,20.1607 483.5,10.8274 484,1.5C 484.717,0.955796 485.217,0.28913 485.5,-0.5 Z"/></g>
<g><path style="opacity:1" fill="#000000" d="M 559.5,-0.5 C 565.833,-0.5 572.167,-0.5 578.5,-0.5C 579.414,2.72797 579.747,6.06131 579.5,9.5C 590.172,9.3335 600.839,9.50016 611.5,10C 612.833,15.3333 612.833,20.6667 611.5,26C 600.505,26.4998 589.505,26.6665 578.5,26.5C 578.5,28.5 578.5,30.5 578.5,32.5C 587.418,32.1828 596.251,32.5161 605,33.5C 604.578,59.1442 604.411,84.8108 604.5,110.5C 609.595,110.221 614.595,110.555 619.5,111.5C 619.5,116.5 619.5,121.5 619.5,126.5C 585.905,127.659 552.238,127.826 518.5,127C 517.527,121.593 517.193,116.093 517.5,110.5C 521.833,110.5 526.167,110.5 530.5,110.5C 530.5,84.5 530.5,58.5 530.5,32.5C 539.506,32.6664 548.506,32.4998 557.5,32C 558.406,30.3005 558.739,28.4672 558.5,26.5C 547.828,26.6665 537.161,26.4998 526.5,26C 525.167,20.6667 525.167,15.3333 526.5,10C 537.161,9.50016 547.828,9.3335 558.5,9.5C 558.253,6.06131 558.586,2.72797 559.5,-0.5 Z M 552.5,47.5 C 562.833,47.5 573.167,47.5 583.5,47.5C 583.5,49.1667 583.5,50.8333 583.5,52.5C 573.167,52.5 562.833,52.5 552.5,52.5C 552.5,50.8333 552.5,49.1667 552.5,47.5 Z M 552.5,66.5 C 562.833,66.5 573.167,66.5 583.5,66.5C 583.5,68.1667 583.5,69.8333 583.5,71.5C 573.167,71.5 562.833,71.5 552.5,71.5C 552.5,69.8333 552.5,68.1667 552.5,66.5 Z M 552.5,85.5 C 562.833,85.5 573.167,85.5 583.5,85.5C 583.5,87.1667 583.5,88.8333 583.5,90.5C 573.167,90.5 562.833,90.5 552.5,90.5C 552.5,88.8333 552.5,87.1667 552.5,85.5 Z M 552.5,104.5 C 562.833,104.5 573.167,104.5 583.5,104.5C 583.5,106.5 583.5,108.5 583.5,110.5C 573.167,110.5 562.833,110.5 552.5,110.5C 552.5,108.5 552.5,106.5 552.5,104.5 Z"/></g>
<g><path style="opacity:1" fill="#000000" d="M 334.5,39.5 C 341.5,39.5 348.5,39.5 355.5,39.5C 355.667,53.8372 355.5,68.1705 355,82.5C 348.959,82.6723 342.792,82.6723 336.5,82.5C 336.666,92.8387 336.5,103.172 336,113.5C 329.582,114.643 323.082,114.81 316.5,114C 315.347,103.243 315.18,92.41 316,81.5C 322.076,80.5236 328.242,80.1903 334.5,80.5C 334.5,66.8333 334.5,53.1667 334.5,39.5 Z"/></g>
<g><path style="opacity:1" fill="#000000" d="M 417.5,39.5 C 423.842,39.3338 430.175,39.5005 436.5,40C 437.316,47.4205 437.816,54.9205 438,62.5C 444,63.1667 450,63.8333 456,64.5C 456.667,80.8333 456.667,97.1667 456,113.5C 449,114.833 442,114.833 435,113.5C 435.796,97.8497 435.63,82.183 434.5,66.5C 428.575,66.8082 422.741,66.4749 417,65.5C 416.198,56.7551 416.364,48.0884 417.5,39.5 Z"/></g>
<g><path style="opacity:1" fill="#000000" d="M 474.5,47.5 C 489.47,47.669 504.47,47.8357 519.5,48C 520.639,53.4162 520.806,58.9162 520,64.5C 515.263,65.4692 510.43,65.8025 505.5,65.5C 505.587,70.5365 505.254,75.5365 504.5,80.5C 509.844,80.334 515.177,80.5006 520.5,81C 521.833,86.6667 521.833,92.3333 520.5,98C 515.722,98.2934 511.055,98.4601 506.5,98.5C 505.501,109.814 505.168,121.147 505.5,132.5C 510.43,132.197 515.263,132.531 520,133.5C 520.812,140.747 520.646,147.914 519.5,155C 510.833,155.667 502.167,155.667 493.5,155C 492.533,150.599 492.2,146.099 492.5,141.5C 489.552,141.777 486.719,141.444 484,140.5C 484.616,126.51 484.449,112.51 483.5,98.5C 478.456,98.8275 473.456,98.4941 468.5,97.5C 468.209,91.9146 468.209,86.248 468.5,80.5C 473.833,80.5 479.167,80.5 484.5,80.5C 484.666,75.8215 484.499,71.1548 484,66.5C 480.333,65.8333 476.667,65.1667 473,64.5C 471.958,58.5447 472.458,52.878 474.5,47.5 Z"/></g>
<g><path style="opacity:1" fill="#050600" d="M 319.5,81.5 C 322.456,82.1371 325.456,82.6371 328.5,83C 325.167,83.6667 321.833,83.6667 318.5,83C 319.056,82.6174 319.389,82.1174 319.5,81.5 Z"/></g>
<g><path style="opacity:1" fill="#060701" d="M 515.5,81.5 C 517.337,81.6395 517.67,82.3061 516.5,83.5C 515.702,83.0431 515.369,82.3764 515.5,81.5 Z"/></g>
<g><path style="opacity:1" fill="#060701" d="M 193.5,82.5 C 197.737,82.6898 201.737,83.0232 205.5,83.5C 203.5,83.8333 201.5,84.1667 199.5,84.5C 197.048,84.4609 195.048,83.7943 193.5,82.5 Z"/></g>
<g><path style="opacity:1" fill="#000000" d="M 62.5,123.5 C 67.2137,123.173 71.8804,123.507 76.5,124.5C 77.7468,126.042 77.7468,127.542 76.5,129C 81.4179,129.195 86.2512,129.695 91,130.5C 91.8056,136.084 91.6389,141.584 90.5,147C 85.1667,147.667 79.8333,147.667 74.5,147C 73.5495,143.943 73.2161,140.777 73.5,137.5C 69.5,137.5 65.5,137.5 61.5,137.5C 61.2256,132.737 61.559,128.07 62.5,123.5 Z"/></g>
<g><path style="opacity:1" fill="#000000" d="M 544.5,128.5 C 549.511,128.334 554.511,128.501 559.5,129C 560.833,133 560.833,137 559.5,141C 554.914,141.197 550.414,141.697 546,142.5C 545.501,147.155 545.334,151.821 545.5,156.5C 538.91,156.811 532.41,156.478 526,155.5C 525.333,150.167 525.333,144.833 526,139.5C 531.407,138.527 536.907,138.193 542.5,138.5C 542.311,134.963 542.977,131.63 544.5,128.5 Z"/></g>
<g><path style="opacity:1" fill="#000000" d="M 611.5,157.5 C 610.833,157.5 610.167,157.5 609.5,157.5C 604.025,156.511 598.358,156.178 592.5,156.5C 592.666,151.821 592.499,147.155 592,142.5C 587.934,141.536 583.767,141.203 579.5,141.5C 578.949,137.239 578.949,133.072 579.5,129C 584.833,128.333 590.167,128.333 595.5,129C 596.795,131.801 596.795,134.634 595.5,137.5C 601.387,138.186 607.22,138.853 613,139.5C 614.05,145.785 613.55,151.785 611.5,157.5 Z"/></g>
</svg>
