<?xml version="1.0" standalone="no"?><!DOCTYPE svg PUBLIC "-//W3C//DTD SVG 1.1//EN" "http://www.w3.org/Graphics/SVG/1.1/DTD/svg11.dtd"><svg t="1774500691310" class="icon" viewBox="0 0 1024 1024" version="1.1" xmlns="http://www.w3.org/2000/svg" p-id="1643" xmlns:xlink="http://www.w3.org/1999/xlink" width="200" height="200"><path d="M512 0C229.248 0 0 229.248 0 512s229.248 512 512 512 512-229.248 512-512S794.752 0 512 0zM824.832 832.384c-21.76-106.752-96.128-194.176-195.456-233.408C674.496 563.776 704 509.568 704 448c0-106.048-85.952-192-192-192S320 341.952 320 448c0 61.568 29.504 115.776 74.624 150.912-99.328 39.296-173.696 126.656-195.456 233.408C115.84 750.976 64 637.632 64 512c0-247.424 200.576-448 448-448 247.424 0 448 200.576 448 448C960 637.632 908.16 750.976 824.832 832.384z" fill="#231815" p-id="1644"></path></svg>