<?xml version="1.0" standalone="no"?><!DOCTYPE svg PUBLIC "-//W3C//DTD SVG 1.1//EN" "http://www.w3.org/Graphics/SVG/1.1/DTD/svg11.dtd"><svg t="1772216154452" class="icon" viewBox="0 0 1821 1024" version="1.1" xmlns="http://www.w3.org/2000/svg" p-id="1602" xmlns:xlink="http://www.w3.org/1999/xlink" width="355.6640625" height="200"><path d="M1348.953333 499.385333c1.249333 49.64-1.642667 98.778667-18.582666 142.6-91.518667 236.748 13.189333 296.890667 74.057333 335.52-92.752 2.830667-562.717333-11.24-620.852-10.824 94.413333-37.224 335.950667-53.069333 421.942667-60.412 0 0-43.477333-95.650667-7.984-199.141333 44.96-131.094667 98.282667-142.972 128.417333-340.458667 13.846667 42 21.84 86.568 23.001333 132.716z" fill="#FFD524" p-id="1603"></path><path d="M1257.181333 1013.458667c-76.9 0-167.073333-0.424-242.132-0.789334-61.616-0.288-110.281333-0.509333-128.394666-0.390666-1.168 0.008-2.381333 0.008-3.545334 0.008-267.92 0.025333-492.173333-216.605333-500.728-484.517334-4.190667-131.314667 42.14-256.957333 130.453334-353.797333 12.945333-14.189333 34.942667-15.208 49.137333-2.258667 14.193333 12.941333 15.208 34.942667 2.262667 49.133334-76.042667 83.38-115.932 191.589333-112.324 304.698666 7.366667 230.668 200.492 417.178667 431.194666 417.178667 1.014667 0 2.029333 0 3.053334-0.008 18.516-0.144 67.385333 0.101333 129.222666 0.398667 87.421333 0.416 205.057333 0.917333 291.612 0.705333-45.753333-54.032-74.548-144.978667-9.06-314.378667 16.228-41.974667 17.204-91.081333 16.244-129.184-5.74-228.198667-188.921333-412.662667-417.033333-419.94-45.732-1.477333-91.001333 4.169333-134.410667 16.754667-18.426667 5.324-37.741333-5.273333-43.086666-23.725333-5.349333-18.452 5.273333-37.737333 23.725333-43.086667 50.428-14.614667 102.92-21.102667 155.996-19.472 264.932 8.457333 477.681333 222.685333 484.356 487.718667 1.121333 44.564-0.246667 102.570667-20.914667 156.017333-79.362667 205.294667-0.857333 254.953333 56.461334 291.213333l3.796 2.402667a34.770667 34.770667 0 0 1 14.902666 38.561333c-4.033333 14.733333-17.212 25.101333-32.48 25.568-29.177333 0.892-84.118667 1.189333-148.308 1.189334z" fill="#333333" p-id="1604"></path><path d="M630.781333 154.186667c-11.429333 0-22.617333-5.621333-29.270666-15.938667-10.406667-16.150667-5.753333-37.669333 10.393333-48.08a519.464 519.464 0 0 1 13.268-8.270667c16.461333-9.918667 37.830667-4.610667 47.744 11.829334 9.918667 16.457333 4.62 37.830667-11.833333 47.748a455.982667 455.982667 0 0 0-11.493334 7.166666 34.630667 34.630667 0 0 1-18.808 5.545334z" fill="#333333" p-id="1605"></path><path d="M664.697333 532.277333m-61.364 0a61.364 61.364 0 1 0 122.728 0 61.364 61.364 0 1 0-122.728 0Z" fill="#333333" p-id="1606"></path><path d="M888.702667 532.277333m-61.364 0a61.364 61.364 0 1 0 122.728 0 61.364 61.364 0 1 0-122.728 0Z" fill="#333333" p-id="1607"></path><path d="M1119.526667 532.277333m-61.364 0a61.364 61.364 0 1 0 122.728 0 61.364 61.364 0 1 0-122.728 0Z" fill="#333333" p-id="1608"></path></svg>