<?xml version="1.0" encoding="UTF-8"?>
<!DOCTYPE svg PUBLIC "-//W3C//DTD SVG 1.1//EN" "http://www.w3.org/Graphics/SVG/1.1/DTD/svg11.dtd">
<svg xmlns="http://www.w3.org/2000/svg" version="1.1" width="1080px" height="1080px" style="shape-rendering:geometricPrecision; text-rendering:geometricPrecision; image-rendering:optimizeQuality; fill-rule:evenodd; clip-rule:evenodd" xmlns:xlink="http://www.w3.org/1999/xlink">
<g><path style="opacity:1" fill="#f9f9f9" d="M -0.5,-0.5 C 359.5,-0.5 719.5,-0.5 1079.5,-0.5C 1079.5,359.5 1079.5,719.5 1079.5,1079.5C 719.5,1079.5 359.5,1079.5 -0.5,1079.5C -0.5,719.5 -0.5,359.5 -0.5,-0.5 Z"/></g>
<g><path style="opacity:1" fill="#acacac" d="M 545.5,114.5 C 543.302,114.12 541.635,114.787 540.5,116.5C 540.144,118.19 539.144,119.19 537.5,119.5C 536.609,120.11 535.609,120.443 534.5,120.5C 536.294,118.203 538.294,116.037 540.5,114C 542.387,113.22 544.054,113.387 545.5,114.5 Z"/></g>
<g><path style="opacity:1" fill="#696a69" d="M 545.5,114.5 C 556.5,126.167 567.833,137.5 579.5,148.5C 579.833,149.167 580.167,149.833 580.5,150.5C 568.393,139.895 556.727,128.729 545.5,117C 544.584,116.626 543.75,116.126 543,115.5C 542.329,116.252 541.496,116.586 540.5,116.5C 541.635,114.787 543.302,114.12 545.5,114.5 Z"/></g>
<g><path style="opacity:1" fill="#1f1f19" d="M 580.5,150.5 C 582.145,153.479 584.479,155.812 587.5,157.5C 591.201,162.201 595.534,166.201 600.5,169.5C 602.167,173.167 604.833,175.833 608.5,177.5C 609.167,180.167 610.833,181.833 613.5,182.5C 618.5,189.5 624.5,195.5 631.5,200.5C 631.5,202.5 632.5,203.5 634.5,203.5C 638.833,209.833 644.167,215.167 650.5,219.5C 651.167,222.167 652.833,223.833 655.5,224.5C 656.522,227.522 658.522,229.522 661.5,230.5C 662.833,233.833 665.167,236.167 668.5,237.5C 669.167,240.167 670.833,241.833 673.5,242.5C 674.5,242.833 675.167,243.5 675.5,244.5C 675.856,246.19 676.856,247.19 678.5,247.5C 678.5,249.5 679.5,250.5 681.5,250.5C 682.5,253.5 684.5,255.5 687.5,256.5C 687.957,258.773 689.29,260.106 691.5,260.5C 693.221,264.044 696.055,266.377 700,267.5C 772.451,266.931 844.951,266.597 917.5,266.5C 918.829,317.623 919.496,368.956 919.5,420.5C 919.146,474.67 919.146,528.503 919.5,582C 919.355,582.772 919.022,583.439 918.5,584C 916.899,584.273 915.399,584.773 914,585.5C 908.508,585.063 902.841,584.397 897,583.5C 882.179,583.725 867.512,583.725 853,583.5C 852.992,500.777 852.325,418.11 851,335.5C 849.846,334.257 848.512,333.257 847,332.5C 789.514,332.69 730.348,332.69 669.5,332.5C 628.222,290.388 586.388,248.722 544,207.5C 542.527,207.132 541.027,207.632 539.5,209C 519.386,228.736 499.386,248.57 479.5,268.5C 478.873,269.417 478.539,270.417 478.5,271.5C 476.167,271.833 474.833,273.167 474.5,275.5C 467.713,281.779 460.713,287.946 453.5,294C 451.585,296.4 449.919,298.9 448.5,301.5C 438.194,311.14 428.194,321.14 418.5,331.5C 416.173,331.665 414.007,332.331 412,333.5C 352.843,333.01 293.843,332.677 235,332.5C 230.953,332.881 228.453,335.047 227.5,339C 228.097,344.562 228.097,349.895 227.5,355C 228.244,356.815 228.911,358.648 229.5,360.5C 229.5,360.833 229.5,361.167 229.5,361.5C 228.776,363.218 228.109,365.052 227.5,367C 228.397,419.448 228.397,471.782 227.5,524C 228.918,527.679 231.251,529.179 234.5,528.5C 234.833,528.5 235.167,528.5 235.5,528.5C 236.5,529.833 237.5,529.833 238.5,528.5C 238.833,528.5 239.167,528.5 239.5,528.5C 240.5,529.833 241.5,529.833 242.5,528.5C 242.833,528.5 243.167,528.5 243.5,528.5C 244.5,529.833 245.5,529.833 246.5,528.5C 246.833,528.5 247.167,528.5 247.5,528.5C 248.5,529.833 249.5,529.833 250.5,528.5C 250.833,528.5 251.167,528.5 251.5,528.5C 252.167,529.833 252.833,529.833 253.5,528.5C 253.833,528.5 254.167,528.5 254.5,528.5C 256.167,529.833 257.833,529.833 259.5,528.5C 259.833,528.5 260.167,528.5 260.5,528.5C 261.833,529.833 263.167,529.833 264.5,528.5C 264.833,528.5 265.167,528.5 265.5,528.5C 266.167,529.833 266.833,529.833 267.5,528.5C 267.833,528.5 268.167,528.5 268.5,528.5C 269.167,529.833 269.833,529.833 270.5,528.5C 270.833,528.5 271.167,528.5 271.5,528.5C 272.167,529.833 272.833,529.833 273.5,528.5C 273.833,528.5 274.167,528.5 274.5,528.5C 275.167,529.833 275.833,529.833 276.5,528.5C 276.833,528.5 277.167,528.5 277.5,528.5C 278.167,529.833 278.833,529.833 279.5,528.5C 279.833,528.5 280.167,528.5 280.5,528.5C 281.167,529.833 281.833,529.833 282.5,528.5C 282.833,528.5 283.167,528.5 283.5,528.5C 284.167,529.833 284.833,529.833 285.5,528.5C 285.833,528.5 286.167,528.5 286.5,528.5C 287.167,529.833 287.833,529.833 288.5,528.5C 288.833,528.5 289.167,528.5 289.5,528.5C 290.167,529.833 290.833,529.833 291.5,528.5C 291.833,528.5 292.167,528.5 292.5,528.5C 293.167,529.833 293.833,529.833 294.5,528.5C 294.833,528.5 295.167,528.5 295.5,528.5C 296.167,529.833 296.833,529.833 297.5,528.5C 297.833,528.5 298.167,528.5 298.5,528.5C 299.167,529.833 299.833,529.833 300.5,528.5C 300.833,528.5 301.167,528.5 301.5,528.5C 302.167,529.833 302.833,529.833 303.5,528.5C 303.833,528.5 304.167,528.5 304.5,528.5C 305.167,529.833 305.833,529.833 306.5,528.5C 306.833,528.5 307.167,528.5 307.5,528.5C 308.167,529.833 308.833,529.833 309.5,528.5C 309.833,528.5 310.167,528.5 310.5,528.5C 311.167,529.833 311.833,529.833 312.5,528.5C 312.833,528.5 313.167,528.5 313.5,528.5C 314.167,529.833 314.833,529.833 315.5,528.5C 315.833,528.5 316.167,528.5 316.5,528.5C 318.167,529.833 319.833,529.833 321.5,528.5C 321.833,528.5 322.167,528.5 322.5,528.5C 323.167,529.833 323.833,529.833 324.5,528.5C 324.833,528.5 325.167,528.5 325.5,528.5C 327.167,529.833 328.833,529.833 330.5,528.5C 330.833,528.5 331.167,528.5 331.5,528.5C 332.167,529.833 332.833,529.833 333.5,528.5C 333.833,528.5 334.167,528.5 334.5,528.5C 335.167,529.833 335.833,529.833 336.5,528.5C 336.833,528.5 337.167,528.5 337.5,528.5C 338.167,529.833 338.833,529.833 339.5,528.5C 339.833,528.5 340.167,528.5 340.5,528.5C 341.167,529.833 341.833,529.833 342.5,528.5C 342.833,528.5 343.167,528.5 343.5,528.5C 344.167,529.833 344.833,529.833 345.5,528.5C 345.833,528.5 346.167,528.5 346.5,528.5C 347.167,529.833 347.833,529.833 348.5,528.5C 348.833,528.5 349.167,528.5 349.5,528.5C 350.167,529.833 350.833,529.833 351.5,528.5C 351.833,528.5 352.167,528.5 352.5,528.5C 353.167,529.833 353.833,529.833 354.5,528.5C 354.833,528.5 355.167,528.5 355.5,528.5C 356.167,529.833 356.833,529.833 357.5,528.5C 357.833,528.5 358.167,528.5 358.5,528.5C 359.167,529.833 359.833,529.833 360.5,528.5C 360.833,528.5 361.167,528.5 361.5,528.5C 362.167,529.833 362.833,529.833 363.5,528.5C 363.833,528.5 364.167,528.5 364.5,528.5C 365.167,529.833 365.833,529.833 366.5,528.5C 366.833,528.5 367.167,528.5 367.5,528.5C 368.167,529.833 368.833,529.833 369.5,528.5C 369.833,528.5 370.167,528.5 370.5,528.5C 371.167,529.833 371.833,529.833 372.5,528.5C 372.833,528.5 373.167,528.5 373.5,528.5C 374.167,529.833 374.833,529.833 375.5,528.5C 375.833,528.5 376.167,528.5 376.5,528.5C 377.167,529.833 377.833,529.833 378.5,528.5C 378.833,528.5 379.167,528.5 379.5,528.5C 380.167,529.833 380.833,529.833 381.5,528.5C 381.833,528.5 382.167,528.5 382.5,528.5C 383.167,529.833 383.833,529.833 384.5,528.5C 384.833,528.5 385.167,528.5 385.5,528.5C 386.167,529.833 386.833,529.833 387.5,528.5C 387.833,528.5 388.167,528.5 388.5,528.5C 389.167,529.833 389.833,529.833 390.5,528.5C 390.833,528.5 391.167,528.5 391.5,528.5C 397.614,529.6 404.281,529.6 411.5,528.5C 411.833,528.5 412.167,528.5 412.5,528.5C 413.5,529.833 414.5,529.833 415.5,528.5C 415.833,528.5 416.167,528.5 416.5,528.5C 417.5,529.833 418.5,529.833 419.5,528.5C 419.833,528.5 420.167,528.5 420.5,528.5C 420.918,529.222 421.584,529.722 422.5,530C 422.293,537.356 421.96,544.689 421.5,552C 422.167,553.333 422.833,554.667 423.5,556C 423.368,565.455 423.035,574.955 422.5,584.5C 401.328,583.459 381.328,583.459 362.5,584.5C 362.167,584.5 361.833,584.5 361.5,584.5C 358.167,583.167 354.833,583.167 351.5,584.5C 351.167,584.5 350.833,584.5 350.5,584.5C 349.167,583.167 347.833,583.167 346.5,584.5C 346.167,584.5 345.833,584.5 345.5,584.5C 344.167,583.167 342.833,583.167 341.5,584.5C 341.167,584.5 340.833,584.5 340.5,584.5C 281.962,584.166 223.796,583.833 166,583.5C 164.185,584.244 162.352,584.911 160.5,585.5C 159.838,532.207 159.504,478.874 159.5,425.5C 159.504,372.29 160.171,319.29 161.5,266.5C 233.167,267.833 304.833,267.833 376.5,266.5C 376.783,267.289 377.283,267.956 378,268.5C 379.209,268.347 380.375,268.014 381.5,267.5C 382.5,268.833 383.5,268.833 384.5,267.5C 387.095,268.755 389.428,267.755 391.5,264.5C 440.832,216.834 489.499,168.501 537.5,119.5C 539.144,119.19 540.144,118.19 540.5,116.5C 541.496,116.586 542.329,116.252 543,115.5C 543.75,116.126 544.584,116.626 545.5,117C 556.727,128.729 568.393,139.895 580.5,150.5 Z"/></g>
<g><path style="opacity:1" fill="#696a69" d="M 537.5,119.5 C 489.499,168.501 440.832,216.834 391.5,264.5C 439.167,216.5 486.833,168.5 534.5,120.5C 535.609,120.443 536.609,120.11 537.5,119.5 Z"/></g>
<g><path style="opacity:1" fill="#a1a1a1" d="M 579.5,148.5 C 583.436,150.766 586.769,153.766 589.5,157.5C 588.833,157.5 588.167,157.5 587.5,157.5C 584.479,155.812 582.145,153.479 580.5,150.5C 580.167,149.833 579.833,149.167 579.5,148.5 Z"/></g>
<g><path style="opacity:1" fill="#696a69" d="M 587.5,157.5 C 588.167,157.5 588.833,157.5 589.5,157.5C 593.167,161.5 596.833,165.5 600.5,169.5C 595.534,166.201 591.201,162.201 587.5,157.5 Z"/></g>
<g><path style="opacity:1" fill="#696a69" d="M 600.5,169.5 C 603.5,171.833 606.167,174.5 608.5,177.5C 604.833,175.833 602.167,173.167 600.5,169.5 Z"/></g>
<g><path style="opacity:1" fill="#696a69" d="M 608.5,177.5 C 610.5,178.833 612.167,180.5 613.5,182.5C 610.833,181.833 609.167,180.167 608.5,177.5 Z"/></g>
<g><path style="opacity:1" fill="#696a69" d="M 613.5,182.5 C 619.833,188.167 625.833,194.167 631.5,200.5C 624.5,195.5 618.5,189.5 613.5,182.5 Z"/></g>
<g><path style="opacity:1" fill="#696a69" d="M 631.5,200.5 C 632.833,201.167 633.833,202.167 634.5,203.5C 632.5,203.5 631.5,202.5 631.5,200.5 Z"/></g>
<g><path style="opacity:1" fill="#696a69" d="M 634.5,203.5 C 640.167,208.5 645.5,213.833 650.5,219.5C 644.167,215.167 638.833,209.833 634.5,203.5 Z"/></g>
<g><path style="opacity:1" fill="#696a69" d="M 669.5,332.5 C 668.761,332.631 668.094,332.464 667.5,332C 626.806,290.972 585.806,250.305 544.5,210C 543.167,209.333 541.833,209.333 540.5,210C 520.632,229.701 500.965,249.535 481.5,269.5C 480.5,270.167 479.5,270.833 478.5,271.5C 478.539,270.417 478.873,269.417 479.5,268.5C 499.386,248.57 519.386,228.736 539.5,209C 541.027,207.632 542.527,207.132 544,207.5C 586.388,248.722 628.222,290.388 669.5,332.5 Z"/></g>
<g><path style="opacity:1" fill="#696a69" d="M 650.5,219.5 C 652.5,220.833 654.167,222.5 655.5,224.5C 652.833,223.833 651.167,222.167 650.5,219.5 Z"/></g>
<g><path style="opacity:1" fill="#717171" d="M 655.5,224.5 C 657.785,226.118 659.785,228.118 661.5,230.5C 658.522,229.522 656.522,227.522 655.5,224.5 Z"/></g>
<g><path style="opacity:1" fill="#696a69" d="M 661.5,230.5 C 664.167,232.5 666.5,234.833 668.5,237.5C 665.167,236.167 662.833,233.833 661.5,230.5 Z"/></g>
<g><path style="opacity:1" fill="#696a69" d="M 668.5,237.5 C 670.5,238.833 672.167,240.5 673.5,242.5C 670.833,241.833 669.167,240.167 668.5,237.5 Z"/></g>
<g><path style="opacity:1" fill="#787878" d="M 675.5,244.5 C 677.144,244.81 678.144,245.81 678.5,247.5C 676.856,247.19 675.856,246.19 675.5,244.5 Z"/></g>
<g><path style="opacity:1" fill="#696a69" d="M 678.5,247.5 C 679.833,248.167 680.833,249.167 681.5,250.5C 679.5,250.5 678.5,249.5 678.5,247.5 Z"/></g>
<g><path style="opacity:1" fill="#696a69" d="M 681.5,250.5 C 683.833,252.167 685.833,254.167 687.5,256.5C 684.5,255.5 682.5,253.5 681.5,250.5 Z"/></g>
<g><path style="opacity:1" fill="#757575" d="M 687.5,256.5 C 689.264,257.326 690.598,258.659 691.5,260.5C 689.29,260.106 687.957,258.773 687.5,256.5 Z"/></g>
<g><path style="opacity:1" fill="#9a9a9a" d="M 160.5,265.5 C 236.007,264.202 311.674,264.202 387.5,265.5C 386.5,266.167 385.5,266.833 384.5,267.5C 383.5,268.833 382.5,268.833 381.5,267.5C 380.081,266.549 378.415,266.216 376.5,266.5C 304.833,267.833 233.167,267.833 161.5,266.5C 161.5,265.833 161.167,265.5 160.5,265.5 Z"/></g>
<g><path style="opacity:1" fill="#696a69" d="M 391.5,264.5 C 389.428,267.755 387.095,268.755 384.5,267.5C 385.5,266.833 386.5,266.167 387.5,265.5C 388.833,265.167 390.167,264.833 391.5,264.5 Z"/></g>
<g><path style="opacity:1" fill="#989898" d="M 691.5,260.5 C 693.912,260.244 695.579,261.244 696.5,263.5C 770.666,264.167 844.666,264.833 918.5,265.5C 918.5,266.167 918.167,266.5 917.5,266.5C 844.951,266.597 772.451,266.931 700,267.5C 696.055,266.377 693.221,264.044 691.5,260.5 Z"/></g>
<g><path style="opacity:1" fill="#696a69" d="M 160.5,265.5 C 161.167,265.5 161.5,265.833 161.5,266.5C 160.171,319.29 159.504,372.29 159.5,425.5C 159.504,478.874 159.838,532.207 160.5,585.5C 159.883,585.389 159.383,585.056 159,584.5C 158.5,478.501 158.333,372.501 158.5,266.5C 159.492,266.672 160.158,266.338 160.5,265.5 Z"/></g>
<g><path style="opacity:1" fill="#696a69" d="M 918.5,265.5 C 919.117,265.611 919.617,265.944 920,266.5C 920.667,372.833 920.667,479.167 920,585.5C 899.563,585.515 879.063,585.848 858.5,586.5C 854.82,587.235 852.32,585.901 851,582.5C 850.833,500.332 850.333,418.332 849.5,336.5C 849.389,335.883 849.056,335.383 848.5,335C 846.527,334.505 844.527,334.338 842.5,334.5C 785.166,334.667 727.832,334.5 670.5,334C 669.944,333.617 669.611,333.117 669.5,332.5C 730.348,332.69 789.514,332.69 847,332.5C 848.512,333.257 849.846,334.257 851,335.5C 852.325,418.11 852.992,500.777 853,583.5C 867.512,583.725 882.179,583.725 897,583.5C 902.841,584.397 908.508,585.063 914,585.5C 915.399,584.773 916.899,584.273 918.5,584C 919.022,583.439 919.355,582.772 919.5,582C 919.146,528.503 919.146,474.67 919.5,420.5C 919.496,368.956 918.829,317.623 917.5,266.5C 918.167,266.5 918.5,266.167 918.5,265.5 Z"/></g>
<g><path style="opacity:1" fill="#babbba" d="M 158.5,266.5 C 158.333,372.501 158.5,478.501 159,584.5C 159.383,585.056 159.883,585.389 160.5,585.5C 160.5,585.833 160.5,586.167 160.5,586.5C 159.504,586.586 158.671,586.252 158,585.5C 157.167,478.999 157.334,372.666 158.5,266.5 Z"/></g>
<g><path style="opacity:1" fill="#696a69" d="M 376.5,266.5 C 378.415,266.216 380.081,266.549 381.5,267.5C 380.375,268.014 379.209,268.347 378,268.5C 377.283,267.956 376.783,267.289 376.5,266.5 Z"/></g>
<g><path style="opacity:1" fill="#a5a5a5" d="M 481.5,269.5 C 479.906,272.764 477.573,275.431 474.5,277.5C 474.5,276.833 474.5,276.167 474.5,275.5C 474.833,273.167 476.167,271.833 478.5,271.5C 479.5,270.833 480.5,270.167 481.5,269.5 Z"/></g>
<g><path style="opacity:1" fill="#686868" d="M 474.5,275.5 C 474.5,276.167 474.5,276.833 474.5,277.5C 466.16,285.84 457.493,293.84 448.5,301.5C 449.919,298.9 451.585,296.4 453.5,294C 460.713,287.946 467.713,281.779 474.5,275.5 Z"/></g>
<g><path style="opacity:1" fill="#696a69" d="M 448.5,301.5 C 439.758,311.746 430.425,321.579 420.5,331C 419.906,331.464 419.239,331.631 418.5,331.5C 428.194,321.14 438.194,311.14 448.5,301.5 Z"/></g>
<g><path style="opacity:1" fill="#b6b6b6" d="M 533.5,320.5 C 533.158,321.338 532.492,321.672 531.5,321.5C 529.475,321.789 527.475,322.122 525.5,322.5C 524.883,322.611 524.383,322.944 524,323.5C 523.833,325.667 523.667,327.833 523.5,330C 524.355,342.152 524.688,354.318 524.5,366.5C 523.751,365.469 523.085,364.302 522.5,363C 523.348,354.531 523.682,346.198 523.5,338C 521.069,332.204 521.402,326.537 524.5,321C 525.766,320.691 526.933,320.191 528,319.5C 529.762,320.074 531.595,320.407 533.5,320.5 Z"/></g>
<g><path style="opacity:1" fill="#a6a6a6" d="M 565.5,320.5 C 564.791,321.404 563.791,321.737 562.5,321.5C 556.396,322.271 550.396,322.271 544.5,321.5C 542.585,321.216 540.919,321.549 539.5,322.5C 538.604,323.506 537.938,323.506 537.5,322.5C 536.5,321.833 535.5,321.167 534.5,320.5C 545.618,319.396 555.951,319.396 565.5,320.5 Z"/></g>
<g><path style="opacity:1" fill="#696a69" d="M 533.5,320.5 C 533.833,320.5 534.167,320.5 534.5,320.5C 535.5,321.167 536.5,321.833 537.5,322.5C 535.444,323.161 533.444,322.828 531.5,321.5C 532.492,321.672 533.158,321.338 533.5,320.5 Z"/></g>
<g><path style="opacity:1" fill="#696a69" d="M 565.5,320.5 C 565.833,320.5 566.167,320.5 566.5,320.5C 568.167,321.167 569.833,321.833 571.5,322.5C 570.784,322.783 569.951,323.116 569,323.5C 566.723,322.883 564.556,322.216 562.5,321.5C 563.791,321.737 564.791,321.404 565.5,320.5 Z"/></g>
<g><path style="opacity:1" fill="#aeaeae" d="M 566.5,320.5 C 572.048,321.222 576.714,321.555 580.5,321.5C 579.432,322.434 578.099,322.768 576.5,322.5C 574.833,323.833 573.167,323.833 571.5,322.5C 569.833,321.833 568.167,321.167 566.5,320.5 Z"/></g>
<g><path style="opacity:1" fill="#1f1f19" d="M 531.5,321.5 C 533.444,322.828 535.444,323.161 537.5,322.5C 537.938,323.506 538.604,323.506 539.5,322.5C 541.338,323.678 543.005,323.345 544.5,321.5C 550.396,322.271 556.396,322.271 562.5,321.5C 564.556,322.216 566.723,322.883 569,323.5C 569.951,323.116 570.784,322.783 571.5,322.5C 573.167,323.833 574.833,323.833 576.5,322.5C 580.231,323.196 584.065,323.862 588,324.5C 588.23,339.304 588.064,353.304 587.5,366.5C 586.883,366.389 586.383,366.056 586,365.5C 576.402,366.155 566.902,366.822 557.5,367.5C 556.167,366.167 554.833,366.167 553.5,367.5C 551.833,364.833 550.167,364.833 548.5,367.5C 548.167,367.5 547.833,367.5 547.5,367.5C 545.823,364.93 543.99,364.93 542,367.5C 538.168,366.2 534.334,366.2 530.5,367.5C 529.154,365.873 527.654,365.206 526,365.5C 525.711,353.656 525.211,341.822 524.5,330C 524.625,327.449 524.958,324.949 525.5,322.5C 527.475,322.122 529.475,321.789 531.5,321.5 Z"/></g>
<g><path style="opacity:1" fill="#696a69" d="M 544.5,321.5 C 543.005,323.345 541.338,323.678 539.5,322.5C 540.919,321.549 542.585,321.216 544.5,321.5 Z"/></g>
<g><path style="opacity:1" fill="#696a69" d="M 580.5,321.5 C 582.833,322.833 585.167,322.833 587.5,321.5C 587.783,322.289 588.283,322.956 589,323.5C 589.5,337.496 589.667,351.496 589.5,365.5C 588.833,365.833 588.167,366.167 587.5,366.5C 588.064,353.304 588.23,339.304 588,324.5C 584.065,323.862 580.231,323.196 576.5,322.5C 578.099,322.768 579.432,322.434 580.5,321.5 Z"/></g>
<g><path style="opacity:1" fill="#babbba" d="M 587.5,321.5 C 588.496,321.414 589.329,321.748 590,322.5C 590.827,337.006 590.661,351.339 589.5,365.5C 589.667,351.496 589.5,337.496 589,323.5C 588.283,322.956 587.783,322.289 587.5,321.5 Z"/></g>
<g><path style="opacity:1" fill="#696a69" d="M 525.5,322.5 C 524.958,324.949 524.625,327.449 524.5,330C 525.211,341.822 525.711,353.656 526,365.5C 527.654,365.206 529.154,365.873 530.5,367.5C 528.402,368.484 526.402,368.151 524.5,366.5C 524.688,354.318 524.355,342.152 523.5,330C 523.667,327.833 523.833,325.667 524,323.5C 524.383,322.944 524.883,322.611 525.5,322.5 Z"/></g>
<g><path style="opacity:1" fill="#696a69" d="M 418.5,331.5 C 417.653,332.966 416.32,333.8 414.5,334C 353.833,334.333 293.167,334.667 232.5,335C 231.584,335.374 230.75,335.874 230,336.5C 229.658,344.704 229.492,352.704 229.5,360.5C 228.911,358.648 228.244,356.815 227.5,355C 228.097,349.895 228.097,344.562 227.5,339C 228.453,335.047 230.953,332.881 235,332.5C 293.843,332.677 352.843,333.01 412,333.5C 414.007,332.331 416.173,331.665 418.5,331.5 Z"/></g>
<g><path style="opacity:1" fill="#babbba" d="M 842.5,334.5 C 844.527,334.338 846.527,334.505 848.5,335C 849.056,335.383 849.389,335.883 849.5,336.5C 846.99,336.073 844.657,335.407 842.5,334.5 Z"/></g>
<g><path style="opacity:1" fill="#696a69" d="M 229.5,361.5 C 229.345,415.922 229.512,470.588 230,525.5C 231.409,526.781 232.909,527.781 234.5,528.5C 231.251,529.179 228.918,527.679 227.5,524C 228.397,471.782 228.397,419.448 227.5,367C 228.109,365.052 228.776,363.218 229.5,361.5 Z"/></g>
<g><path style="opacity:1" fill="#696a69" d="M 553.5,367.5 C 552.833,367.5 552.5,367.833 552.5,368.5C 551.041,368.567 549.708,368.234 548.5,367.5C 550.167,364.833 551.833,364.833 553.5,367.5 Z"/></g>
<g><path style="opacity:1" fill="#696a69" d="M 587.5,366.5 C 586.828,367.267 585.995,367.934 585,368.5C 576.043,368.445 566.876,368.445 557.5,368.5C 557.5,368.167 557.5,367.833 557.5,367.5C 566.902,366.822 576.402,366.155 586,365.5C 586.383,366.056 586.883,366.389 587.5,366.5 Z"/></g>
<g><path style="opacity:1" fill="#787878" d="M 547.5,367.5 C 544.317,369.898 541.483,369.898 539,367.5C 536.184,366.87 533.518,367.536 531,369.5C 530.536,368.906 530.369,368.239 530.5,367.5C 534.334,366.2 538.168,366.2 542,367.5C 543.99,364.93 545.823,364.93 547.5,367.5 Z"/></g>
<g><path style="opacity:1" fill="#a3a3a3" d="M 557.5,367.5 C 557.5,367.833 557.5,368.167 557.5,368.5C 555.833,369.833 554.167,369.833 552.5,368.5C 552.5,367.833 552.833,367.5 553.5,367.5C 554.833,366.167 556.167,366.167 557.5,367.5 Z"/></g>
<g><path style="opacity:1" fill="#babbba" d="M 730.5,378.5 C 727.287,378.19 724.287,378.523 721.5,379.5C 721.167,379.5 720.833,379.5 720.5,379.5C 720.5,379.167 720.5,378.833 720.5,378.5C 723.833,377.167 727.167,377.167 730.5,378.5 Z"/></g>
<g><path style="opacity:1" fill="#696a69" d="M 376.5,380.5 C 374.073,381.061 371.573,380.728 369,379.5C 366.333,379.5 363.667,379.5 361,379.5C 357.333,380.5 353.667,381.5 350,382.5C 349.617,381.944 349.117,381.611 348.5,381.5C 349.5,380.833 350.5,380.167 351.5,379.5C 352.117,379.611 352.617,379.944 353,380.5C 360.943,377.889 368.776,377.889 376.5,380.5 Z"/></g>
<g><path style="opacity:1" fill="#696a69" d="M 720.5,378.5 C 720.5,378.833 720.5,379.167 720.5,379.5C 715.005,382.082 709.338,383.415 703.5,383.5C 706.5,382.167 709.5,380.833 712.5,379.5C 715.279,379.721 717.946,379.388 720.5,378.5 Z"/></g>
<g><path style="opacity:1" fill="#696a69" d="M 730.5,378.5 C 732.698,378.875 734.698,379.542 736.5,380.5C 736.565,380.938 736.399,381.272 736,381.5C 731.066,380.856 726.233,380.19 721.5,379.5C 724.287,378.523 727.287,378.19 730.5,378.5 Z"/></g>
<g><path style="opacity:1" fill="#babbba" d="M 351.5,379.5 C 350.5,380.167 349.5,380.833 348.5,381.5C 347.167,381.5 345.833,381.5 344.5,381.5C 346.515,380.076 348.848,379.41 351.5,379.5 Z"/></g>
<g><path style="opacity:1" fill="#1f1f19" d="M 376.5,380.5 C 380.972,382.201 385.639,383.535 390.5,384.5C 398.431,389.099 406.098,394.099 413.5,399.5C 415.738,404.071 418.738,408.071 422.5,411.5C 433.084,431.582 434.251,451.915 426,472.5C 422.008,478.983 417.842,485.317 413.5,491.5C 411.5,492.167 410.167,493.5 409.5,495.5C 408.883,495.389 408.383,495.056 408,494.5C 405.905,496.089 404.405,498.089 403.5,500.5C 402.883,500.389 402.383,500.056 402,499.5C 400.139,501.299 398.139,502.965 396,504.5C 395.667,504.167 395.333,503.833 395,503.5C 393.493,505.008 391.827,506.341 390,507.5C 388.984,506.366 388.317,506.699 388,508.5C 386.853,507.542 385.853,507.875 385,509.5C 383.853,508.542 382.853,508.875 382,510.5C 380.372,509.903 378.705,510.237 377,511.5C 376.667,511.167 376.333,510.833 376,510.5C 374.333,511.167 372.667,511.833 371,512.5C 366.667,512.5 362.333,512.5 358,512.5C 354.613,511.095 351.28,510.095 348,509.5C 347.617,510.056 347.117,510.389 346.5,510.5C 346.607,508.621 346.107,508.288 345,509.5C 343.47,508.364 342.137,507.364 341,506.5C 339.984,507.634 339.317,507.301 339,505.5C 337.984,506.634 337.317,506.301 337,504.5C 335.984,505.634 335.317,505.301 335,503.5C 334.667,503.833 334.333,504.167 334,504.5C 331.155,502.28 328.489,499.946 326,497.5C 325.617,498.056 325.117,498.389 324.5,498.5C 319.855,493.52 315.188,488.52 310.5,483.5C 308.163,479.492 305.83,475.492 303.5,471.5C 295.789,450.869 297.123,430.869 307.5,411.5C 310.54,408.461 313.206,405.127 315.5,401.5C 317.167,400.5 318.5,399.167 319.5,397.5C 323.936,394.106 328.603,390.939 333.5,388C 338.6,385.776 343.6,383.61 348.5,381.5C 349.117,381.611 349.617,381.944 350,382.5C 353.667,381.5 357.333,380.5 361,379.5C 363.667,379.5 366.333,379.5 369,379.5C 371.573,380.728 374.073,381.061 376.5,380.5 Z"/></g>
<g><path style="opacity:1" fill="#696a69" d="M 390.5,384.5 C 385.639,383.535 380.972,382.201 376.5,380.5C 381.434,380.36 386.101,381.693 390.5,384.5 Z"/></g>
<g><path style="opacity:1" fill="#1f1f19" d="M 720.5,379.5 C 720.833,379.5 721.167,379.5 721.5,379.5C 726.233,380.19 731.066,380.856 736,381.5C 736.399,381.272 736.565,380.938 736.5,380.5C 736.833,380.5 737.167,380.5 737.5,380.5C 742.89,382.112 748.89,384.112 755.5,386.5C 756.287,388.104 757.62,388.771 759.5,388.5C 763.193,391.853 767.193,394.853 771.5,397.5C 771.81,399.144 772.81,400.144 774.5,400.5C 774.81,402.144 775.81,403.144 777.5,403.5C 780.266,408.045 783.266,412.378 786.5,416.5C 786.389,417.117 786.056,417.617 785.5,418C 787.298,420.433 788.964,422.933 790.5,425.5C 790.351,427.351 790.351,429.184 790.5,431C 791.044,431.717 791.711,432.217 792.5,432.5C 792.5,432.833 792.5,433.167 792.5,433.5C 791.957,433.56 791.624,433.893 791.5,434.5C 792.272,440.838 792.939,446.838 793.5,452.5C 793.5,452.833 793.5,453.167 793.5,453.5C 792.072,455.074 791.739,456.741 792.5,458.5C 790.717,462.613 789.384,466.946 788.5,471.5C 785.183,476.792 781.849,482.126 778.5,487.5C 775.48,489.523 773.146,492.19 771.5,495.5C 765.904,498.124 760.904,501.458 756.5,505.5C 755.883,505.389 755.383,505.056 755,504.5C 751.21,506.877 747.21,508.877 743,510.5C 742.667,510.167 742.333,509.833 742,509.5C 739.391,510.128 736.725,511.128 734,512.5C 728.667,512.5 723.333,512.5 718,512.5C 716.667,511.833 715.333,511.167 714,510.5C 712,511.833 710,511.833 708,510.5C 705.333,509.167 702.667,507.833 700,506.5C 699.667,506.833 699.333,507.167 699,507.5C 693.265,503.582 687.432,499.916 681.5,496.5C 678.471,493.141 675.471,489.808 672.5,486.5C 670.656,482.808 668.323,479.475 665.5,476.5C 665.672,475.508 665.338,474.842 664.5,474.5C 662.91,469.559 661.41,464.559 660,459.5C 657.333,444.963 659.166,430.63 665.5,416.5C 667.664,414.178 669.331,411.511 670.5,408.5C 673.833,404.833 677.167,401.167 680.5,397.5C 683.288,396.774 685.288,395.107 686.5,392.5C 689.511,391.331 692.178,389.664 694.5,387.5C 697.549,387.09 700.549,385.757 703.5,383.5C 709.338,383.415 715.005,382.082 720.5,379.5 Z"/></g>
<g><path style="opacity:1" fill="#909090" d="M 755.5,386.5 C 748.89,384.112 742.89,382.112 737.5,380.5C 744.345,379.572 750.345,381.572 755.5,386.5 Z"/></g>
<g><path style="opacity:1" fill="#babbba" d="M 344.5,381.5 C 342.11,383.02 339.443,384.02 336.5,384.5C 338.684,382.415 341.351,381.415 344.5,381.5 Z"/></g>
<g><path style="opacity:1" fill="#696a69" d="M 344.5,381.5 C 345.833,381.5 347.167,381.5 348.5,381.5C 343.6,383.61 338.6,385.776 333.5,388C 328.603,390.939 323.936,394.106 319.5,397.5C 324.313,392.017 329.98,387.683 336.5,384.5C 339.443,384.02 342.11,383.02 344.5,381.5 Z"/></g>
<g><path style="opacity:1" fill="#9e9e9e" d="M 712.5,379.5 C 709.5,380.833 706.5,382.167 703.5,383.5C 700.549,385.757 697.549,387.09 694.5,387.5C 694.574,385.589 695.574,384.422 697.5,384C 702.304,381.787 707.304,380.287 712.5,379.5 Z"/></g>
<g><path style="opacity:1" fill="#767676" d="M 390.5,384.5 C 396.819,386.652 402.819,389.485 408.5,393C 410.539,394.926 412.206,397.093 413.5,399.5C 406.098,394.099 398.431,389.099 390.5,384.5 Z"/></g>
<g><path style="opacity:1" fill="#696a69" d="M 755.5,386.5 C 757.153,386.66 758.486,387.326 759.5,388.5C 757.62,388.771 756.287,388.104 755.5,386.5 Z"/></g>
<g><path style="opacity:1" fill="#696a69" d="M 694.5,387.5 C 692.178,389.664 689.511,391.331 686.5,392.5C 688.484,389.836 691.151,388.169 694.5,387.5 Z"/></g>
<g><path style="opacity:1" fill="#8b8b8b" d="M 759.5,388.5 C 762.226,388.264 764.559,389.097 766.5,391C 768.054,393.371 769.721,395.537 771.5,397.5C 767.193,394.853 763.193,391.853 759.5,388.5 Z"/></g>
<g><path style="opacity:1" fill="#696a69" d="M 686.5,392.5 C 685.288,395.107 683.288,396.774 680.5,397.5C 681.911,395.086 683.911,393.419 686.5,392.5 Z"/></g>
<g><path style="opacity:1" fill="#babbba" d="M 542.5,394.5 C 548.5,393.167 554.5,393.167 560.5,394.5C 554.974,394.179 549.64,394.512 544.5,395.5C 544.167,395.5 543.833,395.5 543.5,395.5C 543.5,394.833 543.167,394.5 542.5,394.5 Z"/></g>
<g><path style="opacity:1" fill="#696a69" d="M 530.5,395.5 C 529.194,395.879 527.861,396.212 526.5,396.5C 526.167,431 525.833,465.5 525.5,500C 525.336,534.976 525.836,569.81 527,604.5C 546.806,604.113 566.473,604.113 586,604.5C 586.75,603.874 587.584,603.374 588.5,603C 588.392,534.796 588.392,465.963 588.5,396.5C 589.499,465.665 589.833,534.998 589.5,604.5C 567.833,605.833 546.167,605.833 524.5,604.5C 524.5,534.833 524.5,465.167 524.5,395.5C 526.611,394.258 528.611,394.258 530.5,395.5 Z"/></g>
<g><path style="opacity:1" fill="#696a69" d="M 542.5,394.5 C 543.167,394.5 543.5,394.833 543.5,395.5C 542.469,396.249 541.302,396.915 540,397.5C 538.333,397.5 536.667,397.5 535,397.5C 533.378,396.901 531.878,396.234 530.5,395.5C 534.484,395.688 538.484,395.354 542.5,394.5 Z"/></g>
<g><path style="opacity:1" fill="#696a69" d="M 560.5,394.5 C 564.254,395.301 568.254,395.634 572.5,395.5C 561.807,396.12 552.473,396.12 544.5,395.5C 549.64,394.512 554.974,394.179 560.5,394.5 Z"/></g>
<g><path style="opacity:1" fill="#696a69" d="M 587.5,394.5 C 587.833,395.167 588.167,395.833 588.5,396.5C 583.341,396.551 578.341,396.218 573.5,395.5C 577.97,394.514 582.637,394.181 587.5,394.5 Z"/></g>
<g><path style="opacity:1" fill="#babbba" d="M 587.5,394.5 C 588.496,394.414 589.329,394.748 590,395.5C 590.832,465.335 590.665,535.001 589.5,604.5C 589.833,534.998 589.499,465.665 588.5,396.5C 588.167,395.833 587.833,395.167 587.5,394.5 Z"/></g>
<g><path style="opacity:1" fill="#babbba" d="M 524.5,395.5 C 524.5,465.167 524.5,534.833 524.5,604.5C 523.751,603.469 523.085,602.302 522.5,601C 523.588,533.578 523.588,466.245 522.5,399C 523.085,397.698 523.751,396.531 524.5,395.5 Z"/></g>
<g><path style="opacity:1" fill="#1e1f18" d="M 530.5,395.5 C 531.878,396.234 533.378,396.901 535,397.5C 536.667,397.5 538.333,397.5 540,397.5C 541.302,396.915 542.469,396.249 543.5,395.5C 543.833,395.5 544.167,395.5 544.5,395.5C 552.473,396.12 561.807,396.12 572.5,395.5C 572.833,395.5 573.167,395.5 573.5,395.5C 578.341,396.218 583.341,396.551 588.5,396.5C 588.392,465.963 588.392,534.796 588.5,603C 587.584,603.374 586.75,603.874 586,604.5C 566.473,604.113 546.806,604.113 527,604.5C 525.836,569.81 525.336,534.976 525.5,500C 525.833,465.5 526.167,431 526.5,396.5C 527.861,396.212 529.194,395.879 530.5,395.5 Z"/></g>
<g><path style="opacity:1" fill="#696a69" d="M 680.5,397.5 C 677.167,401.167 673.833,404.833 670.5,408.5C 672.442,403.559 675.775,399.892 680.5,397.5 Z"/></g>
<g><path style="opacity:1" fill="#696a69" d="M 771.5,397.5 C 773.5,397.5 774.5,398.5 774.5,400.5C 772.81,400.144 771.81,399.144 771.5,397.5 Z"/></g>
<g><path style="opacity:1" fill="#a1a1a1" d="M 319.5,397.5 C 318.5,399.167 317.167,400.5 315.5,401.5C 314.167,402.5 312.833,403.5 311.5,404.5C 312.905,400.764 315.571,398.431 319.5,397.5 Z"/></g>
<g><path style="opacity:1" fill="#696a69" d="M 413.5,399.5 C 417.262,402.929 420.262,406.929 422.5,411.5C 418.738,408.071 415.738,404.071 413.5,399.5 Z"/></g>
<g><path style="opacity:1" fill="#696a69" d="M 774.5,400.5 C 776.5,400.5 777.5,401.5 777.5,403.5C 775.81,403.144 774.81,402.144 774.5,400.5 Z"/></g>
<g><path style="opacity:1" fill="#696a69" d="M 315.5,401.5 C 313.206,405.127 310.54,408.461 307.5,411.5C 308.569,409.031 309.902,406.698 311.5,404.5C 312.833,403.5 314.167,402.5 315.5,401.5 Z"/></g>
<g><path style="opacity:1" fill="#696a69" d="M 777.5,403.5 C 781.707,406.886 784.707,411.219 786.5,416.5C 783.266,412.378 780.266,408.045 777.5,403.5 Z"/></g>
<g><path style="opacity:1" fill="#696a69" d="M 670.5,408.5 C 669.331,411.511 667.664,414.178 665.5,416.5C 666.151,413.197 667.818,410.53 670.5,408.5 Z"/></g>
<g><path style="opacity:1" fill="#696a69" d="M 307.5,411.5 C 297.123,430.869 295.789,450.869 303.5,471.5C 301.837,469.507 300.67,467.174 300,464.5C 299.269,460.435 298.435,456.435 297.5,452.5C 297.5,447.5 297.5,442.5 297.5,437.5C 298.695,427.9 302.028,419.233 307.5,411.5 Z"/></g>
<g><path style="opacity:1" fill="#696a69" d="M 422.5,411.5 C 427.493,418.286 430.659,425.953 432,434.5C 435.494,456.846 429.328,475.846 413.5,491.5C 417.842,485.317 422.008,478.983 426,472.5C 434.251,451.915 433.084,431.582 422.5,411.5 Z"/></g>
<g><path style="opacity:1" fill="#696a69" d="M 665.5,416.5 C 659.166,430.63 657.333,444.963 660,459.5C 661.41,464.559 662.91,469.559 664.5,474.5C 663.5,473.167 662.5,471.833 661.5,470.5C 657.552,458.045 656.552,445.045 658.5,431.5C 659.924,429.485 660.59,427.152 660.5,424.5C 662.171,421.796 663.837,419.129 665.5,416.5 Z"/></g>
<g><path style="opacity:1" fill="#767676" d="M 786.5,416.5 C 787.586,416.62 788.253,417.287 788.5,418.5C 789.467,420.762 790.134,423.095 790.5,425.5C 788.964,422.933 787.298,420.433 785.5,418C 786.056,417.617 786.389,417.117 786.5,416.5 Z"/></g>
<g><path style="opacity:1" fill="#babbba" d="M 660.5,424.5 C 660.59,427.152 659.924,429.485 658.5,431.5C 658.41,428.848 659.076,426.515 660.5,424.5 Z"/></g>
<g><path style="opacity:1" fill="#696a69" d="M 790.5,425.5 C 791.167,426.5 791.833,427.5 792.5,428.5C 792.5,429.833 792.5,431.167 792.5,432.5C 791.711,432.217 791.044,431.717 790.5,431C 790.351,429.184 790.351,427.351 790.5,425.5 Z"/></g>
<g><path style="opacity:1" fill="#babbba" d="M 792.5,428.5 C 794.011,431.544 794.678,434.878 794.5,438.5C 793.833,436.833 793.167,435.167 792.5,433.5C 792.5,433.167 792.5,432.833 792.5,432.5C 792.5,431.167 792.5,429.833 792.5,428.5 Z"/></g>
<g><path style="opacity:1" fill="#696a69" d="M 792.5,433.5 C 793.167,435.167 793.833,436.833 794.5,438.5C 794.819,443.363 794.486,448.03 793.5,452.5C 792.939,446.838 792.272,440.838 791.5,434.5C 791.624,433.893 791.957,433.56 792.5,433.5 Z"/></g>
<g><path style="opacity:1" fill="#babbba" d="M 297.5,437.5 C 297.5,442.5 297.5,447.5 297.5,452.5C 296.751,451.469 296.085,450.302 295.5,449C 296.833,445.667 296.833,442.333 295.5,439C 296.044,438.283 296.711,437.783 297.5,437.5 Z"/></g>
<g><path style="opacity:1" fill="#a2a2a2" d="M 793.5,453.5 C 794.71,456.93 794.376,460.263 792.5,463.5C 792.5,461.833 792.5,460.167 792.5,458.5C 791.739,456.741 792.072,455.074 793.5,453.5 Z"/></g>
<g><path style="opacity:1" fill="#696a69" d="M 792.5,458.5 C 792.5,460.167 792.5,461.833 792.5,463.5C 791.359,466.254 790.025,468.921 788.5,471.5C 789.384,466.946 790.717,462.613 792.5,458.5 Z"/></g>
<g><path style="opacity:1" fill="#afafaf" d="M 661.5,470.5 C 662.5,471.833 663.5,473.167 664.5,474.5C 665.338,474.842 665.672,475.508 665.5,476.5C 665.5,477.167 665.5,477.833 665.5,478.5C 663.127,476.421 661.794,473.754 661.5,470.5 Z"/></g>
<g><path style="opacity:1" fill="#696a69" d="M 303.5,471.5 C 305.83,475.492 308.163,479.492 310.5,483.5C 306.638,480.45 304.305,476.45 303.5,471.5 Z"/></g>
<g><path style="opacity:1" fill="#696a69" d="M 788.5,471.5 C 786.682,477.806 783.349,483.14 778.5,487.5C 781.849,482.126 785.183,476.792 788.5,471.5 Z"/></g>
<g><path style="opacity:1" fill="#696a69" d="M 665.5,476.5 C 668.323,479.475 670.656,482.808 672.5,486.5C 669.421,484.425 667.088,481.758 665.5,478.5C 665.5,477.833 665.5,477.167 665.5,476.5 Z"/></g>
<g><path style="opacity:1" fill="#767676" d="M 310.5,483.5 C 315.188,488.52 319.855,493.52 324.5,498.5C 319.893,495.069 315.393,491.403 311,487.5C 310.51,486.207 310.343,484.873 310.5,483.5 Z"/></g>
<g><path style="opacity:1" fill="#696a69" d="M 778.5,487.5 C 778.267,489.062 777.6,490.395 776.5,491.5C 774.833,492.833 773.167,494.167 771.5,495.5C 773.146,492.19 775.48,489.523 778.5,487.5 Z"/></g>
<g><path style="opacity:1" fill="#9b9b9b" d="M 672.5,486.5 C 675.471,489.808 678.471,493.141 681.5,496.5C 681.833,497.167 682.167,497.833 682.5,498.5C 677.345,496.012 674.012,492.012 672.5,486.5 Z"/></g>
<g><path style="opacity:1" fill="#696a69" d="M 413.5,491.5 C 413.106,493.71 411.773,495.043 409.5,495.5C 410.167,493.5 411.5,492.167 413.5,491.5 Z"/></g>
<g><path style="opacity:1" fill="#babbba" d="M 776.5,491.5 C 775.5,494.5 773.5,496.5 770.5,497.5C 770.833,496.833 771.167,496.167 771.5,495.5C 773.167,494.167 774.833,492.833 776.5,491.5 Z"/></g>
<g><path style="opacity:1" fill="#696a69" d="M 409.5,495.5 C 408.109,497.89 406.109,499.557 403.5,500.5C 404.405,498.089 405.905,496.089 408,494.5C 408.383,495.056 408.883,495.389 409.5,495.5 Z"/></g>
<g><path style="opacity:1" fill="#696a69" d="M 771.5,495.5 C 771.167,496.167 770.833,496.833 770.5,497.5C 766.862,499.99 763.195,502.49 759.5,505C 758.552,505.483 757.552,505.649 756.5,505.5C 760.904,501.458 765.904,498.124 771.5,495.5 Z"/></g>
<g><path style="opacity:1" fill="#696a69" d="M 681.5,496.5 C 687.432,499.916 693.265,503.582 699,507.5C 699.333,507.167 699.667,506.833 700,506.5C 702.667,507.833 705.333,509.167 708,510.5C 710,511.833 712,511.833 714,510.5C 715.333,511.167 716.667,511.833 718,512.5C 723.333,512.5 728.667,512.5 734,512.5C 736.725,511.128 739.391,510.128 742,509.5C 742.333,509.833 742.667,510.167 743,510.5C 747.21,508.877 751.21,506.877 755,504.5C 755.383,505.056 755.883,505.389 756.5,505.5C 752.872,508.055 748.872,510.055 744.5,511.5C 741.933,511.721 739.599,512.388 737.5,513.5C 718.711,516.532 700.378,511.532 682.5,498.5C 682.167,497.833 681.833,497.167 681.5,496.5 Z"/></g>
<g><path style="opacity:1" fill="#696a69" d="M 346.5,510.5 C 337.952,508.562 330.618,504.562 324.5,498.5C 325.117,498.389 325.617,498.056 326,497.5C 328.489,499.946 331.155,502.28 334,504.5C 334.333,504.167 334.667,503.833 335,503.5C 335.317,505.301 335.984,505.634 337,504.5C 337.317,506.301 337.984,506.634 339,505.5C 339.317,507.301 339.984,507.634 341,506.5C 342.137,507.364 343.47,508.364 345,509.5C 346.107,508.288 346.607,508.621 346.5,510.5 Z"/></g>
<g><path style="opacity:1" fill="#696a69" d="M 403.5,500.5 C 397.412,505.211 390.745,508.878 383.5,511.5C 380.572,511.565 377.905,512.232 375.5,513.5C 375.167,513.5 374.833,513.5 374.5,513.5C 374.565,513.062 374.399,512.728 374,512.5C 372.052,513.109 370.218,513.776 368.5,514.5C 365.618,514.264 362.784,514.264 360,514.5C 358.333,513.833 356.667,513.167 355,512.5C 354.667,512.833 354.333,513.167 354,513.5C 351.244,512.93 348.744,511.93 346.5,510.5C 347.117,510.389 347.617,510.056 348,509.5C 351.28,510.095 354.613,511.095 358,512.5C 362.333,512.5 366.667,512.5 371,512.5C 372.667,511.833 374.333,511.167 376,510.5C 376.333,510.833 376.667,511.167 377,511.5C 378.705,510.237 380.372,509.903 382,510.5C 382.853,508.875 383.853,508.542 385,509.5C 385.853,507.875 386.853,507.542 388,508.5C 388.317,506.699 388.984,506.366 390,507.5C 391.827,506.341 393.493,505.008 395,503.5C 395.333,503.833 395.667,504.167 396,504.5C 398.139,502.965 400.139,501.299 402,499.5C 402.383,500.056 402.883,500.389 403.5,500.5 Z"/></g>
<g><path style="opacity:1" fill="#babbba" d="M 383.5,511.5 C 381.172,512.718 378.672,513.718 376,514.5C 375.601,514.272 375.435,513.938 375.5,513.5C 377.905,512.232 380.572,511.565 383.5,511.5 Z"/></g>
<g><path style="opacity:1" fill="#babbba" d="M 744.5,511.5 C 742.562,513.163 740.228,513.829 737.5,513.5C 739.599,512.388 741.933,511.721 744.5,511.5 Z"/></g>
<g><path style="opacity:1" fill="#babbba" d="M 374.5,513.5 C 372.556,514.828 370.556,515.161 368.5,514.5C 370.218,513.776 372.052,513.109 374,512.5C 374.399,512.728 374.565,513.062 374.5,513.5 Z"/></g>
<g><path style="opacity:1" fill="#696a69" d="M 238.5,528.5 C 237.5,529.833 236.5,529.833 235.5,528.5C 236.5,527.167 237.5,527.167 238.5,528.5 Z"/></g>
<g><path style="opacity:1" fill="#696a69" d="M 242.5,528.5 C 241.5,529.833 240.5,529.833 239.5,528.5C 240.5,527.167 241.5,527.167 242.5,528.5 Z"/></g>
<g><path style="opacity:1" fill="#696a69" d="M 246.5,528.5 C 245.5,529.833 244.5,529.833 243.5,528.5C 244.5,527.167 245.5,527.167 246.5,528.5 Z"/></g>
<g><path style="opacity:1" fill="#696a69" d="M 250.5,528.5 C 249.5,529.833 248.5,529.833 247.5,528.5C 248.5,527.167 249.5,527.167 250.5,528.5 Z"/></g>
<g><path style="opacity:1" fill="#696a69" d="M 253.5,528.5 C 252.833,529.833 252.167,529.833 251.5,528.5C 252.167,527.167 252.833,527.167 253.5,528.5 Z"/></g>
<g><path style="opacity:1" fill="#696a69" d="M 259.5,528.5 C 257.833,529.833 256.167,529.833 254.5,528.5C 256.167,527.167 257.833,527.167 259.5,528.5 Z"/></g>
<g><path style="opacity:1" fill="#696a69" d="M 264.5,528.5 C 263.167,529.833 261.833,529.833 260.5,528.5C 261.833,527.167 263.167,527.167 264.5,528.5 Z"/></g>
<g><path style="opacity:1" fill="#696a69" d="M 267.5,528.5 C 266.833,529.833 266.167,529.833 265.5,528.5C 266.167,527.167 266.833,527.167 267.5,528.5 Z"/></g>
<g><path style="opacity:1" fill="#696a69" d="M 270.5,528.5 C 269.833,529.833 269.167,529.833 268.5,528.5C 269.167,527.167 269.833,527.167 270.5,528.5 Z"/></g>
<g><path style="opacity:1" fill="#696a69" d="M 273.5,528.5 C 272.833,529.833 272.167,529.833 271.5,528.5C 272.167,527.167 272.833,527.167 273.5,528.5 Z"/></g>
<g><path style="opacity:1" fill="#696a69" d="M 276.5,528.5 C 275.833,529.833 275.167,529.833 274.5,528.5C 275.167,527.167 275.833,527.167 276.5,528.5 Z"/></g>
<g><path style="opacity:1" fill="#696a69" d="M 279.5,528.5 C 278.833,529.833 278.167,529.833 277.5,528.5C 278.167,527.167 278.833,527.167 279.5,528.5 Z"/></g>
<g><path style="opacity:1" fill="#696a69" d="M 282.5,528.5 C 281.833,529.833 281.167,529.833 280.5,528.5C 281.167,527.167 281.833,527.167 282.5,528.5 Z"/></g>
<g><path style="opacity:1" fill="#696a69" d="M 285.5,528.5 C 284.833,529.833 284.167,529.833 283.5,528.5C 284.167,527.167 284.833,527.167 285.5,528.5 Z"/></g>
<g><path style="opacity:1" fill="#696a69" d="M 288.5,528.5 C 287.833,529.833 287.167,529.833 286.5,528.5C 287.167,527.167 287.833,527.167 288.5,528.5 Z"/></g>
<g><path style="opacity:1" fill="#696a69" d="M 291.5,528.5 C 290.833,529.833 290.167,529.833 289.5,528.5C 290.167,527.167 290.833,527.167 291.5,528.5 Z"/></g>
<g><path style="opacity:1" fill="#696a69" d="M 294.5,528.5 C 293.833,529.833 293.167,529.833 292.5,528.5C 293.167,527.167 293.833,527.167 294.5,528.5 Z"/></g>
<g><path style="opacity:1" fill="#696a69" d="M 297.5,528.5 C 296.833,529.833 296.167,529.833 295.5,528.5C 296.167,527.167 296.833,527.167 297.5,528.5 Z"/></g>
<g><path style="opacity:1" fill="#696a69" d="M 300.5,528.5 C 299.833,529.833 299.167,529.833 298.5,528.5C 299.167,527.167 299.833,527.167 300.5,528.5 Z"/></g>
<g><path style="opacity:1" fill="#696a69" d="M 303.5,528.5 C 302.833,529.833 302.167,529.833 301.5,528.5C 302.167,527.167 302.833,527.167 303.5,528.5 Z"/></g>
<g><path style="opacity:1" fill="#696a69" d="M 306.5,528.5 C 305.833,529.833 305.167,529.833 304.5,528.5C 305.167,527.167 305.833,527.167 306.5,528.5 Z"/></g>
<g><path style="opacity:1" fill="#696a69" d="M 309.5,528.5 C 308.833,529.833 308.167,529.833 307.5,528.5C 308.167,527.167 308.833,527.167 309.5,528.5 Z"/></g>
<g><path style="opacity:1" fill="#696a69" d="M 312.5,528.5 C 311.833,529.833 311.167,529.833 310.5,528.5C 311.167,527.167 311.833,527.167 312.5,528.5 Z"/></g>
<g><path style="opacity:1" fill="#696a69" d="M 315.5,528.5 C 314.833,529.833 314.167,529.833 313.5,528.5C 314.167,527.167 314.833,527.167 315.5,528.5 Z"/></g>
<g><path style="opacity:1" fill="#696a69" d="M 321.5,528.5 C 319.833,529.833 318.167,529.833 316.5,528.5C 318.167,527.167 319.833,527.167 321.5,528.5 Z"/></g>
<g><path style="opacity:1" fill="#696a69" d="M 324.5,528.5 C 323.833,529.833 323.167,529.833 322.5,528.5C 323.167,527.167 323.833,527.167 324.5,528.5 Z"/></g>
<g><path style="opacity:1" fill="#696a69" d="M 330.5,528.5 C 328.833,529.833 327.167,529.833 325.5,528.5C 327.167,527.167 328.833,527.167 330.5,528.5 Z"/></g>
<g><path style="opacity:1" fill="#696a69" d="M 333.5,528.5 C 332.833,529.833 332.167,529.833 331.5,528.5C 332.167,527.167 332.833,527.167 333.5,528.5 Z"/></g>
<g><path style="opacity:1" fill="#696a69" d="M 336.5,528.5 C 335.833,529.833 335.167,529.833 334.5,528.5C 335.167,527.167 335.833,527.167 336.5,528.5 Z"/></g>
<g><path style="opacity:1" fill="#696a69" d="M 339.5,528.5 C 338.833,529.833 338.167,529.833 337.5,528.5C 338.167,527.167 338.833,527.167 339.5,528.5 Z"/></g>
<g><path style="opacity:1" fill="#696a69" d="M 342.5,528.5 C 341.833,529.833 341.167,529.833 340.5,528.5C 341.167,527.167 341.833,527.167 342.5,528.5 Z"/></g>
<g><path style="opacity:1" fill="#696a69" d="M 345.5,528.5 C 344.833,529.833 344.167,529.833 343.5,528.5C 344.167,527.167 344.833,527.167 345.5,528.5 Z"/></g>
<g><path style="opacity:1" fill="#696a69" d="M 348.5,528.5 C 347.833,529.833 347.167,529.833 346.5,528.5C 347.167,527.167 347.833,527.167 348.5,528.5 Z"/></g>
<g><path style="opacity:1" fill="#696a69" d="M 351.5,528.5 C 350.833,529.833 350.167,529.833 349.5,528.5C 350.167,527.167 350.833,527.167 351.5,528.5 Z"/></g>
<g><path style="opacity:1" fill="#696a69" d="M 354.5,528.5 C 353.833,529.833 353.167,529.833 352.5,528.5C 353.167,527.167 353.833,527.167 354.5,528.5 Z"/></g>
<g><path style="opacity:1" fill="#696a69" d="M 357.5,528.5 C 356.833,529.833 356.167,529.833 355.5,528.5C 356.167,527.167 356.833,527.167 357.5,528.5 Z"/></g>
<g><path style="opacity:1" fill="#696a69" d="M 360.5,528.5 C 359.833,529.833 359.167,529.833 358.5,528.5C 359.167,527.167 359.833,527.167 360.5,528.5 Z"/></g>
<g><path style="opacity:1" fill="#696a69" d="M 363.5,528.5 C 362.833,529.833 362.167,529.833 361.5,528.5C 362.167,527.167 362.833,527.167 363.5,528.5 Z"/></g>
<g><path style="opacity:1" fill="#696a69" d="M 366.5,528.5 C 365.833,529.833 365.167,529.833 364.5,528.5C 365.167,527.167 365.833,527.167 366.5,528.5 Z"/></g>
<g><path style="opacity:1" fill="#696a69" d="M 369.5,528.5 C 368.833,529.833 368.167,529.833 367.5,528.5C 368.167,527.167 368.833,527.167 369.5,528.5 Z"/></g>
<g><path style="opacity:1" fill="#696a69" d="M 372.5,528.5 C 371.833,529.833 371.167,529.833 370.5,528.5C 371.167,527.167 371.833,527.167 372.5,528.5 Z"/></g>
<g><path style="opacity:1" fill="#696a69" d="M 375.5,528.5 C 374.833,529.833 374.167,529.833 373.5,528.5C 374.167,527.167 374.833,527.167 375.5,528.5 Z"/></g>
<g><path style="opacity:1" fill="#696a69" d="M 378.5,528.5 C 377.833,529.833 377.167,529.833 376.5,528.5C 377.167,527.167 377.833,527.167 378.5,528.5 Z"/></g>
<g><path style="opacity:1" fill="#696a69" d="M 381.5,528.5 C 380.833,529.833 380.167,529.833 379.5,528.5C 380.167,527.167 380.833,527.167 381.5,528.5 Z"/></g>
<g><path style="opacity:1" fill="#696a69" d="M 384.5,528.5 C 383.833,529.833 383.167,529.833 382.5,528.5C 383.167,527.167 383.833,527.167 384.5,528.5 Z"/></g>
<g><path style="opacity:1" fill="#696a69" d="M 387.5,528.5 C 386.833,529.833 386.167,529.833 385.5,528.5C 386.167,527.167 386.833,527.167 387.5,528.5 Z"/></g>
<g><path style="opacity:1" fill="#696a69" d="M 390.5,528.5 C 389.833,529.833 389.167,529.833 388.5,528.5C 389.167,527.167 389.833,527.167 390.5,528.5 Z"/></g>
<g><path style="opacity:1" fill="#707070" d="M 411.5,528.5 C 404.281,529.6 397.614,529.6 391.5,528.5C 391.811,527.522 392.478,526.855 393.5,526.5C 399.631,527.129 405.631,527.795 411.5,528.5 Z"/></g>
<g><path style="opacity:1" fill="#696a69" d="M 415.5,528.5 C 414.5,529.833 413.5,529.833 412.5,528.5C 413.5,527.167 414.5,527.167 415.5,528.5 Z"/></g>
<g><path style="opacity:1" fill="#696a69" d="M 419.5,528.5 C 418.5,529.833 417.5,529.833 416.5,528.5C 417.5,527.167 418.5,527.167 419.5,528.5 Z"/></g>
<g><path style="opacity:1" fill="#696a69" d="M 423.5,528.5 C 424.288,547.529 424.288,566.529 423.5,585.5C 406.716,585.244 389.883,585.577 373,586.5C 369.323,586.028 365.823,585.362 362.5,584.5C 381.328,583.459 401.328,583.459 422.5,584.5C 423.035,574.955 423.368,565.455 423.5,556C 422.833,554.667 422.167,553.333 421.5,552C 421.96,544.689 422.293,537.356 422.5,530C 421.584,529.722 420.918,529.222 420.5,528.5C 421.202,527.884 422.202,527.884 423.5,528.5 Z"/></g>
<g><path style="opacity:1" fill="#babbba" d="M 423.5,528.5 C 425.104,546.649 425.604,564.983 425,583.5C 424.722,584.416 424.222,585.082 423.5,585.5C 424.288,566.529 424.288,547.529 423.5,528.5 Z"/></g>
<g><path style="opacity:1" fill="#6b6b6b" d="M 340.5,584.5 C 311.14,585.178 281.64,585.845 252,586.5C 221.699,585.184 191.199,585.184 160.5,586.5C 160.5,586.167 160.5,585.833 160.5,585.5C 162.352,584.911 164.185,584.244 166,583.5C 223.796,583.833 281.962,584.166 340.5,584.5 Z"/></g>
<g><path style="opacity:1" fill="#696a69" d="M 345.5,584.5 C 344.167,585.833 342.833,585.833 341.5,584.5C 342.833,583.167 344.167,583.167 345.5,584.5 Z"/></g>
<g><path style="opacity:1" fill="#696a69" d="M 350.5,584.5 C 349.167,585.833 347.833,585.833 346.5,584.5C 347.833,583.167 349.167,583.167 350.5,584.5 Z"/></g>
<g><path style="opacity:1" fill="#696a69" d="M 361.5,584.5 C 358.167,585.833 354.833,585.833 351.5,584.5C 354.833,583.167 358.167,583.167 361.5,584.5 Z"/></g>
<g><path style="opacity:1" fill="#babbba" d="M 237.5,647.5 C 241.646,646.353 245.98,646.186 250.5,647C 251.056,647.383 251.389,647.883 251.5,648.5C 246.897,647.617 242.23,647.283 237.5,647.5 Z"/></g>
<g><path style="opacity:1" fill="#696a69" d="M 836.5,647.5 C 834.619,647.544 832.785,647.878 831,648.5C 827.253,669.524 820.753,689.524 811.5,708.5C 811.629,706.784 811.962,705.117 812.5,703.5C 818.226,690.988 822.56,677.988 825.5,664.5C 826.924,662.485 827.59,660.152 827.5,657.5C 828.223,654.178 829.057,650.845 830,647.5C 832.274,646.189 834.44,646.189 836.5,647.5 Z"/></g>
<g><path style="opacity:1" fill="#696a69" d="M 838.5,646.5 C 842.833,647.167 847.167,647.833 851.5,648.5C 848.296,648.543 845.13,648.876 842,649.5C 840.378,648.901 838.878,648.234 837.5,647.5C 837.5,646.833 837.833,646.5 838.5,646.5 Z"/></g>
<g><path style="opacity:1" fill="#babbba" d="M 838.5,646.5 C 843.695,646.179 848.695,646.513 853.5,647.5C 852.833,647.5 852.5,647.833 852.5,648.5C 852.167,648.5 851.833,648.5 851.5,648.5C 847.167,647.833 842.833,647.167 838.5,646.5 Z"/></g>
<g><path style="opacity:1" fill="#696a69" d="M 235.5,647.5 C 236.167,647.5 236.833,647.5 237.5,647.5C 242.23,647.283 246.897,647.617 251.5,648.5C 251.882,653.092 252.882,657.425 254.5,661.5C 256.364,670.622 258.697,679.622 261.5,688.5C 259.147,684.282 257.147,679.782 255.5,675C 256.458,673.853 256.125,672.853 254.5,672C 254.833,671.667 255.167,671.333 255.5,671C 253.115,663.962 251.115,656.795 249.5,649.5C 243.144,648.22 236.144,648.22 228.5,649.5C 230.833,648.833 233.167,648.167 235.5,647.5 Z"/></g>
<g><path style="opacity:1" fill="#1f1f19" d="M 836.5,647.5 C 836.833,647.5 837.167,647.5 837.5,647.5C 838.878,648.234 840.378,648.901 842,649.5C 845.13,648.876 848.296,648.543 851.5,648.5C 851.833,648.5 852.167,648.5 852.5,648.5C 856.044,650.569 859.71,650.902 863.5,649.5C 864.5,650.833 865.5,650.833 866.5,649.5C 868.218,650.224 870.052,650.891 872,651.5C 872.399,651.272 872.565,650.938 872.5,650.5C 876.218,650.603 879.885,650.603 883.5,650.5C 885.138,651.159 886.805,651.826 888.5,652.5C 890.215,652.405 891.881,652.072 893.5,651.5C 893.833,651.5 894.167,651.5 894.5,651.5C 895.5,652.833 896.5,652.833 897.5,651.5C 897.833,651.5 898.167,651.5 898.5,651.5C 900.893,652.21 903.393,652.877 906,653.5C 906.399,653.272 906.565,652.938 906.5,652.5C 906.833,652.5 907.167,652.5 907.5,652.5C 910.689,653.166 914.023,653.833 917.5,654.5C 917.863,655.183 918.196,655.85 918.5,656.5C 915.43,668.089 912.264,680.089 909,692.5C 906.751,700.25 903.918,707.75 900.5,715C 901.056,715.383 901.389,715.883 901.5,716.5C 895.286,729.271 889.286,742.271 883.5,755.5C 872.002,774.498 860.002,793.165 847.5,811.5C 845.14,812.865 843.473,814.865 842.5,817.5C 839.409,820.124 836.409,822.957 833.5,826C 834.056,826.383 834.389,826.883 834.5,827.5C 823.804,838.032 813.137,848.865 802.5,860C 794.63,866.045 787.297,872.545 780.5,879.5C 776.935,880.41 774.268,882.41 772.5,885.5C 765.223,890.145 757.89,894.812 750.5,899.5C 749.702,899.957 749.369,900.624 749.5,901.5C 748.448,901.351 747.448,901.517 746.5,902C 740.28,906.088 734.28,910.254 728.5,914.5C 727.883,914.389 727.383,914.056 727,913.5C 724.086,915.178 721.586,917.178 719.5,919.5C 718.883,919.389 718.383,919.056 718,918.5C 713.222,920.802 708.722,923.468 704.5,926.5C 703.075,924.969 702.409,925.302 702.5,927.5C 701.883,927.389 701.383,927.056 701,926.5C 698.594,928.087 696.428,929.753 694.5,931.5C 693.883,931.389 693.383,931.056 693,930.5C 690.03,932.084 687.197,933.751 684.5,935.5C 676.529,937.761 669.029,940.428 662,943.5C 660.853,942.542 659.853,942.875 659,944.5C 658.667,944.167 658.333,943.833 658,943.5C 648.227,947.159 638.894,950.159 630,952.5C 628.687,951.713 627.52,952.046 626.5,953.5C 623.712,953.085 621.045,953.751 618.5,955.5C 615.663,955.435 612.83,955.435 610,955.5C 608.698,956.085 607.531,956.751 606.5,957.5C 605.883,957.389 605.383,957.056 605,956.5C 601.162,957.853 597.495,958.853 594,959.5C 590.333,959.5 586.667,959.5 583,959.5C 582,960.167 581,960.833 580,961.5C 576.744,961.402 573.41,961.068 570,960.5C 564.342,961.485 558.842,962.485 553.5,963.5C 545.666,963.483 537.833,963.483 530,963.5C 523.905,963.018 517.905,962.018 512,960.5C 507.927,960.297 503.594,960.63 499,961.5C 497.667,960.833 496.333,960.167 495,959.5C 494,959.833 493,960.167 492,960.5C 490.667,959.833 489.333,959.167 488,958.5C 485.333,958.5 482.667,958.5 480,958.5C 473.273,956.419 466.607,954.752 460,953.5C 458.372,954.097 456.705,953.763 455,952.5C 454.667,952.833 454.333,953.167 454,953.5C 450.824,952.644 447.49,951.311 444,949.5C 443.667,949.833 443.333,950.167 443,950.5C 438.298,948.933 433.298,947.266 428,945.5C 427.667,945.833 427.333,946.167 427,946.5C 391.537,934.442 357.37,918.442 324.5,898.5C 313.721,890.26 303.054,881.76 292.5,873C 290.922,871.906 289.255,871.072 287.5,870.5C 286.101,867.436 283.768,865.436 280.5,864.5C 272.224,855.722 263.724,847.056 255,838.5C 246.997,828.999 238.83,819.666 230.5,810.5C 228.262,805.929 225.262,801.929 221.5,798.5C 218.944,792.951 215.61,787.951 211.5,783.5C 209.618,778.632 206.952,774.299 203.5,770.5C 203.672,769.508 203.338,768.842 202.5,768.5C 197.418,758.002 192.085,747.669 186.5,737.5C 175.468,711.902 167.135,685.402 161.5,658C 161.585,656.893 161.919,655.893 162.5,655C 165.695,654.819 168.695,654.319 171.5,653.5C 174.169,654.181 176.835,653.848 179.5,652.5C 181.833,653.833 184.167,653.833 186.5,652.5C 188.164,653.223 189.831,652.89 191.5,651.5C 193.167,652.833 194.833,652.833 196.5,651.5C 196.833,651.5 197.167,651.5 197.5,651.5C 198.833,652.833 200.167,652.833 201.5,651.5C 201.833,651.5 202.167,651.5 202.5,651.5C 203.216,651.783 204.049,652.116 205,652.5C 206.622,651.901 208.122,651.234 209.5,650.5C 209.833,650.5 210.167,650.5 210.5,650.5C 211.167,651.833 211.833,651.833 212.5,650.5C 212.833,650.5 213.167,650.5 213.5,650.5C 216.22,650.75 219.053,651.083 222,651.5C 224.29,650.174 226.457,649.508 228.5,649.5C 236.144,648.22 243.144,648.22 249.5,649.5C 251.115,656.795 253.115,663.962 255.5,671C 255.167,671.333 254.833,671.667 254.5,672C 256.125,672.853 256.458,673.853 255.5,675C 257.147,679.782 259.147,684.282 261.5,688.5C 266.785,705.431 274.118,721.764 283.5,737.5C 283.957,738.298 284.624,738.631 285.5,738.5C 285.389,739.117 285.056,739.617 284.5,740C 285.949,741.102 287.282,742.269 288.5,743.5C 288.738,745.404 289.738,746.738 291.5,747.5C 291.845,750.198 293.178,752.198 295.5,753.5C 295.554,755.632 296.554,756.965 298.5,757.5C 298.285,759.179 298.952,760.179 300.5,760.5C 302.228,764.643 304.894,767.976 308.5,770.5C 315.112,779.333 322.445,787.666 330.5,795.5C 331.325,796.386 332.325,796.719 333.5,796.5C 338.431,802.098 343.764,807.431 349.5,812.5C 353.31,815.484 357.31,818.151 361.5,820.5C 362.035,822.446 363.368,823.446 365.5,823.5C 367.296,825.9 369.63,827.567 372.5,828.5C 374.34,830.669 376.674,832.002 379.5,832.5C 382.812,835.259 386.312,837.925 390,840.5C 391.016,839.366 391.683,839.699 392,841.5C 392.333,841.167 392.667,840.833 393,840.5C 396.177,843.672 400.01,845.672 404.5,846.5C 407.057,848.607 410.057,849.941 413.5,850.5C 413.393,852.379 413.893,852.712 415,851.5C 417.126,853.377 419.626,854.377 422.5,854.5C 425.338,855.949 428.172,857.615 431,859.5C 431.383,858.944 431.883,858.611 432.5,858.5C 432.611,859.117 432.944,859.617 433.5,860C 443.386,863.095 453.219,866.261 463,869.5C 463.383,868.944 463.883,868.611 464.5,868.5C 465.665,870.109 466.999,870.443 468.5,869.5C 470.444,870.828 472.444,871.161 474.5,870.5C 477.077,871.972 479.911,872.972 483,873.5C 483.399,873.272 483.565,872.938 483.5,872.5C 483.833,872.5 484.167,872.5 484.5,872.5C 487.466,873.867 490.633,874.867 494,875.5C 494.399,875.272 494.565,874.938 494.5,874.5C 494.833,874.5 495.167,874.5 495.5,874.5C 497.369,876.208 499.369,876.542 501.5,875.5C 502.997,876.306 504.664,876.972 506.5,877.5C 507.107,877.376 507.44,877.043 507.5,876.5C 509.167,877.833 510.833,877.833 512.5,876.5C 513.995,878.345 515.662,878.678 517.5,877.5C 518.396,878.506 519.062,878.506 519.5,877.5C 519.833,877.5 520.167,877.5 520.5,877.5C 521.5,878.833 522.5,878.833 523.5,877.5C 523.833,877.5 524.167,877.5 524.5,877.5C 526.444,878.828 528.444,879.161 530.5,878.5C 538.833,879.833 547.167,879.833 555.5,878.5C 557.259,879.261 558.926,878.928 560.5,877.5C 560.833,877.5 561.167,877.5 561.5,877.5C 564.258,877.648 566.758,877.982 569,878.5C 571.277,877.883 573.444,877.216 575.5,876.5C 575.833,876.5 576.167,876.5 576.5,876.5C 577.979,877.148 579.479,877.481 581,877.5C 581.995,876.934 582.828,876.267 583.5,875.5C 583.833,875.5 584.167,875.5 584.5,875.5C 585.216,875.783 586.049,876.116 587,876.5C 589.672,875.718 592.172,874.718 594.5,873.5C 595.117,873.611 595.617,873.944 596,874.5C 599.367,873.867 602.534,872.867 605.5,871.5C 605.833,871.5 606.167,871.5 606.5,871.5C 606.435,871.938 606.601,872.272 607,872.5C 610.089,871.972 612.923,870.972 615.5,869.5C 617.83,870.28 619.83,869.613 621.5,867.5C 621.833,867.5 622.167,867.5 622.5,867.5C 622.435,867.938 622.601,868.272 623,868.5C 628.793,866.592 634.626,864.759 640.5,863C 644.97,861.928 648.97,860.094 652.5,857.5C 654.38,857.771 655.713,857.104 656.5,855.5C 666.075,853.04 674.741,849.04 682.5,843.5C 688.446,841.529 693.779,838.529 698.5,834.5C 701.704,833.617 704.371,831.95 706.5,829.5C 708.027,829.573 709.027,828.906 709.5,827.5C 711.179,827.715 712.179,827.048 712.5,825.5C 715.778,824.191 718.778,822.358 721.5,820C 725.738,816.583 729.738,813.083 733.5,809.5C 745.378,800.13 756.544,789.796 767,778.5C 770.796,774.551 773.963,770.217 776.5,765.5C 780.262,762.071 783.262,758.071 785.5,753.5C 787.451,752.284 788.951,750.618 790,748.5C 792.446,744.606 794.612,740.606 796.5,736.5C 800.093,732.414 802.76,727.747 804.5,722.5C 807.874,718.419 810.207,713.753 811.5,708.5C 820.753,689.524 827.253,669.524 831,648.5C 832.785,647.878 834.619,647.544 836.5,647.5 Z"/></g>
<g><path style="opacity:1" fill="#696a69" d="M 853.5,647.5 C 856.833,648.167 860.167,648.833 863.5,649.5C 859.71,650.902 856.044,650.569 852.5,648.5C 852.5,647.833 852.833,647.5 853.5,647.5 Z"/></g>
<g><path style="opacity:1" fill="#b2b2b2" d="M 853.5,647.5 C 858.032,647.182 862.366,647.515 866.5,648.5C 866.5,648.833 866.5,649.167 866.5,649.5C 865.5,650.833 864.5,650.833 863.5,649.5C 860.167,648.833 856.833,648.167 853.5,647.5 Z"/></g>
<g><path style="opacity:1" fill="#989898" d="M 235.5,647.5 C 233.167,648.167 230.833,648.833 228.5,649.5C 226.457,649.508 224.29,650.174 222,651.5C 219.053,651.083 216.22,650.75 213.5,650.5C 213.918,649.778 214.584,649.278 215.5,649C 222.136,648.048 228.803,647.548 235.5,647.5 Z"/></g>
<g><path style="opacity:1" fill="#babbba" d="M 251.5,648.5 C 253.373,652.515 254.373,656.849 254.5,661.5C 252.882,657.425 251.882,653.092 251.5,648.5 Z"/></g>
<g><path style="opacity:1" fill="#696a69" d="M 866.5,648.5 C 867.167,648.5 867.833,648.5 868.5,648.5C 869.833,649.167 871.167,649.833 872.5,650.5C 872.565,650.938 872.399,651.272 872,651.5C 870.052,650.891 868.218,650.224 866.5,649.5C 866.5,649.167 866.5,648.833 866.5,648.5 Z"/></g>
<g><path style="opacity:1" fill="#a3a3a3" d="M 191.5,650.5 C 191.5,650.833 191.5,651.167 191.5,651.5C 189.831,652.89 188.164,653.223 186.5,652.5C 185.833,652.5 185.5,652.167 185.5,651.5C 187.218,650.776 189.052,650.109 191,649.5C 191.399,649.728 191.565,650.062 191.5,650.5 Z"/></g>
<g><path style="opacity:1" fill="#959595" d="M 209.5,650.5 C 208.122,651.234 206.622,651.901 205,652.5C 204.049,652.116 203.216,651.783 202.5,651.5C 203.312,650.007 204.645,649.34 206.5,649.5C 207.726,649.52 208.726,649.853 209.5,650.5 Z"/></g>
<g><path style="opacity:1" fill="#696a69" d="M 212.5,650.5 C 211.833,651.833 211.167,651.833 210.5,650.5C 211.167,649.167 211.833,649.167 212.5,650.5 Z"/></g>
<g><path style="opacity:1" fill="#8a8a8a" d="M 868.5,648.5 C 872.168,648.75 875.668,648.75 879,648.5C 880.585,649.044 882.085,649.711 883.5,650.5C 879.885,650.603 876.218,650.603 872.5,650.5C 871.167,649.833 869.833,649.167 868.5,648.5 Z"/></g>
<g><path style="opacity:1" fill="#909090" d="M 883.5,650.5 C 884.449,649.848 885.615,649.514 887,649.5C 889.674,649.944 891.841,650.611 893.5,651.5C 891.881,652.072 890.215,652.405 888.5,652.5C 886.805,651.826 885.138,651.159 883.5,650.5 Z"/></g>
<g><path style="opacity:1" fill="#babbba" d="M 908.5,651.5 C 907.833,651.5 907.5,651.833 907.5,652.5C 907.167,652.5 906.833,652.5 906.5,652.5C 904.833,651.833 903.167,651.167 901.5,650.5C 901.435,650.062 901.601,649.728 902,649.5C 904.277,650.117 906.444,650.784 908.5,651.5 Z"/></g>
<g><path style="opacity:1" fill="#acacac" d="M 180.5,651.5 C 180.5,652.167 180.167,652.5 179.5,652.5C 176.835,653.848 174.169,654.181 171.5,653.5C 167.833,653.5 164.167,653.5 160.5,653.5C 161.531,652.751 162.698,652.085 164,651.5C 169.461,652.013 174.961,652.013 180.5,651.5 Z"/></g>
<g><path style="opacity:1" fill="#696a69" d="M 191.5,650.5 C 193.374,650.474 195.04,650.807 196.5,651.5C 194.833,652.833 193.167,652.833 191.5,651.5C 191.5,651.167 191.5,650.833 191.5,650.5 Z"/></g>
<g><path style="opacity:1" fill="#696a69" d="M 201.5,651.5 C 200.167,652.833 198.833,652.833 197.5,651.5C 198.976,651.112 200.309,651.112 201.5,651.5 Z"/></g>
<g><path style="opacity:1" fill="#696a69" d="M 897.5,651.5 C 896.5,652.833 895.5,652.833 894.5,651.5C 895.5,651.5 896.5,651.5 897.5,651.5 Z"/></g>
<g><path style="opacity:1" fill="#696a69" d="M 901.5,650.5 C 903.167,651.167 904.833,651.833 906.5,652.5C 906.565,652.938 906.399,653.272 906,653.5C 903.393,652.877 900.893,652.21 898.5,651.5C 899.365,651.436 900.365,651.103 901.5,650.5 Z"/></g>
<g><path style="opacity:1" fill="#696a69" d="M 180.5,651.5 C 182.167,651.5 183.833,651.5 185.5,651.5C 185.5,652.167 185.833,652.5 186.5,652.5C 184.167,653.833 181.833,653.833 179.5,652.5C 180.167,652.5 180.5,652.167 180.5,651.5 Z"/></g>
<g><path style="opacity:1" fill="#696a69" d="M 908.5,651.5 C 910.882,651.598 913.382,651.598 916,651.5C 917.113,652.305 918.279,652.972 919.5,653.5C 919.737,654.791 919.404,655.791 918.5,656.5C 918.196,655.85 917.863,655.183 917.5,654.5C 914.023,653.833 910.689,653.166 907.5,652.5C 907.5,651.833 907.833,651.5 908.5,651.5 Z"/></g>
<g><path style="opacity:1" fill="#696a69" d="M 160.5,653.5 C 164.167,653.5 167.833,653.5 171.5,653.5C 168.695,654.319 165.695,654.819 162.5,655C 161.919,655.893 161.585,656.893 161.5,658C 167.135,685.402 175.468,711.902 186.5,737.5C 182.501,730.162 179.001,722.496 176,714.5C 172.361,703.751 168.861,693.084 165.5,682.5C 165.258,678.521 164.258,674.854 162.5,671.5C 161.901,666.267 160.901,661.101 159.5,656C 159.743,655.098 160.077,654.265 160.5,653.5 Z"/></g>
<g><path style="opacity:1" fill="#babbba" d="M 919.5,653.5 C 920.124,653.917 920.457,654.584 920.5,655.5C 920.036,658.349 919.369,661.016 918.5,663.5C 918.5,661.167 918.5,658.833 918.5,656.5C 919.404,655.791 919.737,654.791 919.5,653.5 Z"/></g>
<g><path style="opacity:1" fill="#696a69" d="M 918.5,656.5 C 918.5,658.833 918.5,661.167 918.5,663.5C 916.898,667.239 915.898,671.239 915.5,675.5C 913.898,679.239 912.898,683.239 912.5,687.5C 909.426,697.389 905.759,707.056 901.5,716.5C 901.389,715.883 901.056,715.383 900.5,715C 903.918,707.75 906.751,700.25 909,692.5C 912.264,680.089 915.43,668.089 918.5,656.5 Z"/></g>
<g><path style="opacity:1" fill="#babbba" d="M 827.5,657.5 C 827.59,660.152 826.924,662.485 825.5,664.5C 825.41,661.848 826.076,659.515 827.5,657.5 Z"/></g>
<g><path style="opacity:1" fill="#babbba" d="M 162.5,671.5 C 164.258,674.854 165.258,678.521 165.5,682.5C 163.742,679.146 162.742,675.479 162.5,671.5 Z"/></g>
<g><path style="opacity:1" fill="#babbba" d="M 915.5,675.5 C 915.416,679.837 914.416,683.837 912.5,687.5C 912.898,683.239 913.898,679.239 915.5,675.5 Z"/></g>
<g><path style="opacity:1" fill="#696a69" d="M 261.5,688.5 C 268.406,705.646 276.406,722.313 285.5,738.5C 284.624,738.631 283.957,738.298 283.5,737.5C 274.118,721.764 266.785,705.431 261.5,688.5 Z"/></g>
<g><path style="opacity:1" fill="#babbba" d="M 812.5,703.5 C 811.962,705.117 811.629,706.784 811.5,708.5C 810.167,710.5 808.833,712.5 807.5,714.5C 808.393,710.387 810.06,706.72 812.5,703.5 Z"/></g>
<g><path style="opacity:1" fill="#696a69" d="M 811.5,708.5 C 810.207,713.753 807.874,718.419 804.5,722.5C 805.454,719.857 806.454,717.19 807.5,714.5C 808.833,712.5 810.167,710.5 811.5,708.5 Z"/></g>
<g><path style="opacity:1" fill="#696a69" d="M 901.5,716.5 C 899.184,724.805 896.017,732.805 892,740.5C 889.646,745.887 886.812,750.887 883.5,755.5C 889.286,742.271 895.286,729.271 901.5,716.5 Z"/></g>
<g><path style="opacity:1" fill="#959595" d="M 804.5,722.5 C 802.76,727.747 800.093,732.414 796.5,736.5C 795.833,736.833 795.167,737.167 794.5,737.5C 796.809,733.379 798.975,729.045 801,724.5C 802.113,723.695 803.279,723.028 804.5,722.5 Z"/></g>
<g><path style="opacity:1" fill="#696a69" d="M 796.5,736.5 C 794.612,740.606 792.446,744.606 790,748.5C 788.951,750.618 787.451,752.284 785.5,753.5C 788.5,748.167 791.5,742.833 794.5,737.5C 795.167,737.167 795.833,736.833 796.5,736.5 Z"/></g>
<g><path style="opacity:1" fill="#696a69" d="M 186.5,737.5 C 192.085,747.669 197.418,758.002 202.5,768.5C 201.833,768.167 201.167,767.833 200.5,767.5C 198.26,761.35 195.26,755.684 191.5,750.5C 190.674,747.515 189.341,744.849 187.5,742.5C 186.962,740.883 186.629,739.216 186.5,737.5 Z"/></g>
<g><path style="opacity:1" fill="#7f7f7f" d="M 285.5,738.5 C 288.084,739.048 289.084,740.715 288.5,743.5C 287.282,742.269 285.949,741.102 284.5,740C 285.056,739.617 285.389,739.117 285.5,738.5 Z"/></g>
<g><path style="opacity:1" fill="#babbba" d="M 187.5,742.5 C 189.341,744.849 190.674,747.515 191.5,750.5C 189.127,748.421 187.794,745.754 187.5,742.5 Z"/></g>
<g><path style="opacity:1" fill="#696a69" d="M 288.5,743.5 C 290.262,744.262 291.262,745.596 291.5,747.5C 289.738,746.738 288.738,745.404 288.5,743.5 Z"/></g>
<g><path style="opacity:1" fill="#7d7d7d" d="M 291.5,747.5 C 294.086,748.487 295.419,750.487 295.5,753.5C 293.178,752.198 291.845,750.198 291.5,747.5 Z"/></g>
<g><path style="opacity:1" fill="#696a69" d="M 295.5,753.5 C 297.262,754.262 298.262,755.596 298.5,757.5C 296.554,756.965 295.554,755.632 295.5,753.5 Z"/></g>
<g><path style="opacity:1" fill="#757575" d="M 785.5,753.5 C 783.262,758.071 780.262,762.071 776.5,765.5C 776.892,763.821 777.392,762.154 778,760.5C 780.498,758.177 782.998,755.843 785.5,753.5 Z"/></g>
<g><path style="opacity:1" fill="#696a69" d="M 883.5,755.5 C 874.101,773.969 863.435,791.636 851.5,808.5C 850.167,809.5 848.833,810.5 847.5,811.5C 860.002,793.165 872.002,774.498 883.5,755.5 Z"/></g>
<g><path style="opacity:1" fill="#696a69" d="M 298.5,757.5 C 299.906,757.973 300.573,758.973 300.5,760.5C 298.952,760.179 298.285,759.179 298.5,757.5 Z"/></g>
<g><path style="opacity:1" fill="#696a69" d="M 300.5,760.5 C 303.636,763.429 306.303,766.762 308.5,770.5C 304.894,767.976 302.228,764.643 300.5,760.5 Z"/></g>
<g><path style="opacity:1" fill="#ababab" d="M 200.5,767.5 C 201.167,767.833 201.833,768.167 202.5,768.5C 203.338,768.842 203.672,769.508 203.5,770.5C 203.5,771.167 203.5,771.833 203.5,772.5C 201.75,771.341 200.75,769.674 200.5,767.5 Z"/></g>
<g><path style="opacity:1" fill="#717171" d="M 776.5,765.5 C 773.963,770.217 770.796,774.551 767,778.5C 756.544,789.796 745.378,800.13 733.5,809.5C 734.5,808.167 735.5,806.833 736.5,805.5C 746.767,796.736 756.6,787.403 766,777.5C 767.906,772.094 771.406,768.094 776.5,765.5 Z"/></g>
<g><path style="opacity:1" fill="#696a69" d="M 203.5,770.5 C 206.952,774.299 209.618,778.632 211.5,783.5C 208.833,779.833 206.167,776.167 203.5,772.5C 203.5,771.833 203.5,771.167 203.5,770.5 Z"/></g>
<g><path style="opacity:1" fill="#979797" d="M 308.5,770.5 C 313.092,773.586 317.258,777.253 321,781.5C 325.378,786.373 329.545,791.373 333.5,796.5C 332.325,796.719 331.325,796.386 330.5,795.5C 322.445,787.666 315.112,779.333 308.5,770.5 Z"/></g>
<g><path style="opacity:1" fill="#757575" d="M 211.5,783.5 C 215.61,787.951 218.944,792.951 221.5,798.5C 218.804,794.451 215.637,790.784 212,787.5C 211.51,786.207 211.343,784.873 211.5,783.5 Z"/></g>
<g><path style="opacity:1" fill="#696a69" d="M 221.5,798.5 C 225.262,801.929 228.262,805.929 230.5,810.5C 226.738,807.071 223.738,803.071 221.5,798.5 Z"/></g>
<g><path style="opacity:1" fill="#babbba" d="M 736.5,805.5 C 735.5,806.833 734.5,808.167 733.5,809.5C 732.833,809.5 732.167,809.5 731.5,809.5C 732.585,807.413 734.251,806.08 736.5,805.5 Z"/></g>
<g><path style="opacity:1" fill="#909090" d="M 333.5,796.5 C 337.993,798.31 341.659,801.31 344.5,805.5C 351.147,809.486 356.814,814.486 361.5,820.5C 357.31,818.151 353.31,815.484 349.5,812.5C 343.764,807.431 338.431,802.098 333.5,796.5 Z"/></g>
<g><path style="opacity:1" fill="#babbba" d="M 851.5,808.5 C 850.92,810.749 849.587,812.415 847.5,813.5C 847.5,812.833 847.5,812.167 847.5,811.5C 848.833,810.5 850.167,809.5 851.5,808.5 Z"/></g>
<g><path style="opacity:1" fill="#696a69" d="M 230.5,810.5 C 238.83,819.666 246.997,828.999 255,838.5C 263.724,847.056 272.224,855.722 280.5,864.5C 261.344,848.682 244.677,830.682 230.5,810.5 Z"/></g>
<g><path style="opacity:1" fill="#696a69" d="M 847.5,811.5 C 847.5,812.167 847.5,812.833 847.5,813.5C 846.833,813.5 846.5,813.833 846.5,814.5C 845.167,815.5 843.833,816.5 842.5,817.5C 843.473,814.865 845.14,812.865 847.5,811.5 Z"/></g>
<g><path style="opacity:1" fill="#8e8e8e" d="M 731.5,809.5 C 732.167,809.5 732.833,809.5 733.5,809.5C 729.738,813.083 725.738,816.583 721.5,820C 718.778,822.358 715.778,824.191 712.5,825.5C 713.028,824.279 713.695,823.113 714.5,822C 720.033,817.631 725.7,813.464 731.5,809.5 Z"/></g>
<g><path style="opacity:1" fill="#babbba" d="M 846.5,814.5 C 845.92,816.749 844.587,818.415 842.5,819.5C 842.5,818.833 842.5,818.167 842.5,817.5C 843.833,816.5 845.167,815.5 846.5,814.5 Z"/></g>
<g><path style="opacity:1" fill="#696a69" d="M 842.5,817.5 C 842.5,818.167 842.5,818.833 842.5,819.5C 840.194,822.473 837.527,825.14 834.5,827.5C 834.389,826.883 834.056,826.383 833.5,826C 836.409,822.957 839.409,820.124 842.5,817.5 Z"/></g>
<g><path style="opacity:1" fill="#696a69" d="M 361.5,820.5 C 363.404,820.738 364.738,821.738 365.5,823.5C 363.368,823.446 362.035,822.446 361.5,820.5 Z"/></g>
<g><path style="opacity:1" fill="#696a69" d="M 365.5,823.5 C 368.37,824.433 370.704,826.1 372.5,828.5C 369.63,827.567 367.296,825.9 365.5,823.5 Z"/></g>
<g><path style="opacity:1" fill="#696a69" d="M 712.5,825.5 C 712.179,827.048 711.179,827.715 709.5,827.5C 709.973,826.094 710.973,825.427 712.5,825.5 Z"/></g>
<g><path style="opacity:1" fill="#696a69" d="M 709.5,827.5 C 709.027,828.906 708.027,829.573 706.5,829.5C 706.973,828.094 707.973,827.427 709.5,827.5 Z"/></g>
<g><path style="opacity:1" fill="#696a69" d="M 834.5,827.5 C 818.758,847.244 800.758,864.577 780.5,879.5C 787.297,872.545 794.63,866.045 802.5,860C 813.137,848.865 823.804,838.032 834.5,827.5 Z"/></g>
<g><path style="opacity:1" fill="#8e8e8e" d="M 372.5,828.5 C 375.812,828.149 378.145,829.482 379.5,832.5C 376.674,832.002 374.34,830.669 372.5,828.5 Z"/></g>
<g><path style="opacity:1" fill="#696a69" d="M 706.5,829.5 C 704.371,831.95 701.704,833.617 698.5,834.5C 700.629,832.05 703.296,830.383 706.5,829.5 Z"/></g>
<g><path style="opacity:1" fill="#696a69" d="M 698.5,834.5 C 693.779,838.529 688.446,841.529 682.5,843.5C 687.502,839.997 692.835,836.997 698.5,834.5 Z"/></g>
<g><path style="opacity:1" fill="#8a8a8a" d="M 379.5,832.5 C 380.873,832.343 382.207,832.51 383.5,833C 390.866,837.011 397.866,841.511 404.5,846.5C 400.01,845.672 396.177,843.672 393,840.5C 392.667,840.833 392.333,841.167 392,841.5C 391.683,839.699 391.016,839.366 390,840.5C 386.312,837.925 382.812,835.259 379.5,832.5 Z"/></g>
<g><path style="opacity:1" fill="#696a69" d="M 682.5,843.5 C 674.741,849.04 666.075,853.04 656.5,855.5C 665.004,851.323 673.671,847.323 682.5,843.5 Z"/></g>
<g><path style="opacity:1" fill="#8f8f8f" d="M 404.5,846.5 C 408.416,845.961 411.416,847.294 413.5,850.5C 410.057,849.941 407.057,848.607 404.5,846.5 Z"/></g>
<g><path style="opacity:1" fill="#696a69" d="M 413.5,850.5 C 416.912,851.042 419.912,852.375 422.5,854.5C 419.626,854.377 417.126,853.377 415,851.5C 413.893,852.712 413.393,852.379 413.5,850.5 Z"/></g>
<g><path style="opacity:1" fill="#696a69" d="M 656.5,855.5 C 655.713,857.104 654.38,857.771 652.5,857.5C 653.514,856.326 654.847,855.66 656.5,855.5 Z"/></g>
<g><path style="opacity:1" fill="#7d7d7d" d="M 422.5,854.5 C 426.775,853.75 430.109,855.083 432.5,858.5C 431.883,858.611 431.383,858.944 431,859.5C 428.172,857.615 425.338,855.949 422.5,854.5 Z"/></g>
<g><path style="opacity:1" fill="#696a69" d="M 652.5,857.5 C 648.97,860.094 644.97,861.928 640.5,863C 634.626,864.759 628.793,866.592 623,868.5C 622.601,868.272 622.435,867.938 622.5,867.5C 623.5,866.833 624.5,866.167 625.5,865.5C 634.624,863.236 643.624,860.57 652.5,857.5 Z"/></g>
<g><path style="opacity:1" fill="#696a69" d="M 432.5,858.5 C 443.301,861.657 453.967,864.991 464.5,868.5C 463.883,868.611 463.383,868.944 463,869.5C 453.219,866.261 443.386,863.095 433.5,860C 432.944,859.617 432.611,859.117 432.5,858.5 Z"/></g>
<g><path style="opacity:1" fill="#696a69" d="M 280.5,864.5 C 283.768,865.436 286.101,867.436 287.5,870.5C 284.553,869.219 282.219,867.219 280.5,864.5 Z"/></g>
<g><path style="opacity:1" fill="#babbba" d="M 625.5,865.5 C 624.5,866.167 623.5,866.833 622.5,867.5C 622.167,867.5 621.833,867.5 621.5,867.5C 620.5,867.5 619.5,867.5 618.5,867.5C 620.515,866.076 622.848,865.41 625.5,865.5 Z"/></g>
<g><path style="opacity:1" fill="#babbba" d="M 618.5,867.5 C 617.5,868.167 616.5,868.833 615.5,869.5C 613.833,869.5 612.167,869.5 610.5,869.5C 612.905,868.232 615.572,867.565 618.5,867.5 Z"/></g>
<g><path style="opacity:1" fill="#696a69" d="M 618.5,867.5 C 619.5,867.5 620.5,867.5 621.5,867.5C 619.83,869.613 617.83,870.28 615.5,869.5C 616.5,868.833 617.5,868.167 618.5,867.5 Z"/></g>
<g><path style="opacity:1" fill="#696a69" d="M 464.5,868.5 C 466.099,868.232 467.432,868.566 468.5,869.5C 466.999,870.443 465.665,870.109 464.5,868.5 Z"/></g>
<g><path style="opacity:1" fill="#a4a4a4" d="M 479.5,870.5 C 478.142,870.822 476.475,870.822 474.5,870.5C 472.444,871.161 470.444,870.828 468.5,869.5C 472.366,868.203 476.033,868.537 479.5,870.5 Z"/></g>
<g><path style="opacity:1" fill="#babbba" d="M 610.5,869.5 C 609.167,870.167 607.833,870.833 606.5,871.5C 606.167,871.5 605.833,871.5 605.5,871.5C 603.525,871.822 601.858,871.822 600.5,871.5C 603.217,870.437 606.051,869.437 609,868.5C 609.383,869.056 609.883,869.389 610.5,869.5 Z"/></g>
<g><path style="opacity:1" fill="#696a69" d="M 610.5,869.5 C 612.167,869.5 613.833,869.5 615.5,869.5C 612.923,870.972 610.089,871.972 607,872.5C 606.601,872.272 606.435,871.938 606.5,871.5C 607.833,870.833 609.167,870.167 610.5,869.5 Z"/></g>
<g><path style="opacity:1" fill="#696a69" d="M 474.5,870.5 C 476.475,870.822 478.142,870.822 479.5,870.5C 480.995,870.989 482.329,871.655 483.5,872.5C 483.565,872.938 483.399,873.272 483,873.5C 479.911,872.972 477.077,871.972 474.5,870.5 Z"/></g>
<g><path style="opacity:1" fill="#696a69" d="M 600.5,871.5 C 601.858,871.822 603.525,871.822 605.5,871.5C 602.534,872.867 599.367,873.867 596,874.5C 595.617,873.944 595.117,873.611 594.5,873.5C 596.374,872.715 598.374,872.048 600.5,871.5 Z"/></g>
<g><path style="opacity:1" fill="#696a69" d="M 484.5,872.5 C 488.16,872.159 491.493,872.825 494.5,874.5C 494.565,874.938 494.399,875.272 494,875.5C 490.633,874.867 487.466,873.867 484.5,872.5 Z"/></g>
<g><path style="opacity:1" fill="#696a69" d="M 501.5,875.5 C 499.369,876.542 497.369,876.208 495.5,874.5C 495.435,874.062 495.601,873.728 496,873.5C 497.948,874.109 499.782,874.776 501.5,875.5 Z"/></g>
<g><path style="opacity:1" fill="#696a69" d="M 594.5,873.5 C 592.172,874.718 589.672,875.718 587,876.5C 586.049,876.116 585.216,875.783 584.5,875.5C 587.544,873.989 590.878,873.322 594.5,873.5 Z"/></g>
<g><path style="opacity:1" fill="#696a69" d="M 503.5,874.5 C 504.833,875.167 506.167,875.833 507.5,876.5C 507.44,877.043 507.107,877.376 506.5,877.5C 504.664,876.972 502.997,876.306 501.5,875.5C 502.167,875.167 502.833,874.833 503.5,874.5 Z"/></g>
<g><path style="opacity:1" fill="#a3a3a3" d="M 503.5,874.5 C 506.545,874.704 509.379,874.704 512,874.5C 514.069,875.264 516.236,875.764 518.5,876C 519.056,876.383 519.389,876.883 519.5,877.5C 519.062,878.506 518.396,878.506 517.5,877.5C 516.081,876.549 514.415,876.216 512.5,876.5C 510.833,877.833 509.167,877.833 507.5,876.5C 506.167,875.833 504.833,875.167 503.5,874.5 Z"/></g>
<g><path style="opacity:1" fill="#babbba" d="M 574.5,875.5 C 576.948,874.527 579.615,874.194 582.5,874.5C 580.5,875.167 578.5,875.833 576.5,876.5C 576.167,876.5 575.833,876.5 575.5,876.5C 575.5,875.833 575.167,875.5 574.5,875.5 Z"/></g>
<g><path style="opacity:1" fill="#696a69" d="M 582.5,874.5 C 583.167,874.5 583.5,874.833 583.5,875.5C 582.828,876.267 581.995,876.934 581,877.5C 579.479,877.481 577.979,877.148 576.5,876.5C 578.5,875.833 580.5,875.167 582.5,874.5 Z"/></g>
<g><path style="opacity:1" fill="#8c8c8c" d="M 574.5,875.5 C 575.167,875.5 575.5,875.833 575.5,876.5C 573.444,877.216 571.277,877.883 569,878.5C 566.758,877.982 564.258,877.648 561.5,877.5C 562.498,877.656 563.498,877.156 564.5,876C 568.031,875.727 571.365,875.56 574.5,875.5 Z"/></g>
<g><path style="opacity:1" fill="#858585" d="M 287.5,870.5 C 289.255,871.072 290.922,871.906 292.5,873C 303.054,881.76 313.721,890.26 324.5,898.5C 318.644,894.823 312.644,891.323 306.5,888C 299.384,883.052 293.05,877.218 287.5,870.5 Z"/></g>
<g><path style="opacity:1" fill="#696a69" d="M 512.5,876.5 C 514.415,876.216 516.081,876.549 517.5,877.5C 515.662,878.678 513.995,878.345 512.5,876.5 Z"/></g>
<g><path style="opacity:1" fill="#696a69" d="M 523.5,877.5 C 522.5,878.833 521.5,878.833 520.5,877.5C 521.5,877.5 522.5,877.5 523.5,877.5 Z"/></g>
<g><path style="opacity:1" fill="#696a69" d="M 530.5,878.5 C 528.444,879.161 526.444,878.828 524.5,877.5C 525.216,877.217 526.049,876.884 527,876.5C 528.302,877.085 529.469,877.751 530.5,878.5 Z"/></g>
<g><path style="opacity:1" fill="#696a69" d="M 560.5,877.5 C 558.926,878.928 557.259,879.261 555.5,878.5C 556.878,877.766 558.378,877.099 560,876.5C 560.399,876.728 560.565,877.062 560.5,877.5 Z"/></g>
<g><path style="opacity:1" fill="#696a69" d="M 555.5,878.5 C 547.167,879.833 538.833,879.833 530.5,878.5C 538.833,878.5 547.167,878.5 555.5,878.5 Z"/></g>
<g><path style="opacity:1" fill="#696a69" d="M 780.5,879.5 C 778.2,881.984 775.533,883.984 772.5,885.5C 774.268,882.41 776.935,880.41 780.5,879.5 Z"/></g>
<g><path style="opacity:1" fill="#696a69" d="M 772.5,885.5 C 768.603,889.46 764.269,892.96 759.5,896C 756.273,898.112 752.94,899.945 749.5,901.5C 749.369,900.624 749.702,899.957 750.5,899.5C 757.89,894.812 765.223,890.145 772.5,885.5 Z"/></g>
<g><path style="opacity:1" fill="#696a69" d="M 324.5,898.5 C 357.37,918.442 391.537,934.442 427,946.5C 427.333,946.167 427.667,945.833 428,945.5C 433.298,947.266 438.298,948.933 443,950.5C 443.333,950.167 443.667,949.833 444,949.5C 447.49,951.311 450.824,952.644 454,953.5C 454.333,953.167 454.667,952.833 455,952.5C 456.705,953.763 458.372,954.097 460,953.5C 466.607,954.752 473.273,956.419 480,958.5C 482.667,958.5 485.333,958.5 488,958.5C 489.333,959.167 490.667,959.833 492,960.5C 493,960.167 494,959.833 495,959.5C 496.333,960.167 497.667,960.833 499,961.5C 503.594,960.63 507.927,960.297 512,960.5C 517.905,962.018 523.905,963.018 530,963.5C 537.833,963.483 545.666,963.483 553.5,963.5C 544.707,964.457 536.041,964.79 527.5,964.5C 527.167,964.5 526.833,964.5 526.5,964.5C 522.702,963.517 518.702,963.183 514.5,963.5C 514.167,963.5 513.833,963.5 513.5,963.5C 508.695,962.513 503.695,962.179 498.5,962.5C 498.167,962.5 497.833,962.5 497.5,962.5C 495.393,961.532 493.059,961.198 490.5,961.5C 483.927,960.132 477.26,959.132 470.5,958.5C 468.095,957.232 465.428,956.565 462.5,956.5C 462.167,956.5 461.833,956.5 461.5,956.5C 459.095,955.232 456.428,954.565 453.5,954.5C 444.265,951.858 434.932,949.525 425.5,947.5C 423.208,945.733 420.542,944.733 417.5,944.5C 407.703,940.541 397.703,936.874 387.5,933.5C 385.574,931.707 383.241,930.707 380.5,930.5C 376.818,927.992 372.818,925.992 368.5,924.5C 366.151,922.659 363.485,921.326 360.5,920.5C 347.833,914.171 335.833,906.837 324.5,898.5 Z"/></g>
<g><path style="opacity:1" fill="#696a69" d="M 749.5,901.5 C 743.011,906.582 736.011,910.915 728.5,914.5C 734.28,910.254 740.28,906.088 746.5,902C 747.448,901.517 748.448,901.351 749.5,901.5 Z"/></g>
<g><path style="opacity:1" fill="#696a69" d="M 728.5,914.5 C 725.991,915.921 723.657,917.588 721.5,919.5C 720.833,919.5 720.167,919.5 719.5,919.5C 721.586,917.178 724.086,915.178 727,913.5C 727.383,914.056 727.883,914.389 728.5,914.5 Z"/></g>
<g><path style="opacity:1" fill="#696a69" d="M 719.5,919.5 C 717.5,920.833 715.5,922.167 713.5,923.5C 711.046,924.227 708.713,925.227 706.5,926.5C 705.833,926.5 705.167,926.5 704.5,926.5C 708.722,923.468 713.222,920.802 718,918.5C 718.383,919.056 718.883,919.389 719.5,919.5 Z"/></g>
<g><path style="opacity:1" fill="#babbba" d="M 719.5,919.5 C 720.167,919.5 720.833,919.5 721.5,919.5C 719.421,921.873 716.754,923.206 713.5,923.5C 715.5,922.167 717.5,920.833 719.5,919.5 Z"/></g>
<g><path style="opacity:1" fill="#babbba" d="M 360.5,920.5 C 363.485,921.326 366.151,922.659 368.5,924.5C 365.246,924.206 362.579,922.873 360.5,920.5 Z"/></g>
<g><path style="opacity:1" fill="#696a69" d="M 702.5,927.5 C 701.833,928.167 701.167,928.833 700.5,929.5C 698.5,930.167 696.5,930.833 694.5,931.5C 696.428,929.753 698.594,928.087 701,926.5C 701.383,927.056 701.883,927.389 702.5,927.5 Z"/></g>
<g><path style="opacity:1" fill="#b0b0b0" d="M 704.5,926.5 C 705.167,926.5 705.833,926.5 706.5,926.5C 704.97,928.346 702.97,929.346 700.5,929.5C 701.167,928.833 701.833,928.167 702.5,927.5C 702.409,925.302 703.075,924.969 704.5,926.5 Z"/></g>
<g><path style="opacity:1" fill="#babbba" d="M 700.5,929.5 C 699.089,931.539 697.089,932.539 694.5,932.5C 694.5,932.167 694.5,931.833 694.5,931.5C 696.5,930.833 698.5,930.167 700.5,929.5 Z"/></g>
<g><path style="opacity:1" fill="#babbba" d="M 380.5,930.5 C 383.241,930.707 385.574,931.707 387.5,933.5C 384.759,933.293 382.426,932.293 380.5,930.5 Z"/></g>
<g><path style="opacity:1" fill="#696a69" d="M 694.5,931.5 C 694.5,931.833 694.5,932.167 694.5,932.5C 691.296,933.901 687.963,934.901 684.5,935.5C 687.197,933.751 690.03,932.084 693,930.5C 693.383,931.056 693.883,931.389 694.5,931.5 Z"/></g>
<g><path style="opacity:1" fill="#696a69" d="M 684.5,935.5 C 683.167,936.5 681.833,937.5 680.5,938.5C 677.458,938.733 674.792,939.733 672.5,941.5C 658.869,945.657 645.203,949.657 631.5,953.5C 629.833,953.5 628.167,953.5 626.5,953.5C 627.52,952.046 628.687,951.713 630,952.5C 638.894,950.159 648.227,947.159 658,943.5C 658.333,943.833 658.667,944.167 659,944.5C 659.853,942.875 660.853,942.542 662,943.5C 669.029,940.428 676.529,937.761 684.5,935.5 Z"/></g>
<g><path style="opacity:1" fill="#babbba" d="M 680.5,938.5 C 678.208,940.267 675.542,941.267 672.5,941.5C 674.792,939.733 677.458,938.733 680.5,938.5 Z"/></g>
<g><path style="opacity:1" fill="#babbba" d="M 417.5,944.5 C 420.542,944.733 423.208,945.733 425.5,947.5C 422.458,947.267 419.792,946.267 417.5,944.5 Z"/></g>
<g><path style="opacity:1" fill="#696a69" d="M 626.5,953.5 C 625.5,954.167 624.5,954.833 623.5,955.5C 623.167,955.5 622.833,955.5 622.5,955.5C 621.167,955.5 619.833,955.5 618.5,955.5C 621.045,953.751 623.712,953.085 626.5,953.5 Z"/></g>
<g><path style="opacity:1" fill="#babbba" d="M 626.5,953.5 C 628.167,953.5 629.833,953.5 631.5,953.5C 629.172,954.718 626.672,955.718 624,956.5C 623.601,956.272 623.435,955.938 623.5,955.5C 624.5,954.833 625.5,954.167 626.5,953.5 Z"/></g>
<g><path style="opacity:1" fill="#babbba" d="M 453.5,954.5 C 456.428,954.565 459.095,955.232 461.5,956.5C 461.565,956.938 461.399,957.272 461,957.5C 458.244,956.93 455.744,955.93 453.5,954.5 Z"/></g>
<g><path style="opacity:1" fill="#696a69" d="M 618.5,955.5 C 617.167,956.167 615.833,956.833 614.5,957.5C 611.833,957.5 609.167,957.5 606.5,957.5C 607.531,956.751 608.698,956.085 610,955.5C 612.83,955.435 615.663,955.435 618.5,955.5 Z"/></g>
<g><path style="opacity:1" fill="#babbba" d="M 618.5,955.5 C 619.833,955.5 621.167,955.5 622.5,955.5C 620.021,957.454 617.354,958.12 614.5,957.5C 615.833,956.833 617.167,956.167 618.5,955.5 Z"/></g>
<g><path style="opacity:1" fill="#babbba" d="M 462.5,956.5 C 465.428,956.565 468.095,957.232 470.5,958.5C 467.505,958.706 464.838,958.04 462.5,956.5 Z"/></g>
<g><path style="opacity:1" fill="#696a69" d="M 606.5,957.5 C 598.263,959.629 589.929,961.296 581.5,962.5C 576.637,962.181 571.97,962.514 567.5,963.5C 566.833,963.5 566.167,963.5 565.5,963.5C 561.958,963.187 558.625,963.521 555.5,964.5C 554.833,964.167 554.167,963.833 553.5,963.5C 558.842,962.485 564.342,961.485 570,960.5C 573.41,961.068 576.744,961.402 580,961.5C 581,960.833 582,960.167 583,959.5C 586.667,959.5 590.333,959.5 594,959.5C 597.495,958.853 601.162,957.853 605,956.5C 605.383,957.056 605.883,957.389 606.5,957.5 Z"/></g>
<g><path style="opacity:1" fill="#babbba" d="M 490.5,961.5 C 493.059,961.198 495.393,961.532 497.5,962.5C 497.565,962.938 497.399,963.272 497,963.5C 494.723,962.883 492.556,962.216 490.5,961.5 Z"/></g>
<g><path style="opacity:1" fill="#babbba" d="M 498.5,962.5 C 503.695,962.179 508.695,962.513 513.5,963.5C 511.232,963.385 508.732,963.718 506,964.5C 503.393,963.877 500.893,963.21 498.5,962.5 Z"/></g>
<g><path style="opacity:1" fill="#babbba" d="M 581.5,962.5 C 577.101,963.191 572.601,963.858 568,964.5C 567.601,964.272 567.435,963.938 567.5,963.5C 571.97,962.514 576.637,962.181 581.5,962.5 Z"/></g>
<g><path style="opacity:1" fill="#babbba" d="M 514.5,963.5 C 518.702,963.183 522.702,963.517 526.5,964.5C 523.792,964.944 520.959,965.277 518,965.5C 516.698,964.915 515.531,964.249 514.5,963.5 Z"/></g>
<g><path style="opacity:1" fill="#babbba" d="M 553.5,963.5 C 554.167,963.833 554.833,964.167 555.5,964.5C 546.167,965.833 536.833,965.833 527.5,964.5C 536.041,964.79 544.707,964.457 553.5,963.5 Z"/></g>
<g><path style="opacity:1" fill="#babbba" d="M 555.5,964.5 C 558.625,963.521 561.958,963.187 565.5,963.5C 564.828,964.267 563.995,964.934 563,965.5C 560.534,965.394 558.034,965.061 555.5,964.5 Z"/></g>
</svg>
