<?xml version="1.0" standalone="no"?><!DOCTYPE svg PUBLIC "-//W3C//DTD SVG 1.1//EN" "http://www.w3.org/Graphics/SVG/1.1/DTD/svg11.dtd"><svg t="1774500536688" class="icon" viewBox="0 0 1024 1024" version="1.1" xmlns="http://www.w3.org/2000/svg" p-id="1629" xmlns:xlink="http://www.w3.org/1999/xlink" width="200" height="200"><path d="M231.159808 725.225472c-63.102976-63.086592-102.132736-150.2464-102.132736-246.52288 0-192.523264 156.070912-348.593152 348.592128-348.593152 192.52224 0 348.593152 156.070912 348.593152 348.593152 0 96.277504-39.02976 183.436288-102.132736 246.52288-63.079424 63.064064-150.214656 102.069248-246.460416 102.069248-96.24576-0.001024-183.379968-39.006208-246.459392-102.069248zM673.18784 283.19744c-107.98592-108.036096-283.103232-108.036096-391.138304 0-108.036096 108.032-108.036096 283.152384 0 391.136256 50.045952 50.062336 119.189504 81.025024 195.569664 81.025024 76.376064 0 145.522688-30.964736 195.56864-81.025024 50.060288-50.045952 81.026048-119.191552 81.026048-195.56864 0-76.379136-30.966784-145.522688-81.026048-195.567616z m73.212928 464.56832l0.001024-0.003072c8.597504-8.644608 25.622528-18.11456 38.779904-18.116608 13.154304 0.002048 25.059328 5.353472 33.659904 13.99808l67.273728 67.321856c8.607744 8.60672 13.93152 20.501504 13.93152 33.637376 0 26.269696-28.539904 55.811072-54.811648 55.811072-13.135872 0-25.028608-5.3248-33.637376-13.933568l-67.32288-67.274752c-8.62208-8.608768-13.956096-20.509696-13.956096-33.656832 0-13.15328 7.455744-29.174784 16.08192-37.783552z" fill="#080103" p-id="1630"></path></svg>