<?xml version="1.0" standalone="no"?><!DOCTYPE svg PUBLIC "-//W3C//DTD SVG 1.1//EN" "http://www.w3.org/Graphics/SVG/1.1/DTD/svg11.dtd"><svg t="1772478130767" class="icon" viewBox="0 0 1024 1024" version="1.1" xmlns="http://www.w3.org/2000/svg" p-id="2210" xmlns:xlink="http://www.w3.org/1999/xlink" width="200" height="200"><path d="M512 64c-247.3984 0-448 200.6016-448 448s200.6016 448 448 448 448-200.6016 448-448-200.6016-448-448-448z m0 820c-205.4016 0-372-166.5984-372-372S306.5984 140 512 140 884 306.5984 884 512 717.4016 884 512 884zM390.4 281.6h12.8a25.6 25.6 0 0 1 25.6 25.6v409.6a25.6 25.6 0 0 1-25.6 25.6h-12.8a25.6 25.6 0 0 1-25.6-25.6V307.2a25.6 25.6 0 0 1 25.6-25.6z m236.8 0h12.8a25.6 25.6 0 0 1 25.6 25.6v409.6a25.6 25.6 0 0 1-25.6 25.6h-12.8a25.6 25.6 0 0 1-25.6-25.6V307.2a25.6 25.6 0 0 1 25.6-25.6z" fill="#000000" p-id="2211"></path></svg>