<?xml version="1.0" standalone="no"?><!DOCTYPE svg PUBLIC "-//W3C//DTD SVG 1.1//EN" "http://www.w3.org/Graphics/SVG/1.1/DTD/svg11.dtd"><svg t="1776120524699" class="icon" viewBox="0 0 1024 1024" version="1.1" xmlns="http://www.w3.org/2000/svg" p-id="8483" xmlns:xlink="http://www.w3.org/1999/xlink" width="200" height="200"><path d="M776.72 545.248c1.44 144.832 142.4 189.888 144 190.56a521.76 521.76 0 0 1-69.6 136.24c-41.92 58.368-85.28 116.4-153.6 117.6-67.36 1.2-88.96-38.016-165.76-38.016s-100.96 36.8-164.48 39.216c-66.08 2.4-116.32-62.976-158.56-121.12-86.24-118.944-152.16-336-63.68-482.624a247.888 247.888 0 0 1 207.84-120.096c64.8-1.12 126.08 41.712 165.6 41.712s114.08-51.472 192.32-43.936a238.576 238.576 0 0 1 183.52 94.864c-4.64 2.928-118.88 64.256-117.6 185.6z m-266.24-291.36c-7.52-55.056 20.96-112.272 53.44-148.224a228.24 228.24 0 0 1 147.84-72.496 205.2 205.2 0 0 1-52.32 152.944c-35.04 40.416-92.48 72-148.96 67.776z" fill="#E2E2E2" p-id="8484"></path></svg>