<svg xmlns="http://www.w3.org/2000/svg" viewBox="0 0 480 270" preserveAspectRatio="xMidYMid slice">
  <rect width="480" height="270" fill="#ffffff"/>
  <!-- Header -->
  <rect x="0" y="0" width="480" height="36" fill="#ffffff" stroke="#e5e5e5" stroke-width="1"/>
  <circle cx="18" cy="18" r="7" fill="#0052D9"/>
  <rect x="32" y="14" width="48" height="8" fill="#1a1a1a"/>
  <rect x="300" y="14" width="22" height="8" fill="#555"/>
  <rect x="330" y="14" width="22" height="8" fill="#555"/>
  <rect x="360" y="14" width="22" height="8" fill="#0052D9"/>
  <rect x="390" y="14" width="22" height="8" fill="#555"/>
  <rect x="420" y="14" width="22" height="8" fill="#555"/>
  <!-- Hero card -->
  <rect x="24" y="60" width="432" height="118" fill="#f5f7fa" stroke="#e5e5e5" stroke-width="1"/>
  <rect x="24" y="60" width="140" height="118" fill="#0052D9" opacity="0.88"/>
  <rect x="180" y="80" width="120" height="10" fill="#1a1a1a"/>
  <rect x="180" y="98" width="240" height="6" fill="#999"/>
  <rect x="180" y="110" width="220" height="6" fill="#999"/>
  <rect x="180" y="122" width="180" height="6" fill="#999"/>
  <rect x="180" y="148" width="56" height="18" fill="#0052D9"/>
  <!-- Grid cards -->
  <g transform="translate(24, 194)">
    <rect x="0" y="0" width="138" height="60" fill="#ffffff" stroke="#e5e5e5" stroke-width="1"/>
    <rect x="8" y="10" width="100" height="8" fill="#1a1a1a"/>
    <rect x="8" y="24" width="122" height="5" fill="#bbb"/>
    <rect x="8" y="33" width="90" height="5" fill="#bbb"/>
    <rect x="8" y="46" width="36" height="5" fill="#0052D9"/>
  </g>
  <g transform="translate(171, 194)">
    <rect x="0" y="0" width="138" height="60" fill="#ffffff" stroke="#e5e5e5" stroke-width="1"/>
    <rect x="8" y="10" width="100" height="8" fill="#1a1a1a"/>
    <rect x="8" y="24" width="122" height="5" fill="#bbb"/>
    <rect x="8" y="33" width="90" height="5" fill="#bbb"/>
    <rect x="8" y="46" width="36" height="5" fill="#0052D9"/>
  </g>
  <g transform="translate(318, 194)">
    <rect x="0" y="0" width="138" height="60" fill="#ffffff" stroke="#e5e5e5" stroke-width="1"/>
    <rect x="8" y="10" width="100" height="8" fill="#1a1a1a"/>
    <rect x="8" y="24" width="122" height="5" fill="#bbb"/>
    <rect x="8" y="33" width="90" height="5" fill="#bbb"/>
    <rect x="8" y="46" width="36" height="5" fill="#0052D9"/>
  </g>
</svg>
