<svg height="48" viewBox="0 0 48 48" width="48" xmlns="http://www.w3.org/2000/svg"><g id="clock" fill="none" fill-rule="evenodd"><g id="&#x7F16;&#x7EC4;" fill-rule="nonzero" transform="translate(2 2)"><path id="&#x8DEF;&#x5F84;" d="m0 21.5c0 11.8741221 9.8497355 21.5 22 21.5s22-9.6258779 22-21.5c0-11.87412212-9.8497355-21.5-22-21.5s-22 9.62587788-22 21.5z" fill="#c8c6c4"/><path id="&#x8DEF;&#x5F84;" d="m2.53121409 21.5c0 10.5078584 8.71647231 19.0261607 19.46878591 19.0261607s19.4687859-8.5183023 19.4687859-19.0261607-8.7164723-19.02616065-19.4687859-19.02616065-19.46878591 8.51830225-19.46878591 19.02616065z" fill="#fff"/><g fill="#5b5144"><path id="&#x8DEF;&#x5F84;" d="m20.0546003 21.5c0 1.0500051.8709851 1.9012024 1.9453997 1.9012024s1.9453997-.8511973 1.9453997-1.9012024-.8709851-1.9012024-1.9453997-1.9012024-1.9453997.8511973-1.9453997 1.9012024z"/><path id="&#x5F62;&#x72B6;" d="m22.7787801 19.6721142c0 .4204928-.3487218.7611998-.7787801.7611998s-.7787801-.340707-.7787801-.7611998v-10.27559783c0-.42049279.3487218-.76119977.7787801-.76119977s.7787801.34070698.7787801.76119977zm-2.4169612 2.7759713c.3277316-.2724219.819329-.2336072 1.0979248.0867341.1335921.1524692.1996224.3530056.1828825.5554208-.0167398.2024152-.1148067.3892583-.2716133.5174947l-4.7463842 3.9449651c-.3277317.2724218-.8193291.2336071-1.0979249-.0867341-.1335921-.1524692-.1996224-.3530056-.1828825-.5554208.0167398-.2024153.1148067-.3892583.2716134-.5174947z"/></g></g></g></svg>