<svg xmlns="http://www.w3.org/2000/svg" version="1.1" xmlns:xlink="http://www.w3.org/1999/xlink" width="512" height="512" x="0" y="0" viewBox="0 0 512 512" style="enable-background:new 0 0 512 512" xml:space="preserve"><g><g data-name="ARROW 48"><path d="M487.84 272.85a24 24 0 0 0-24 24v96.61a70.46 70.46 0 0 1-70.38 70.38H118.54a70.46 70.46 0 0 1-70.38-70.38V118.54a70.46 70.46 0 0 1 70.38-70.38h96.61a24 24 0 1 0 0-48h-96.61A118.52 118.52 0 0 0 .16 118.54v274.92a118.52 118.52 0 0 0 118.38 118.38h274.92a118.52 118.52 0 0 0 118.38-118.38v-96.61a24 24 0 0 0-24-24z" fill="currentColor" opacity="1" data-original="#000000"></path><path d="M487.33 0h-149.2a24 24 0 0 0-24 23.53C313.88 37 325.21 48 338.67 48H430L238.86 239.2a24 24 0 0 0 0 33.94 24 24 0 0 0 33.94 0L464 82v91.66a24 24 0 0 0 48 0v-149A24.66 24.66 0 0 0 487.33 0z" fill="currentColor" opacity="1" data-original="#000000"></path></g></g></svg>